<svg version="1.1" xmlns="http://www.w3.org/2000/svg" width="40" height="40" data-icon="cdf-smooth-40" class="iconning iconning-cdf-smooth-40" viewBox="0 0 40 40" id="cdf-smooth40">
    <g class="iconning-metadata">
        <title>Cumulative Density Function Chart with Smooth Plot</title>
    </g>
    <g class="iconning-container" data-width="40" data-height="40">
        <!-- Axes -->
        <line stroke="rgb(  0,  0,  0)" stroke-width="1.0" stroke-linecap="butt" class="iconning iconning-grid-lines-axes" x1="1.5" y1="39.0" x2="1.5" y2="2.0"/>
        <line stroke="rgb(  0,  0,  0)" stroke-width="1.0" stroke-linecap="butt" class="iconning iconning-grid-lines-axes" x1="1.0" y1="38.5" x2="39.0" y2="38.5"/>
        <!-- Major Tick Marks -->
        <line stroke="rgb(  0,  0,  0)" stroke-width="1.0" stroke-linecap="butt" class="iconning iconning-grid-lines-tick-marks iconning-grid-lines-tick-major" x1="2.0" y1="32.5" x2="4.0" y2="32.5"/>
        <line stroke="rgb(  0,  0,  0)" stroke-width="1.0" stroke-linecap="butt" class="iconning iconning-grid-lines-tick-marks iconning-grid-lines-tick-major" x1="2.0" y1="26.5" x2="4.0" y2="26.5"/>
        <line stroke="rgb(  0,  0,  0)" stroke-width="1.0" stroke-linecap="butt" class="iconning iconning-grid-lines-tick-marks iconning-grid-lines-tick-major" x1="2.0" y1="20.5" x2="4.0" y2="20.5"/>
        <line stroke="rgb(  0,  0,  0)" stroke-width="1.0" stroke-linecap="butt" class="iconning iconning-grid-lines-tick-marks iconning-grid-lines-tick-major" x1="2.0" y1="14.5" x2="4.0" y2="14.5"/>
        <line stroke="rgb(  0,  0,  0)" stroke-width="1.0" stroke-linecap="butt" class="iconning iconning-grid-lines-tick-marks iconning-grid-lines-tick-major" x1="2.0" y1="8.5" x2="4.0" y2="8.5"/>
        <line stroke="rgb(  0,  0,  0)" stroke-width="1.0" stroke-linecap="butt" class="iconning iconning-grid-lines-tick-marks iconning-grid-lines-tick-major" x1="2.0" y1="2.5" x2="4.0" y2="2.5"/>
        <!-- Minor Tick Marks -->
        <line stroke="rgb(  0,  0,  0)" stroke-width="1.0" stroke-linecap="butt" class="iconning iconning-grid-lines-tick-marks iconning-grid-lines-tick-minor" x1="2.0" y1="35.5" x2="3.0" y2="35.5"/>
        <line stroke="rgb(  0,  0,  0)" stroke-width="1.0" stroke-linecap="butt" class="iconning iconning-grid-lines-tick-marks iconning-grid-lines-tick-minor" x1="2.0" y1="29.5" x2="3.0" y2="29.5"/>
        <line stroke="rgb(  0,  0,  0)" stroke-width="1.0" stroke-linecap="butt" class="iconning iconning-grid-lines-tick-marks iconning-grid-lines-tick-minor" x1="2.0" y1="23.5" x2="3.0" y2="23.5"/>
        <line stroke="rgb(  0,  0,  0)" stroke-width="1.0" stroke-linecap="butt" class="iconning iconning-grid-lines-tick-marks iconning-grid-lines-tick-minor" x1="2.0" y1="17.5" x2="3.0" y2="17.5"/>
        <line stroke="rgb(  0,  0,  0)" stroke-width="1.0" stroke-linecap="butt" class="iconning iconning-grid-lines-tick-marks iconning-grid-lines-tick-minor" x1="2.0" y1="11.5" x2="3.0" y2="11.5"/>
        <line stroke="rgb(  0,  0,  0)" stroke-width="1.0" stroke-linecap="butt" class="iconning iconning-grid-lines-tick-marks iconning-grid-lines-tick-minor" x1="2.0" y1="5.5" x2="3.0" y2="5.5"/>
        <!-- CDF Smooth Plot -->
        <path class="iconning iconning-cdf iconning-cdf-40 iconning-fill iconning-accent-1" d="M 7 34 L 7.0 34.0 L 10.898944768083318 33.56060606060606 L 12.25541318853922 33.121212121212125 L 13.141058167425772 32.68181818181819 L 13.792916335800367 32.24242424242425 L 14.349844945790233 31.80303030303031 L 14.798923453675117 31.363636363636374 L 15.199320780610607 30.924242424242436 L 15.561049704851005 30.4848484848485 L 15.900525365909065 30.04545454545456 L 16.190254105207018 29.606060606060623 L 16.485887893375963 29.166666666666686 L 16.751065861389506 28.727272727272748 L 17.01089313196591 28.28787878787881 L 17.25643876530543 27.848484848484873 L 17.490352389312065 27.409090909090935 L 17.723215227179328 26.969696969696997 L 17.948403052993804 26.53030303030306 L 18.172477784582526 26.090909090909122 L 18.38021159444528 25.651515151515184 L 18.580269230762944 25.212121212121247 L 18.795207187267913 24.77272727272731 L 18.995250985953245 24.33333333333337 L 19.18847053128689 23.893939393939434 L 19.367934845566907 23.454545454545496 L 19.554739561011313 23.015151515151558 L 19.742296893210046 22.57575757575762 L 19.93026497080834 22.136363636363683 L 20.10280653745866 21.696969696969745 L 20.28781603722323 21.257575757575808 L 20.46617856925039 20.81818181818187 L 20.640985755445605 20.378787878787932 L 20.813902291109777 19.939393939393995 L 20.991636203361114 19.500000000000057 L 21.177737769596995 19.06060606060612 L 21.36152841611849 18.62121212121218 L 21.54303295012877 18.181818181818244 L 21.717014396622226 17.742424242424306 L 21.899616161970798 17.30303030303037 L 22.082846093795652 16.86363636363643 L 22.26448152315232 16.424242424242493 L 22.447282119252595 15.984848484848554 L 22.64607214068242 15.545454545454614 L 22.82247229445644 15.106060606060675 L 23.01266050634922 14.666666666666735 L 23.205729082821623 14.227272727272796 L 23.415431374424266 13.787878787878856 L 23.61349031555848 13.348484848484917 L 23.82375305243407 12.909090909090978 L 24.037423435942667 12.469696969697038 L 24.263546472054067 12.030303030303099 L 24.487534290858203 11.59090909090916 L 24.728596804449033 11.15151515151522 L 24.95288649840725 10.71212121212128 L 25.219723970610705 10.27272727272734 L 25.481220642176883 9.833333333333401 L 25.77762189690093 9.393939393939462 L 26.09047232749505 8.954545454545523 L 26.431804631528678 8.515151515151583 L 26.795986565383036 8.075757575757644 L 27.17465722244056 7.636363636363704 L 27.649352339809468 7.196969696969765 L 28.176701657459077 6.757575757575825 L 28.880028937221812 6.318181818181886 L 29.74034381196226 5.878787878787946 L 31.07833889719236 5.439393939394007 L 35.0 5.0000000000000675" stroke="rgb( 40, 70,200)" stroke-width="4.232892142331044" stroke-linecap="round" stroke-endcap="round" style="fill:none"/>
    </g>
</svg>
