<svg version="1.1" xmlns="http://www.w3.org/2000/svg" width="64" height="64" data-icon="cdf-64" class="iconning iconning-cdf-64" viewBox="0 0 64 64" id="cdf64">
    <g class="iconning-metadata">
        <title>Cumulative Density Function Chart with Filled Plot</title>
    </g>
    <g class="iconning-container" data-width="64" data-height="64">
        <!-- Axes -->
        <line stroke="rgb(  0,  0,  0)" stroke-width="2.0" stroke-linecap="butt" class="iconning iconning-grid-lines-axes" x1="3.0" y1="62.0" x2="3.0" y2="6.0"/>
        <line stroke="rgb(  0,  0,  0)" stroke-width="2.0" stroke-linecap="butt" class="iconning iconning-grid-lines-axes" x1="2.0" y1="61.0" x2="62.0" y2="61.0"/>
        <!-- Major Tick Marks -->
        <line stroke="rgb(  0,  0,  0)" stroke-width="2.0" stroke-linecap="butt" class="iconning iconning-grid-lines-tick-marks iconning-grid-lines-tick-major" x1="4.0" y1="49.0" x2="8.0" y2="49.0"/>
        <line stroke="rgb(  0,  0,  0)" stroke-width="2.0" stroke-linecap="butt" class="iconning iconning-grid-lines-tick-marks iconning-grid-lines-tick-major" x1="4.0" y1="37.0" x2="8.0" y2="37.0"/>
        <line stroke="rgb(  0,  0,  0)" stroke-width="2.0" stroke-linecap="butt" class="iconning iconning-grid-lines-tick-marks iconning-grid-lines-tick-major" x1="4.0" y1="25.0" x2="8.0" y2="25.0"/>
        <line stroke="rgb(  0,  0,  0)" stroke-width="2.0" stroke-linecap="butt" class="iconning iconning-grid-lines-tick-marks iconning-grid-lines-tick-major" x1="4.0" y1="13.0" x2="8.0" y2="13.0"/>
        <!-- Minor Tick Marks -->
        <line stroke="rgb(  0,  0,  0)" stroke-width="2.0" stroke-linecap="butt" class="iconning iconning-grid-lines-tick-marks iconning-grid-lines-tick-minor" x1="4.0" y1="55.0" x2="6.0" y2="55.0"/>
        <line stroke="rgb(  0,  0,  0)" stroke-width="2.0" stroke-linecap="butt" class="iconning iconning-grid-lines-tick-marks iconning-grid-lines-tick-minor" x1="4.0" y1="43.0" x2="6.0" y2="43.0"/>
        <line stroke="rgb(  0,  0,  0)" stroke-width="2.0" stroke-linecap="butt" class="iconning iconning-grid-lines-tick-marks iconning-grid-lines-tick-minor" x1="4.0" y1="31.0" x2="6.0" y2="31.0"/>
        <line stroke="rgb(  0,  0,  0)" stroke-width="2.0" stroke-linecap="butt" class="iconning iconning-grid-lines-tick-marks iconning-grid-lines-tick-minor" x1="4.0" y1="19.0" x2="6.0" y2="19.0"/>
        <line stroke="rgb(  0,  0,  0)" stroke-width="2.0" stroke-linecap="butt" class="iconning iconning-grid-lines-tick-marks iconning-grid-lines-tick-minor" x1="4.0" y1="7.0" x2="6.0" y2="7.0"/>
        <!-- CDF Filled Plot -->
        <path class="iconning iconning-cdf iconning-cdf-64 iconning-accent-1" d="M 10 58 L 10.0 58.0 L 15.510938675482066 57.5 L 17.900009458628283 57.0 L 19.31275589278392 56.5 L 20.437327265067175 56.0 L 21.29777076867839 55.5 L 22.01484143018281 55.0 L 22.714110498264013 54.5 L 23.313063614360686 54.0 L 23.84194178674277 53.5 L 24.324088363366485 53.0 L 24.782810717634714 52.5 L 25.198036061282778 52.0 L 25.612717846387746 51.5 L 25.98118241919712 51.0 L 26.33487309638823 50.5 L 26.667556853973313 50.0 L 27.011216032034643 49.5 L 27.334278435053715 49.0 L 27.631418932791252 48.5 L 27.9262637591577 48.0 L 28.23323052322611 47.5 L 28.50078661966958 47.0 L 28.77640701631722 46.5 L 29.052756568263113 46.0 L 29.323198266387482 45.5 L 29.577341348949336 45.0 L 29.832465255576736 44.5 L 30.082068032989138 44.0 L 30.327065059627124 43.5 L 30.55904826475151 43.0 L 30.806892834667185 42.5 L 31.054933873803513 42.0 L 31.29492277846665 41.5 L 31.522715046422725 41.0 L 31.752850157366574 40.5 L 31.965127151013178 40.0 L 32.182384711651366 39.5 L 32.39535173816783 39.0 L 32.61679518721145 38.5 L 32.83627321954026 38.0 L 33.05069263138466 37.5 L 33.26830436022096 37.0 L 33.47833089178483 36.5 L 33.695495197253656 36.0 L 33.91383408212907 35.5 L 34.11464443533992 35.0 L 34.322596007431315 34.5 L 34.52910567608263 34.0 L 34.74094495265116 33.5 L 34.9387869876587 33.0 L 35.15002204793178 32.5 L 35.369213106112056 32.0 L 35.58492095506975 31.5 L 35.80282660714735 31.0 L 36.01606103557252 30.5 L 36.227963671851185 30.0 L 36.43367895706396 29.5 L 36.6590676624795 29.0 L 36.878546881017094 28.5 L 37.10000554582925 28.0 L 37.30617154643723 27.5 L 37.52538469536672 27.0 L 37.75900130290512 26.5 L 37.97830436385061 26.0 L 38.19317613687572 25.5 L 38.408664430595095 25.0 L 38.639688397802175 24.5 L 38.87520683916041 24.0 L 39.11005542820207 23.5 L 39.35032889753182 23.0 L 39.58922750645644 22.5 L 39.83236367301387 22.0 L 40.09077541862111 21.5 L 40.33943916481762 21.0 L 40.59966169456633 20.5 L 40.870191890453924 20.0 L 41.14250110426708 19.5 L 41.40253867021609 19.0 L 41.69093461976322 18.5 L 41.965012939459314 18.0 L 42.282646483181644 17.5 L 42.603795536540595 17.0 L 42.9061137559429 16.5 L 43.24030612322384 16.0 L 43.58499854473175 15.5 L 43.95493430213678 15.0 L 44.33486346321935 14.5 L 44.75424307482053 14.0 L 45.17327751983381 13.5 L 45.613064792297855 13.0 L 46.10147947887996 12.5 L 46.643363532186335 12.0 L 47.2284737370499 11.5 L 47.884624243588206 11.0 L 48.67465549454262 10.5 L 49.56992350442228 10.0 L 50.63018620767887 9.5 L 52.07482621042136 9.0 L 54.42619810077459 8.5 L 60.0 8.0 L 60 7.5 L 60 58" fill="rgb( 40, 70,200)" style="stroke:none"/>
    </g>
</svg>
