<svg version="1.1" xmlns="http://www.w3.org/2000/svg" width="96" height="96" data-icon="cdf-smooth-96" class="iconning iconning-cdf-smooth-96" viewBox="0 0 96 96" id="cdf-smooth96">
    <g class="iconning-metadata">
        <title>Cumulative Density Function Chart with Smooth Plot</title>
    </g>
    <g class="iconning-container" data-width="96" data-height="96">
        <!-- Axes -->
        <line stroke="rgb(  0,  0,  0)" stroke-width="2.0" stroke-linecap="butt" class="iconning iconning-grid-lines-axes" x1="3.0" y1="94.0" x2="3.0" y2="2.0"/>
        <line stroke="rgb(  0,  0,  0)" stroke-width="2.0" stroke-linecap="butt" class="iconning iconning-grid-lines-axes" x1="2.0" y1="93.0" x2="94.0" y2="93.0"/>
        <!-- Major Tick Marks -->
        <line stroke="rgb(  0,  0,  0)" stroke-width="2.0" stroke-linecap="butt" class="iconning iconning-grid-lines-tick-marks iconning-grid-lines-tick-major" x1="4.0" y1="81.0" x2="8.0" y2="81.0"/>
        <line stroke="rgb(  0,  0,  0)" stroke-width="2.0" stroke-linecap="butt" class="iconning iconning-grid-lines-tick-marks iconning-grid-lines-tick-major" x1="4.0" y1="69.0" x2="8.0" y2="69.0"/>
        <line stroke="rgb(  0,  0,  0)" stroke-width="2.0" stroke-linecap="butt" class="iconning iconning-grid-lines-tick-marks iconning-grid-lines-tick-major" x1="4.0" y1="57.0" x2="8.0" y2="57.0"/>
        <line stroke="rgb(  0,  0,  0)" stroke-width="2.0" stroke-linecap="butt" class="iconning iconning-grid-lines-tick-marks iconning-grid-lines-tick-major" x1="4.0" y1="45.0" x2="8.0" y2="45.0"/>
        <line stroke="rgb(  0,  0,  0)" stroke-width="2.0" stroke-linecap="butt" class="iconning iconning-grid-lines-tick-marks iconning-grid-lines-tick-major" x1="4.0" y1="33.0" x2="8.0" y2="33.0"/>
        <line stroke="rgb(  0,  0,  0)" stroke-width="2.0" stroke-linecap="butt" class="iconning iconning-grid-lines-tick-marks iconning-grid-lines-tick-major" x1="4.0" y1="21.0" x2="8.0" y2="21.0"/>
        <line stroke="rgb(  0,  0,  0)" stroke-width="2.0" stroke-linecap="butt" class="iconning iconning-grid-lines-tick-marks iconning-grid-lines-tick-major" x1="4.0" y1="9.0" x2="8.0" y2="9.0"/>
        <!-- Minor Tick Marks -->
        <line stroke="rgb(  0,  0,  0)" stroke-width="2.0" stroke-linecap="butt" class="iconning iconning-grid-lines-tick-marks iconning-grid-lines-tick-minor" x1="4.0" y1="87.0" x2="6.0" y2="87.0"/>
        <line stroke="rgb(  0,  0,  0)" stroke-width="2.0" stroke-linecap="butt" class="iconning iconning-grid-lines-tick-marks iconning-grid-lines-tick-minor" x1="4.0" y1="75.0" x2="6.0" y2="75.0"/>
        <line stroke="rgb(  0,  0,  0)" stroke-width="2.0" stroke-linecap="butt" class="iconning iconning-grid-lines-tick-marks iconning-grid-lines-tick-minor" x1="4.0" y1="63.0" x2="6.0" y2="63.0"/>
        <line stroke="rgb(  0,  0,  0)" stroke-width="2.0" stroke-linecap="butt" class="iconning iconning-grid-lines-tick-marks iconning-grid-lines-tick-minor" x1="4.0" y1="51.0" x2="6.0" y2="51.0"/>
        <line stroke="rgb(  0,  0,  0)" stroke-width="2.0" stroke-linecap="butt" class="iconning iconning-grid-lines-tick-marks iconning-grid-lines-tick-minor" x1="4.0" y1="39.0" x2="6.0" y2="39.0"/>
        <line stroke="rgb(  0,  0,  0)" stroke-width="2.0" stroke-linecap="butt" class="iconning iconning-grid-lines-tick-marks iconning-grid-lines-tick-minor" x1="4.0" y1="27.0" x2="6.0" y2="27.0"/>
        <line stroke="rgb(  0,  0,  0)" stroke-width="2.0" stroke-linecap="butt" class="iconning iconning-grid-lines-tick-marks iconning-grid-lines-tick-minor" x1="4.0" y1="15.0" x2="6.0" y2="15.0"/>
        <line stroke="rgb(  0,  0,  0)" stroke-width="2.0" stroke-linecap="butt" class="iconning iconning-grid-lines-tick-marks iconning-grid-lines-tick-minor" x1="4.0" y1="3.0" x2="6.0" y2="3.0"/>
        <!-- CDF Smooth Plot -->
        <path class="iconning iconning-cdf iconning-cdf-96 iconning-fill iconning-accent-1" d="M 13 86 L 13.0 86.0 L 19.22675174438367 85.51829268292683 L 22.363191465153275 85.03658536585365 L 24.431344552129417 84.55487804878048 L 25.889323585564554 84.07317073170731 L 27.130146571183253 83.59146341463413 L 28.159588281450183 83.10975609756096 L 29.03679153342801 82.62804878048779 L 29.83375475269774 82.14634146341461 L 30.526625928411452 81.66463414634144 L 31.181568541387957 81.18292682926827 L 31.793233601175302 80.7012195121951 L 32.356868320436554 80.21951219512192 L 32.884891424976466 79.73780487804875 L 33.37655423193415 79.25609756097558 L 33.856226712199316 78.7743902439024 L 34.31610049241723 78.29268292682923 L 34.74061667387967 77.81097560975606 L 35.15311654336139 77.32926829268288 L 35.53674628526693 76.84756097560971 L 35.91320125006381 76.36585365853654 L 36.28537063716199 75.88414634146336 L 36.6416877273012 75.40243902439019 L 36.99179327262144 74.92073170731702 L 37.32114657053362 74.43902439024384 L 37.651912346303305 73.95731707317067 L 37.95637049785729 73.4756097560975 L 38.274435153633966 72.99390243902432 L 38.57240529643617 72.51219512195115 L 38.87630513325158 72.03048780487798 L 39.164391633227964 71.5487804878048 L 39.435688612685325 71.06707317073163 L 39.71609854129556 70.58536585365846 L 39.981110045634104 70.10365853658529 L 40.27145145679715 69.62195121951211 L 40.51752736857601 69.14024390243894 L 40.78486967038022 68.65853658536577 L 41.03852293450917 68.1768292682926 L 41.28581585815584 67.69512195121942 L 41.545416081230826 67.21341463414625 L 41.797676926500415 66.73170731707307 L 42.0441111817469 66.2499999999999 L 42.26725971294549 65.76829268292673 L 42.50437341322665 65.28658536585355 L 42.741246985687994 64.80487804878038 L 42.97445763027339 64.32317073170721 L 43.19891535986204 63.841463414634035 L 43.421058195374755 63.35975609756086 L 43.63881549777263 62.87804878048769 L 43.85455024779691 62.396341463414515 L 44.07465644907144 61.91463414634134 L 44.302922682021006 61.43292682926817 L 44.51874278113242 60.951219512194996 L 44.72699580701712 60.46951219512182 L 44.94384963700154 59.98780487804865 L 45.151889198522774 59.506097560975476 L 45.36778831959345 59.0243902439023 L 45.58139901054547 58.54268292682913 L 45.78866187604569 58.06097560975596 L 45.984080484938794 57.579268292682784 L 46.18658284267917 57.09756097560961 L 46.383086002490785 56.61585365853644 L 46.578489944101705 56.134146341463264 L 46.77390995887063 55.65243902439009 L 46.97928225911288 55.17073170731692 L 47.171586296097836 54.689024390243745 L 47.38203070405085 54.20731707317057 L 47.575760507186295 53.7256097560974 L 47.78348686628179 53.243902439024225 L 47.97503537608236 52.76219512195105 L 48.166024181750736 52.28048780487788 L 48.35310760127565 51.798780487804706 L 48.554249820006554 51.31707317073153 L 48.7518069884413 50.83536585365836 L 48.945913027644885 50.353658536585186 L 49.128018163318316 49.87195121951201 L 49.322345252295634 49.39024390243884 L 49.51383049306731 48.90853658536567 L 49.70050945631008 48.426829268292494 L 49.887006540454074 47.94512195121932 L 50.07796114168841 47.46341463414615 L 50.26605741245257 46.981707317072974 L 50.45206139936765 46.4999999999998 L 50.64881214148576 46.01829268292663 L 50.8365115922472 45.536585365853455 L 51.03459838531318 45.05487804878028 L 51.22868865018616 44.57317073170711 L 51.42773942612634 44.091463414633935 L 51.62148192989259 43.60975609756076 L 51.81215213148439 43.12804878048759 L 51.999496537570536 42.646341463414416 L 52.2027253552664 42.16463414634124 L 52.39417828378783 41.68292682926807 L 52.58377516223871 41.201219512194896 L 52.78111993970109 40.71951219512172 L 52.98523252746048 40.23780487804855 L 53.1824749539067 39.75609756097538 L 53.382354608187896 39.274390243902204 L 53.584179424688315 38.79268292682903 L 53.77797768012094 38.31097560975586 L 53.971572138952354 37.829268292682684 L 54.1690226669811 37.34756097560951 L 54.370384638566726 36.86585365853634 L 54.57942846894617 36.384146341463165 L 54.79812604608586 35.90243902438999 L 54.991535084409584 35.42073170731682 L 55.194472317796674 34.939024390243645 L 55.397429373911905 34.45731707317047 L 55.59242882065175 33.9756097560973 L 55.79341758464892 33.493902439024126 L 56.00499078852832 33.01219512195095 L 56.22815688608842 32.53048780487778 L 56.442550832768596 32.048780487804606 L 56.66501160946349 31.567073170731437 L 56.88435229886839 31.085365853658267 L 57.09280841115515 30.603658536585097 L 57.31303785294123 30.121951219511928 L 57.54515420223474 29.64024390243876 L 57.76467030247133 29.15853658536559 L 57.992702925829605 28.67682926829242 L 58.22711115510296 28.19512195121925 L 58.45701080338143 27.71341463414608 L 58.689548641998186 27.23170731707291 L 58.92970154277618 26.74999999999974 L 59.17530005987991 26.26829268292657 L 59.422077133791596 25.7865853658534 L 59.67395509957256 25.304878048780232 L 59.925489586889725 24.823170731707062 L 60.17068088745814 24.341463414633893 L 60.43677938511266 23.859756097560723 L 60.70053858651697 23.378048780487553 L 60.95614955816409 22.896341463414384 L 61.23128182128148 22.414634146341214 L 61.512147331444226 21.932926829268045 L 61.80992951949926 21.451219512194875 L 62.09157278738763 20.969512195121705 L 62.38086268735684 20.487804878048536 L 62.6951884227438 20.006097560975366 L 62.99837208514906 19.524390243902197 L 63.313532880919276 19.042682926829027 L 63.63657096704579 18.560975609755857 L 63.9841562615422 18.079268292682688 L 64.32025074955044 17.597560975609518 L 64.68460317929737 17.11585365853635 L 65.05701478769527 16.63414634146318 L 65.43913747205973 16.15243902439001 L 65.82471728795527 15.670731707316838 L 66.23339165429849 15.189024390243667 L 66.64538325184677 14.707317073170495 L 67.10361765711802 14.225609756097324 L 67.57399445476787 13.743902439024152 L 68.05807187392341 13.262195121950981 L 68.56687266505038 12.78048780487781 L 69.11807104995172 12.298780487804638 L 69.70795084154781 11.817073170731467 L 70.4068761595842 11.335365853658296 L 71.12737339842285 10.853658536585124 L 71.92793430131812 10.371951219511953 L 72.8404563600005 9.890243902438781 L 73.88070115965034 9.40853658536561 L 75.0828737809559 8.926829268292439 L 76.55780523581942 8.445121951219267 L 78.57648703462813 7.963414634146097 L 81.81017001832927 7.481707317072926 L 88.0 6.999999999999756" stroke="rgb( 40, 70,200)" stroke-width="6.127443751081734" stroke-linecap="round" stroke-endcap="round" style="fill:none"/>
    </g>
</svg>
