<svg version="1.1" xmlns="http://www.w3.org/2000/svg" width="64" height="64" data-icon="cdf-smooth-64" class="iconning iconning-cdf-smooth-64" viewBox="0 0 64 64" id="cdf-smooth64">
    <g class="iconning-metadata">
        <title>Cumulative Density Function Chart with Smooth Plot</title>
    </g>
    <g class="iconning-container" data-width="64" data-height="64">
        <!-- Axes -->
        <line stroke="rgb(  0,  0,  0)" stroke-width="2.0" stroke-linecap="butt" class="iconning iconning-grid-lines-axes" x1="3.0" y1="62.0" x2="3.0" y2="6.0"/>
        <line stroke="rgb(  0,  0,  0)" stroke-width="2.0" stroke-linecap="butt" class="iconning iconning-grid-lines-axes" x1="2.0" y1="61.0" x2="62.0" y2="61.0"/>
        <!-- Major Tick Marks -->
        <line stroke="rgb(  0,  0,  0)" stroke-width="2.0" stroke-linecap="butt" class="iconning iconning-grid-lines-tick-marks iconning-grid-lines-tick-major" x1="4.0" y1="49.0" x2="8.0" y2="49.0"/>
        <line stroke="rgb(  0,  0,  0)" stroke-width="2.0" stroke-linecap="butt" class="iconning iconning-grid-lines-tick-marks iconning-grid-lines-tick-major" x1="4.0" y1="37.0" x2="8.0" y2="37.0"/>
        <line stroke="rgb(  0,  0,  0)" stroke-width="2.0" stroke-linecap="butt" class="iconning iconning-grid-lines-tick-marks iconning-grid-lines-tick-major" x1="4.0" y1="25.0" x2="8.0" y2="25.0"/>
        <line stroke="rgb(  0,  0,  0)" stroke-width="2.0" stroke-linecap="butt" class="iconning iconning-grid-lines-tick-marks iconning-grid-lines-tick-major" x1="4.0" y1="13.0" x2="8.0" y2="13.0"/>
        <!-- Minor Tick Marks -->
        <line stroke="rgb(  0,  0,  0)" stroke-width="2.0" stroke-linecap="butt" class="iconning iconning-grid-lines-tick-marks iconning-grid-lines-tick-minor" x1="4.0" y1="55.0" x2="6.0" y2="55.0"/>
        <line stroke="rgb(  0,  0,  0)" stroke-width="2.0" stroke-linecap="butt" class="iconning iconning-grid-lines-tick-marks iconning-grid-lines-tick-minor" x1="4.0" y1="43.0" x2="6.0" y2="43.0"/>
        <line stroke="rgb(  0,  0,  0)" stroke-width="2.0" stroke-linecap="butt" class="iconning iconning-grid-lines-tick-marks iconning-grid-lines-tick-minor" x1="4.0" y1="31.0" x2="6.0" y2="31.0"/>
        <line stroke="rgb(  0,  0,  0)" stroke-width="2.0" stroke-linecap="butt" class="iconning iconning-grid-lines-tick-marks iconning-grid-lines-tick-minor" x1="4.0" y1="19.0" x2="6.0" y2="19.0"/>
        <line stroke="rgb(  0,  0,  0)" stroke-width="2.0" stroke-linecap="butt" class="iconning iconning-grid-lines-tick-marks iconning-grid-lines-tick-minor" x1="4.0" y1="7.0" x2="6.0" y2="7.0"/>
        <!-- CDF Smooth Plot -->
        <path class="iconning iconning-cdf iconning-cdf-64 iconning-fill iconning-accent-1" d="M 12 55 L 12.0 55.0 L 16.84962603442422 54.56 L 18.952008323592885 54.120000000000005 L 20.195225185649846 53.68000000000001 L 21.184847993259112 53.24000000000001 L 21.942038276436982 52.80000000000001 L 22.57306045856087 52.360000000000014 L 23.188417238472333 51.920000000000016 L 23.7154959806374 51.48000000000002 L 24.180908772333634 51.04000000000002 L 24.605197759762508 50.60000000000002 L 25.008873431518545 50.160000000000025 L 25.374271733928843 49.72000000000003 L 25.739191704821213 49.28000000000003 L 26.063440528893462 48.84000000000003 L 26.37468832482164 48.400000000000034 L 26.667450031496514 47.960000000000036 L 26.969870108190484 47.52000000000004 L 27.254165022847268 47.08000000000004 L 27.5156486608563 46.64000000000004 L 27.77511210805877 46.200000000000045 L 28.045242860438975 45.76000000000005 L 28.280692225309227 45.32000000000005 L 28.52323817435915 44.88000000000005 L 28.766425780071536 44.440000000000055 L 29.00441447442098 44.00000000000006 L 29.228060387075416 43.56000000000006 L 29.452569424907523 43.12000000000006 L 29.672219869030442 42.680000000000064 L 29.887817252471866 42.240000000000066 L 30.091962472981326 41.80000000000007 L 30.31006569450712 41.36000000000007 L 30.52834180894709 40.92000000000007 L 30.739532045050648 40.480000000000075 L 30.939989240851997 40.04000000000008 L 31.142508138482583 39.60000000000008 L 31.329311892891592 39.16000000000008 L 31.520498546253197 38.720000000000084 L 31.70790952958769 38.280000000000086 L 31.90277976474607 37.84000000000009 L 32.09592043319543 37.40000000000009 L 32.284609515618506 36.96000000000009 L 32.476107836994444 36.520000000000095 L 32.66093118477065 36.0800000000001 L 32.85203577358321 35.6400000000001 L 33.044173992273585 35.2000000000001 L 33.22088710309913 34.760000000000105 L 33.40388448653955 34.32000000000011 L 33.58561299495271 33.88000000000011 L 33.77203155833302 33.44000000000011 L 33.94613254913965 33.000000000000114 L 34.132019402179964 32.560000000000116 L 34.32490753337861 32.12000000000012 L 34.51473044046138 31.680000000000117 L 34.70648741428967 31.240000000000116 L 34.89413371130381 30.800000000000114 L 35.08060803122905 30.360000000000113 L 35.26163748221628 29.920000000000112 L 35.45997954298196 29.48000000000011 L 35.65312125529504 29.04000000000011 L 35.84800488032973 28.600000000000108 L 36.02943096086476 28.160000000000107 L 36.22233853192271 27.720000000000105 L 36.4279211465565 27.280000000000104 L 36.620907840188536 26.840000000000103 L 36.809995000450634 26.4000000000001 L 36.99962469892368 25.9600000000001 L 37.20292579006591 25.5200000000001 L 37.41018201846116 25.080000000000098 L 37.61684877681782 24.640000000000096 L 37.828289429828 24.200000000000095 L 38.038520205681664 23.760000000000094 L 38.2524800322522 23.320000000000093 L 38.47988236838657 22.88000000000009 L 38.6987064650395 22.44000000000009 L 38.92770229121837 22.00000000000009 L 39.16576886359945 21.560000000000088 L 39.40540097175503 21.120000000000086 L 39.63423402979016 20.680000000000085 L 39.88802246539163 20.240000000000084 L 40.129211386724194 19.800000000000082 L 40.408728905199844 19.36000000000008 L 40.691340072155725 18.92000000000008 L 40.957380105229745 18.48000000000008 L 41.25146938843697 18.040000000000077 L 41.55479871936393 17.600000000000076 L 41.880342185880366 17.160000000000075 L 42.21467984763302 16.720000000000073 L 42.58373390584207 16.280000000000072 L 42.952484217453744 15.840000000000073 L 43.33949701722211 15.400000000000073 L 43.769301941414355 14.960000000000074 L 44.246159908323975 14.520000000000074 L 44.76105688860391 14.080000000000075 L 45.33846933435762 13.640000000000075 L 46.0336968351975 13.200000000000076 L 46.821532683891604 12.760000000000076 L 47.7545638627574 12.320000000000077 L 49.025847065170794 11.880000000000077 L 51.095054328681634 11.440000000000078 L 56.0 11.000000000000078" stroke="rgb( 40, 70,200)" stroke-width="5.25" stroke-linecap="round" stroke-endcap="round" style="fill:none"/>
    </g>
</svg>
