<svg version="1.1" xmlns="http://www.w3.org/2000/svg" width="80" height="80" data-icon="cdf-smooth-80" class="iconning iconning-cdf-smooth-80" viewBox="0 0 80 80" id="cdf-smooth80">
    <g class="iconning-metadata">
        <title>Cumulative Density Function Chart with Smooth Plot</title>
    </g>
    <g class="iconning-container" data-width="80" data-height="80">
        <!-- Axes -->
        <line stroke="rgb(  0,  0,  0)" stroke-width="2.0" stroke-linecap="butt" class="iconning iconning-grid-lines-axes" x1="3.0" y1="78.0" x2="3.0" y2="4.0"/>
        <line stroke="rgb(  0,  0,  0)" stroke-width="2.0" stroke-linecap="butt" class="iconning iconning-grid-lines-axes" x1="2.0" y1="77.0" x2="78.0" y2="77.0"/>
        <!-- Major Tick Marks -->
        <line stroke="rgb(  0,  0,  0)" stroke-width="2.0" stroke-linecap="butt" class="iconning iconning-grid-lines-tick-marks iconning-grid-lines-tick-major" x1="4.0" y1="65.0" x2="8.0" y2="65.0"/>
        <line stroke="rgb(  0,  0,  0)" stroke-width="2.0" stroke-linecap="butt" class="iconning iconning-grid-lines-tick-marks iconning-grid-lines-tick-major" x1="4.0" y1="53.0" x2="8.0" y2="53.0"/>
        <line stroke="rgb(  0,  0,  0)" stroke-width="2.0" stroke-linecap="butt" class="iconning iconning-grid-lines-tick-marks iconning-grid-lines-tick-major" x1="4.0" y1="41.0" x2="8.0" y2="41.0"/>
        <line stroke="rgb(  0,  0,  0)" stroke-width="2.0" stroke-linecap="butt" class="iconning iconning-grid-lines-tick-marks iconning-grid-lines-tick-major" x1="4.0" y1="29.0" x2="8.0" y2="29.0"/>
        <line stroke="rgb(  0,  0,  0)" stroke-width="2.0" stroke-linecap="butt" class="iconning iconning-grid-lines-tick-marks iconning-grid-lines-tick-major" x1="4.0" y1="17.0" x2="8.0" y2="17.0"/>
        <line stroke="rgb(  0,  0,  0)" stroke-width="2.0" stroke-linecap="butt" class="iconning iconning-grid-lines-tick-marks iconning-grid-lines-tick-major" x1="4.0" y1="5.0" x2="8.0" y2="5.0"/>
        <!-- Minor Tick Marks -->
        <line stroke="rgb(  0,  0,  0)" stroke-width="2.0" stroke-linecap="butt" class="iconning iconning-grid-lines-tick-marks iconning-grid-lines-tick-minor" x1="4.0" y1="71.0" x2="6.0" y2="71.0"/>
        <line stroke="rgb(  0,  0,  0)" stroke-width="2.0" stroke-linecap="butt" class="iconning iconning-grid-lines-tick-marks iconning-grid-lines-tick-minor" x1="4.0" y1="59.0" x2="6.0" y2="59.0"/>
        <line stroke="rgb(  0,  0,  0)" stroke-width="2.0" stroke-linecap="butt" class="iconning iconning-grid-lines-tick-marks iconning-grid-lines-tick-minor" x1="4.0" y1="47.0" x2="6.0" y2="47.0"/>
        <line stroke="rgb(  0,  0,  0)" stroke-width="2.0" stroke-linecap="butt" class="iconning iconning-grid-lines-tick-marks iconning-grid-lines-tick-minor" x1="4.0" y1="35.0" x2="6.0" y2="35.0"/>
        <line stroke="rgb(  0,  0,  0)" stroke-width="2.0" stroke-linecap="butt" class="iconning iconning-grid-lines-tick-marks iconning-grid-lines-tick-minor" x1="4.0" y1="23.0" x2="6.0" y2="23.0"/>
        <line stroke="rgb(  0,  0,  0)" stroke-width="2.0" stroke-linecap="butt" class="iconning iconning-grid-lines-tick-marks iconning-grid-lines-tick-minor" x1="4.0" y1="11.0" x2="6.0" y2="11.0"/>
        <!-- CDF Smooth Plot -->
        <path class="iconning iconning-cdf iconning-cdf-80 iconning-fill iconning-accent-1" d="M 12 71 L 12.0 71.0 L 17.792576574934102 70.53030303030303 L 20.351970943324993 70.06060606060606 L 22.002476704101717 69.5909090909091 L 23.25976666801278 69.12121212121212 L 24.296843384526433 68.65151515151516 L 25.101948695703257 68.18181818181819 L 25.83643333417715 67.71212121212122 L 26.492856770707345 67.24242424242425 L 27.113765949638086 66.77272727272728 L 27.652117354858433 66.30303030303031 L 28.158394350209612 65.83333333333334 L 28.64751397838756 65.36363636363637 L 29.098336442698038 64.8939393939394 L 29.514190249382523 64.42424242424244 L 29.915038542388885 63.95454545454547 L 30.28036019656761 63.4848484848485 L 30.651669470111074 63.01515151515153 L 31.01163635597517 62.54545454545456 L 31.336667300570994 62.07575757575759 L 31.66645436245792 61.60606060606062 L 31.962155281909755 61.136363636363654 L 32.28080598907752 60.666666666666686 L 32.56813489206074 60.19696969696972 L 32.86369760211634 59.72727272727275 L 33.13682634177641 59.25757575757578 L 33.41826194220826 58.78787878787881 L 33.690920506002755 58.31818181818184 L 33.95814745518457 57.84848484848487 L 34.214438256606684 57.378787878787904 L 34.463648335982725 56.909090909090935 L 34.708805431126535 56.439393939393966 L 34.966981940103594 55.969696969697 L 35.209373727206994 55.50000000000003 L 35.439619015490635 55.03030303030306 L 35.6734675723444 54.56060606060609 L 35.911149489220094 54.09090909090912 L 36.13505514758348 53.62121212121215 L 36.354755002877795 53.151515151515184 L 36.567878774745054 52.681818181818215 L 36.78536711459167 52.21212121212125 L 37.00846449973578 51.74242424242428 L 37.22935653180558 51.27272727272731 L 37.44330084088273 50.80303030303034 L 37.66012002378569 50.33333333333337 L 37.86341874092212 49.8636363636364 L 38.079144394113385 49.393939393939434 L 38.278835079119034 48.924242424242465 L 38.46946896981653 48.454545454545496 L 38.670868424530354 47.98484848484853 L 38.86358550558711 47.51515151515156 L 39.06141870979856 47.04545454545459 L 39.26028930085807 46.57575757575762 L 39.467751792945066 46.10606060606065 L 39.661520117140256 45.63636363636368 L 39.8665665295736 45.166666666666714 L 40.05883588297033 44.696969696969745 L 40.244003019334286 44.227272727272776 L 40.43870374191563 43.75757575757581 L 40.64017523508283 43.28787878787884 L 40.83098239058431 42.81818181818187 L 41.018194413244196 42.3484848484849 L 41.207913138151746 41.87878787878793 L 41.393149545569266 41.40909090909096 L 41.57749262756325 40.939393939393995 L 41.77540223113952 40.469696969697026 L 41.955812524915345 40.00000000000006 L 42.14605936249737 39.53030303030309 L 42.33759375700706 39.06060606060612 L 42.533089764100325 38.59090909090915 L 42.7352913876573 38.12121212121218 L 42.92531189215968 37.65151515151521 L 43.11554965198232 37.181818181818244 L 43.31020226170294 36.712121212121275 L 43.50312466075461 36.242424242424306 L 43.69336481326316 35.77272727272734 L 43.90312201468532 35.30303030303037 L 44.09390658385463 34.8333333333334 L 44.29744711984066 34.36363636363643 L 44.49619976250977 33.89393939393946 L 44.68332545479307 33.42424242424249 L 44.88198473928098 32.954545454545524 L 45.074638733969344 32.484848484848555 L 45.29022837399448 32.01515151515159 L 45.49833297727276 31.545454545454618 L 45.69450625035241 31.07575757575765 L 45.8951657480901 30.60606060606068 L 46.088080493692196 30.13636363636371 L 46.297498087127096 29.666666666666742 L 46.51649168329887 29.196969696969774 L 46.729389796085066 28.727272727272805 L 46.950631003333 28.257575757575836 L 47.167918797091374 27.787878787878867 L 47.373632801520245 27.3181818181819 L 47.603526007606746 26.84848484848493 L 47.829230373663236 26.37878787878796 L 48.051817768587036 25.90909090909099 L 48.28235734754659 25.439393939394023 L 48.51825766293461 24.969696969697054 L 48.75153542806383 24.500000000000085 L 48.99106980778 24.030303030303116 L 49.240559610889264 23.560606060606148 L 49.485897339820305 23.09090909090918 L 49.726454145542995 22.62121212121221 L 49.989660362507394 22.15151515151524 L 50.240185248559065 21.681818181818272 L 50.50806821784717 21.212121212121303 L 50.79198093700549 20.742424242424335 L 51.07743726051058 20.272727272727366 L 51.35480160675539 19.803030303030397 L 51.653404260544306 19.333333333333428 L 51.95678818303924 18.86363636363646 L 52.27115842820709 18.39393939393949 L 52.60141969180832 17.92424242424252 L 52.94045630583486 17.454545454545553 L 53.28151541858885 16.984848484848584 L 53.653504449596454 16.515151515151615 L 54.034846821652955 16.045454545454646 L 54.43880603935915 15.575757575757677 L 54.832717361735995 15.106060606060709 L 55.288346541940484 14.63636363636374 L 55.76657780649165 14.16666666666677 L 56.26981159771164 13.696969696969802 L 56.80504390578653 13.227272727272833 L 57.3845965567561 12.757575757575864 L 58.09649638823871 12.287878787878896 L 58.84793284092989 11.818181818181927 L 59.71705363304968 11.348484848484958 L 60.73627768463409 10.878787878787989 L 61.975394313666754 10.40909090909102 L 63.63103012300561 9.939393939394051 L 66.41792144247472 9.469696969697083 L 72.0 9.000000000000114" stroke="rgb( 40, 70,200)" stroke-width="5.732892142331044" stroke-linecap="round" stroke-endcap="round" style="fill:none"/>
    </g>
</svg>
