<svg version="1.1" xmlns="http://www.w3.org/2000/svg" width="32" height="32" data-icon="cdf-smooth-32" class="iconning iconning-cdf-smooth-32" viewBox="0 0 32 32" id="cdf-smooth32">
    <g class="iconning-metadata">
        <title>Cumulative Density Function Chart with Smooth Plot</title>
    </g>
    <g class="iconning-container" data-width="32" data-height="32">
        <!-- Axes -->
        <line stroke="rgb(  0,  0,  0)" stroke-width="1.0" stroke-linecap="butt" class="iconning iconning-grid-lines-axes" x1="1.5" y1="31.0" x2="1.5" y2="3.0"/>
        <line stroke="rgb(  0,  0,  0)" stroke-width="1.0" stroke-linecap="butt" class="iconning iconning-grid-lines-axes" x1="1.0" y1="30.5" x2="31.0" y2="30.5"/>
        <!-- Major Tick Marks -->
        <line stroke="rgb(  0,  0,  0)" stroke-width="1.0" stroke-linecap="butt" class="iconning iconning-grid-lines-tick-marks iconning-grid-lines-tick-major" x1="2.0" y1="24.5" x2="4.0" y2="24.5"/>
        <line stroke="rgb(  0,  0,  0)" stroke-width="1.0" stroke-linecap="butt" class="iconning iconning-grid-lines-tick-marks iconning-grid-lines-tick-major" x1="2.0" y1="18.5" x2="4.0" y2="18.5"/>
        <line stroke="rgb(  0,  0,  0)" stroke-width="1.0" stroke-linecap="butt" class="iconning iconning-grid-lines-tick-marks iconning-grid-lines-tick-major" x1="2.0" y1="12.5" x2="4.0" y2="12.5"/>
        <line stroke="rgb(  0,  0,  0)" stroke-width="1.0" stroke-linecap="butt" class="iconning iconning-grid-lines-tick-marks iconning-grid-lines-tick-major" x1="2.0" y1="6.5" x2="4.0" y2="6.5"/>
        <!-- Minor Tick Marks -->
        <line stroke="rgb(  0,  0,  0)" stroke-width="1.0" stroke-linecap="butt" class="iconning iconning-grid-lines-tick-marks iconning-grid-lines-tick-minor" x1="2.0" y1="27.5" x2="3.0" y2="27.5"/>
        <line stroke="rgb(  0,  0,  0)" stroke-width="1.0" stroke-linecap="butt" class="iconning iconning-grid-lines-tick-marks iconning-grid-lines-tick-minor" x1="2.0" y1="21.5" x2="3.0" y2="21.5"/>
        <line stroke="rgb(  0,  0,  0)" stroke-width="1.0" stroke-linecap="butt" class="iconning iconning-grid-lines-tick-marks iconning-grid-lines-tick-minor" x1="2.0" y1="15.5" x2="3.0" y2="15.5"/>
        <line stroke="rgb(  0,  0,  0)" stroke-width="1.0" stroke-linecap="butt" class="iconning iconning-grid-lines-tick-marks iconning-grid-lines-tick-minor" x1="2.0" y1="9.5" x2="3.0" y2="9.5"/>
        <line stroke="rgb(  0,  0,  0)" stroke-width="1.0" stroke-linecap="butt" class="iconning iconning-grid-lines-tick-marks iconning-grid-lines-tick-minor" x1="2.0" y1="3.5" x2="3.0" y2="3.5"/>
        <!-- CDF Smooth Plot -->
        <path class="iconning iconning-cdf iconning-cdf-32 iconning-fill iconning-accent-1" d="M 6 27 L 6.0 27.0 L 9.326373929609009 26.58 L 10.396133227259076 26.159999999999997 L 11.062195913948996 25.739999999999995 L 11.613068070342074 25.319999999999993 L 12.031393227890192 24.89999999999999 L 12.39891802422408 24.47999999999999 L 12.725192712464885 24.059999999999988 L 13.012482105260503 23.639999999999986 L 13.287039494920922 23.219999999999985 L 13.548612157322513 22.799999999999983 L 13.784302919029205 22.37999999999998 L 14.006119490969121 21.95999999999998 L 14.23262844633011 21.539999999999978 L 14.451349038906587 21.119999999999976 L 14.65413482455181 20.699999999999974 L 14.865212018237427 20.279999999999973 L 15.062686575798942 19.85999999999997 L 15.239367469836338 19.43999999999997 L 15.424102973676748 19.019999999999968 L 15.611861652751767 18.599999999999966 L 15.787186274965002 18.179999999999964 L 15.969737327477445 17.759999999999962 L 16.150672629756002 17.33999999999996 L 16.31744043346231 16.91999999999996 L 16.49269537070304 16.499999999999957 L 16.674185714384755 16.079999999999956 L 16.851029109129282 15.659999999999956 L 17.023802577128787 15.239999999999956 L 17.200233249728285 14.819999999999956 L 17.38957142104278 14.399999999999956 L 17.56350814951856 13.979999999999956 L 17.751125742254846 13.559999999999956 L 17.93153126347797 13.139999999999956 L 18.12846132818634 12.719999999999956 L 18.325042063080296 12.299999999999956 L 18.525764054718657 11.879999999999956 L 18.740887436657005 11.459999999999956 L 18.95994211722118 11.039999999999957 L 19.181793133854747 10.619999999999957 L 19.415163760424356 10.199999999999957 L 19.669485183885925 9.779999999999957 L 19.934545504811055 9.359999999999957 L 20.23985327160108 8.939999999999957 L 20.575502763460307 8.519999999999957 L 20.94754477676321 8.099999999999957 L 21.374400456874437 7.679999999999957 L 21.922775121915883 7.259999999999957 L 22.636191057325505 6.839999999999957 L 23.703558380601 6.419999999999957 L 27.0 5.999999999999957" stroke="rgb( 40, 70,200)" stroke-width="3.75" stroke-linecap="round" stroke-endcap="round" style="fill:none"/>
    </g>
</svg>
