<svg version="1.1" xmlns="http://www.w3.org/2000/svg" width="96" height="96" data-icon="cdf-96" class="iconning iconning-cdf-96" viewBox="0 0 96 96" id="cdf96">
    <g class="iconning-metadata">
        <title>Cumulative Density Function Chart with Filled Plot</title>
    </g>
    <g class="iconning-container" data-width="96" data-height="96">
        <!-- Axes -->
        <line stroke="rgb(  0,  0,  0)" stroke-width="2.0" stroke-linecap="butt" class="iconning iconning-grid-lines-axes" x1="3.0" y1="94.0" x2="3.0" y2="2.0"/>
        <line stroke="rgb(  0,  0,  0)" stroke-width="2.0" stroke-linecap="butt" class="iconning iconning-grid-lines-axes" x1="2.0" y1="93.0" x2="94.0" y2="93.0"/>
        <!-- Major Tick Marks -->
        <line stroke="rgb(  0,  0,  0)" stroke-width="2.0" stroke-linecap="butt" class="iconning iconning-grid-lines-tick-marks iconning-grid-lines-tick-major" x1="4.0" y1="81.0" x2="8.0" y2="81.0"/>
        <line stroke="rgb(  0,  0,  0)" stroke-width="2.0" stroke-linecap="butt" class="iconning iconning-grid-lines-tick-marks iconning-grid-lines-tick-major" x1="4.0" y1="69.0" x2="8.0" y2="69.0"/>
        <line stroke="rgb(  0,  0,  0)" stroke-width="2.0" stroke-linecap="butt" class="iconning iconning-grid-lines-tick-marks iconning-grid-lines-tick-major" x1="4.0" y1="57.0" x2="8.0" y2="57.0"/>
        <line stroke="rgb(  0,  0,  0)" stroke-width="2.0" stroke-linecap="butt" class="iconning iconning-grid-lines-tick-marks iconning-grid-lines-tick-major" x1="4.0" y1="45.0" x2="8.0" y2="45.0"/>
        <line stroke="rgb(  0,  0,  0)" stroke-width="2.0" stroke-linecap="butt" class="iconning iconning-grid-lines-tick-marks iconning-grid-lines-tick-major" x1="4.0" y1="33.0" x2="8.0" y2="33.0"/>
        <line stroke="rgb(  0,  0,  0)" stroke-width="2.0" stroke-linecap="butt" class="iconning iconning-grid-lines-tick-marks iconning-grid-lines-tick-major" x1="4.0" y1="21.0" x2="8.0" y2="21.0"/>
        <line stroke="rgb(  0,  0,  0)" stroke-width="2.0" stroke-linecap="butt" class="iconning iconning-grid-lines-tick-marks iconning-grid-lines-tick-major" x1="4.0" y1="9.0" x2="8.0" y2="9.0"/>
        <!-- Minor Tick Marks -->
        <line stroke="rgb(  0,  0,  0)" stroke-width="2.0" stroke-linecap="butt" class="iconning iconning-grid-lines-tick-marks iconning-grid-lines-tick-minor" x1="4.0" y1="87.0" x2="6.0" y2="87.0"/>
        <line stroke="rgb(  0,  0,  0)" stroke-width="2.0" stroke-linecap="butt" class="iconning iconning-grid-lines-tick-marks iconning-grid-lines-tick-minor" x1="4.0" y1="75.0" x2="6.0" y2="75.0"/>
        <line stroke="rgb(  0,  0,  0)" stroke-width="2.0" stroke-linecap="butt" class="iconning iconning-grid-lines-tick-marks iconning-grid-lines-tick-minor" x1="4.0" y1="63.0" x2="6.0" y2="63.0"/>
        <line stroke="rgb(  0,  0,  0)" stroke-width="2.0" stroke-linecap="butt" class="iconning iconning-grid-lines-tick-marks iconning-grid-lines-tick-minor" x1="4.0" y1="51.0" x2="6.0" y2="51.0"/>
        <line stroke="rgb(  0,  0,  0)" stroke-width="2.0" stroke-linecap="butt" class="iconning iconning-grid-lines-tick-marks iconning-grid-lines-tick-minor" x1="4.0" y1="39.0" x2="6.0" y2="39.0"/>
        <line stroke="rgb(  0,  0,  0)" stroke-width="2.0" stroke-linecap="butt" class="iconning iconning-grid-lines-tick-marks iconning-grid-lines-tick-minor" x1="4.0" y1="27.0" x2="6.0" y2="27.0"/>
        <line stroke="rgb(  0,  0,  0)" stroke-width="2.0" stroke-linecap="butt" class="iconning iconning-grid-lines-tick-marks iconning-grid-lines-tick-minor" x1="4.0" y1="15.0" x2="6.0" y2="15.0"/>
        <line stroke="rgb(  0,  0,  0)" stroke-width="2.0" stroke-linecap="butt" class="iconning iconning-grid-lines-tick-marks iconning-grid-lines-tick-minor" x1="4.0" y1="3.0" x2="6.0" y2="3.0"/>
        <!-- CDF Filled Plot -->
        <path class="iconning iconning-cdf iconning-cdf-96 iconning-accent-1" d="M 10 90 L 10.0 90.0 L 16.807915240526142 89.47560975609755 L 20.237089335234245 88.95121951219511 L 22.4982700436615 88.42682926829266 L 24.09232712021725 87.90243902439022 L 25.448960251160358 87.37804878048777 L 26.57448318771887 86.85365853658533 L 27.53355874321462 86.32926829268288 L 28.40490519628286 85.80487804878044 L 29.16244434839652 85.28048780487799 L 29.878514938584164 84.75609756097555 L 30.547268737284995 84.2317073170731 L 31.1635093636773 83.70731707317066 L 31.740814624640937 83.18292682926821 L 32.278365960247996 82.65853658536577 L 32.80280787200459 82.13414634146332 L 33.305603205042836 81.60975609756088 L 33.769740896775104 81.08536585365843 L 34.22074075407512 80.56097560975599 L 34.640175938558514 80.03658536585354 L 35.05176670006976 79.5121951219511 L 35.45867189663045 78.98780487804865 L 35.84824524851599 78.4634146341462 L 36.231027311399444 77.93902439024376 L 36.59112025045009 77.41463414634131 L 36.95275749862495 76.89024390243887 L 37.28563174432398 76.36585365853642 L 37.6333824346398 75.84146341463398 L 37.95916312410355 75.31707317073153 L 38.291426945688386 74.79268292682909 L 38.60640151899591 74.26829268292664 L 38.903019549869285 73.7439024390242 L 39.20960107181648 73.21951219512175 L 39.499346983226616 72.6951219512193 L 39.81678692609822 72.17073170731686 L 40.08582992297644 71.64634146341442 L 40.37812417294904 71.12195121951197 L 40.65545174173002 70.59756097560953 L 40.92582533825038 70.07317073170708 L 41.209654915479035 69.54878048780463 L 41.485460106307116 69.02439024390219 L 41.75489489204327 68.49999999999974 L 41.998870619487064 67.9756097560973 L 42.25811493179447 67.45121951219485 L 42.517096704352205 66.92682926829241 L 42.772073675765576 66.40243902438996 L 43.01748079344916 65.87804878048752 L 43.2603569602764 65.35365853658507 L 43.498438277564745 64.82926829268263 L 43.734308270924615 64.30487804878018 L 43.97495771765144 63.780487804877744 L 44.22452879900963 63.256097560975306 L 44.460492107371444 62.73170731707287 L 44.68818208233871 62.20731707317043 L 44.92527560312168 61.68292682926799 L 45.1527321903849 61.15853658536555 L 45.38878189608884 60.634146341463115 L 45.62232958486304 60.10975609756068 L 45.848936984476616 59.58536585365824 L 46.062594663533076 59.0609756097558 L 46.283997241329224 58.53658536585336 L 46.49884069605659 58.012195121950924 L 46.71248233888453 57.487804878048486 L 46.92614155503189 56.96341463414605 L 47.15068193663007 56.43902439024361 L 47.3609343504003 55.91463414634117 L 47.591020236428925 55.39024390243873 L 47.80283148785702 54.865853658536295 L 48.02994564046809 54.34146341463386 L 48.23937201118338 53.81707317073142 L 48.44818643871413 53.29268292682898 L 48.65273097739471 52.76829268292654 L 48.872646469873835 52.243902439024104 L 49.08864230736249 51.719512195121666 L 49.30086491022507 51.19512195121923 L 49.499966525228025 50.67073170731679 L 49.71243080917656 50.14634146341435 L 49.92178800575359 49.621951219511914 L 50.12589033889901 49.097560975609476 L 50.32979381756312 48.57317073170704 L 50.538570848245996 48.0487804878046 L 50.74422277094814 47.52439024390216 L 50.9475871299753 46.99999999999972 L 51.162701274691095 46.475609756097285 L 51.367919340856936 45.95121951219485 L 51.584494234609075 45.42682926829241 L 51.79669959087019 44.90243902438997 L 52.01432843923146 44.37804878048753 L 52.22615357668256 43.853658536585094 L 52.434619663756266 43.329268292682656 L 52.63944954774378 42.80487804878022 L 52.8616463884246 42.28048780487778 L 53.070968256941356 41.75609756097534 L 53.27826084404766 41.2317073170729 L 53.494024467406526 40.707317073170465 L 53.717187563356795 40.18292682926803 L 53.93283928293799 39.65853658536559 L 54.15137437161876 39.13414634146315 L 54.37203617099256 38.60975609756071 L 54.58392226359889 38.085365853658274 L 54.7955855385879 37.560975609755836 L 55.011464782566 37.0365853658534 L 55.23162053816628 36.51219512195096 L 55.46017512604781 35.98780487804852 L 55.69928447705387 35.46341463414608 L 55.91074502562114 34.939024390243645 L 56.13262306745769 34.41463414634121 L 56.35452278214368 33.89024390243877 L 56.567722177245905 33.36585365853633 L 56.78746989254949 32.84146341463389 L 57.01878992879096 32.317073170731454 L 57.26278486212334 31.792682926829016 L 57.49718891049366 31.268292682926578 L 57.74041269301342 30.74390243902414 L 57.980225180096106 30.219512195121702 L 58.2081371961963 29.695121951219264 L 58.44892138588241 29.170731707316826 L 58.702701927776644 28.646341463414387 L 58.94270619736866 28.12195121951195 L 59.1920218655737 27.59756097560951 L 59.448308196245904 27.073170731707073 L 59.699665145030366 26.548780487804635 L 59.953906515251354 26.024390243902197 L 60.21647368676862 25.49999999999976 L 60.48499473213536 24.97560975609732 L 60.754804332945476 24.451219512194882 L 61.030190908866 23.926829268292444 L 61.305201948332765 23.402439024390006 L 61.57327777028756 22.878048780487568 L 61.86421212772317 22.35365853658513 L 62.15258885459189 21.82926829268269 L 62.4320568502594 21.304878048780253 L 62.73286812460108 20.780487804877815 L 63.03994774904568 20.256097560975377 L 63.36552294131919 19.73170731707294 L 63.67345291421048 19.2073170731705 L 63.98974320484348 18.682926829268062 L 64.33340600886655 18.158536585365624 L 64.6648868130963 17.634146341463186 L 65.00946261647174 17.109756097560748 L 65.36265092397007 16.58536585365831 L 65.74267751261948 16.06097560975587 L 66.11014081950847 15.536585365853433 L 66.50849947603177 15.012195121950995 L 66.91566950121349 14.487804878048557 L 67.33345696945196 13.963414634146119 L 67.7550242348311 13.43902439024368 L 68.20184154203301 12.914634146341243 L 68.6522856886858 12.390243902438804 L 69.15328863844903 11.865853658536366 L 69.66756727054619 11.341463414633928 L 70.19682524882293 10.81707317073149 L 70.75311411378841 10.292682926829052 L 71.35575768128055 9.768292682926614 L 72.00069292009228 9.243902439024176 L 72.76485126781205 8.719512195121737 L 73.55259491560898 8.1951219512193 L 74.42787483610779 7.67073170731686 L 75.42556562026722 7.146341463414421 L 76.56289993455104 6.621951219511982 L 77.8772753338451 6.097560975609543 L 79.48986705782923 5.573170731707104 L 81.69695915786008 5.048780487804665 L 85.23245255337334 4.524390243902226 L 92.0 3.999999999999787 L 92 3.475609756097348 L 92 90" fill="rgb( 40, 70,200)" style="stroke:none"/>
    </g>
</svg>
