<svg version="1.1" xmlns="http://www.w3.org/2000/svg" width="48" height="48" data-icon="cdf-smooth-48" class="iconning iconning-cdf-smooth-48" viewBox="0 0 48 48" id="cdf-smooth48">
    <g class="iconning-metadata">
        <title>Cumulative Density Function Chart with Smooth Plot</title>
    </g>
    <g class="iconning-container" data-width="48" data-height="48">
        <!-- Axes -->
        <line stroke="rgb(  0,  0,  0)" stroke-width="1.0" stroke-linecap="butt" class="iconning iconning-grid-lines-axes" x1="1.5" y1="47.0" x2="1.5" y2="1.0"/>
        <line stroke="rgb(  0,  0,  0)" stroke-width="1.0" stroke-linecap="butt" class="iconning iconning-grid-lines-axes" x1="1.0" y1="46.5" x2="47.0" y2="46.5"/>
        <!-- Major Tick Marks -->
        <line stroke="rgb(  0,  0,  0)" stroke-width="1.0" stroke-linecap="butt" class="iconning iconning-grid-lines-tick-marks iconning-grid-lines-tick-major" x1="2.0" y1="40.5" x2="4.0" y2="40.5"/>
        <line stroke="rgb(  0,  0,  0)" stroke-width="1.0" stroke-linecap="butt" class="iconning iconning-grid-lines-tick-marks iconning-grid-lines-tick-major" x1="2.0" y1="34.5" x2="4.0" y2="34.5"/>
        <line stroke="rgb(  0,  0,  0)" stroke-width="1.0" stroke-linecap="butt" class="iconning iconning-grid-lines-tick-marks iconning-grid-lines-tick-major" x1="2.0" y1="28.5" x2="4.0" y2="28.5"/>
        <line stroke="rgb(  0,  0,  0)" stroke-width="1.0" stroke-linecap="butt" class="iconning iconning-grid-lines-tick-marks iconning-grid-lines-tick-major" x1="2.0" y1="22.5" x2="4.0" y2="22.5"/>
        <line stroke="rgb(  0,  0,  0)" stroke-width="1.0" stroke-linecap="butt" class="iconning iconning-grid-lines-tick-marks iconning-grid-lines-tick-major" x1="2.0" y1="16.5" x2="4.0" y2="16.5"/>
        <line stroke="rgb(  0,  0,  0)" stroke-width="1.0" stroke-linecap="butt" class="iconning iconning-grid-lines-tick-marks iconning-grid-lines-tick-major" x1="2.0" y1="10.5" x2="4.0" y2="10.5"/>
        <line stroke="rgb(  0,  0,  0)" stroke-width="1.0" stroke-linecap="butt" class="iconning iconning-grid-lines-tick-marks iconning-grid-lines-tick-major" x1="2.0" y1="4.5" x2="4.0" y2="4.5"/>
        <!-- Minor Tick Marks -->
        <line stroke="rgb(  0,  0,  0)" stroke-width="1.0" stroke-linecap="butt" class="iconning iconning-grid-lines-tick-marks iconning-grid-lines-tick-minor" x1="2.0" y1="43.5" x2="3.0" y2="43.5"/>
        <line stroke="rgb(  0,  0,  0)" stroke-width="1.0" stroke-linecap="butt" class="iconning iconning-grid-lines-tick-marks iconning-grid-lines-tick-minor" x1="2.0" y1="37.5" x2="3.0" y2="37.5"/>
        <line stroke="rgb(  0,  0,  0)" stroke-width="1.0" stroke-linecap="butt" class="iconning iconning-grid-lines-tick-marks iconning-grid-lines-tick-minor" x1="2.0" y1="31.5" x2="3.0" y2="31.5"/>
        <line stroke="rgb(  0,  0,  0)" stroke-width="1.0" stroke-linecap="butt" class="iconning iconning-grid-lines-tick-marks iconning-grid-lines-tick-minor" x1="2.0" y1="25.5" x2="3.0" y2="25.5"/>
        <line stroke="rgb(  0,  0,  0)" stroke-width="1.0" stroke-linecap="butt" class="iconning iconning-grid-lines-tick-marks iconning-grid-lines-tick-minor" x1="2.0" y1="19.5" x2="3.0" y2="19.5"/>
        <line stroke="rgb(  0,  0,  0)" stroke-width="1.0" stroke-linecap="butt" class="iconning iconning-grid-lines-tick-marks iconning-grid-lines-tick-minor" x1="2.0" y1="13.5" x2="3.0" y2="13.5"/>
        <line stroke="rgb(  0,  0,  0)" stroke-width="1.0" stroke-linecap="butt" class="iconning iconning-grid-lines-tick-marks iconning-grid-lines-tick-minor" x1="2.0" y1="7.5" x2="3.0" y2="7.5"/>
        <line stroke="rgb(  0,  0,  0)" stroke-width="1.0" stroke-linecap="butt" class="iconning iconning-grid-lines-tick-marks iconning-grid-lines-tick-minor" x1="2.0" y1="1.5" x2="3.0" y2="1.5"/>
        <!-- CDF Smooth Plot -->
        <path class="iconning iconning-cdf iconning-cdf-48 iconning-fill iconning-accent-1" d="M 7 42 L 7.0 42.0 L 11.456862910246175 41.53658536585366 L 13.144385952132913 41.07317073170732 L 14.264721676806417 40.60975609756098 L 15.074083406030205 40.14634146341464 L 15.717783282630792 39.682926829268304 L 16.312810031626984 39.219512195121965 L 16.805361652948847 38.756097560975626 L 17.23799677481614 38.292682926829286 L 17.649402538949637 37.82926829268295 L 18.014720180934518 37.36585365853661 L 18.36771882580301 36.90243902439027 L 18.68323196322408 36.43902439024393 L 18.973235011078042 35.97560975609759 L 19.270624209919028 35.51219512195125 L 19.549983259634164 35.04878048780491 L 19.810273496875624 34.58536585365857 L 20.079808674781816 34.12195121951223 L 20.31954104514274 33.658536585365894 L 20.560570291752175 33.195121951219555 L 20.80639589340983 32.731707317073216 L 21.036512068316185 32.26829268292688 L 21.267380680975315 31.804878048780534 L 21.500182795317098 31.34146341463419 L 21.708131137279175 30.87804878048785 L 21.914835803113 30.414634146341506 L 22.141859163316433 29.951219512195163 L 22.348594270734488 29.48780487804882 L 22.5494596712925 29.024390243902477 L 22.745481375377288 28.560975609756134 L 22.928226531222634 28.09756097560979 L 23.11843092772939 27.63414634146345 L 23.31506470975998 27.170731707317106 L 23.50516267787358 26.707317073170763 L 23.694974459903776 26.24390243902442 L 23.87977902383991 25.780487804878078 L 24.06999337444906 25.317073170731735 L 24.255075431479042 24.853658536585392 L 24.43644319140734 24.39024390243905 L 24.614942063459683 23.926829268292707 L 24.797639423342563 23.463414634146364 L 24.977877200878815 23.00000000000002 L 25.165570735618196 22.53658536585368 L 25.354505904289088 22.073170731707336 L 25.545218353812118 21.609756097560993 L 25.733271098746897 21.14634146341465 L 25.918996131035918 20.682926829268308 L 26.1069295013562 20.219512195121965 L 26.294170671274063 19.756097560975622 L 26.494732506540693 19.29268292682928 L 26.67894788827504 18.829268292682936 L 26.867872712354387 18.365853658536594 L 27.074016083586443 17.90243902439025 L 27.258210013188886 17.439024390243908 L 27.449576698712637 16.975609756097565 L 27.649273108961392 16.512195121951223 L 27.856246108285184 16.04878048780488 L 28.071856564186234 15.585365853658539 L 28.271211875205076 15.121951219512198 L 28.488902575227584 14.658536585365857 L 28.714989962573473 14.195121951219516 L 28.93091288023837 13.731707317073175 L 29.167803254918365 13.268292682926834 L 29.405878708522955 12.804878048780493 L 29.639579884304382 12.341463414634152 L 29.88921786978583 11.878048780487811 L 30.145370755784455 11.41463414634147 L 30.423068947349453 10.951219512195129 L 30.687207417410733 10.487804878048788 L 30.990004028103478 10.024390243902447 L 31.29126560767279 9.560975609756106 L 31.620568248201508 9.097560975609765 L 31.977785501504634 8.634146341463424 L 32.3474102176375 8.170731707317083 L 32.73240471066235 7.707317073170741 L 33.16509308840313 7.243902439024399 L 33.671807974771056 6.7804878048780575 L 34.22591091196424 6.317073170731716 L 34.920574582778 5.853658536585374 L 35.73232638922759 5.390243902439032 L 36.841100319298725 4.92682926829269 L 38.50065691436234 4.463414634146348 L 43.0 4.000000000000006" stroke="rgb( 40, 70,200)" stroke-width="4.627443751081734" stroke-linecap="round" stroke-endcap="round" style="fill:none"/>
    </g>
</svg>
