<svg version="1.1" xmlns="http://www.w3.org/2000/svg" width="128" height="128" data-icon="cdf-smooth-128" class="iconning iconning-cdf-smooth-128" viewBox="0 0 128 128" id="cdf-smooth128">
    <g class="iconning-metadata">
        <title>Cumulative Density Function Chart with Smooth Plot</title>
    </g>
    <g class="iconning-container" data-width="128" data-height="128">
        <!-- Axes -->
        <line stroke="rgb(  0,  0,  0)" stroke-width="3.0" stroke-linecap="butt" class="iconning iconning-grid-lines-axes" x1="4.5" y1="125.0" x2="4.5" y2="5.0"/>
        <line stroke="rgb(  0,  0,  0)" stroke-width="3.0" stroke-linecap="butt" class="iconning iconning-grid-lines-axes" x1="3.0" y1="123.5" x2="125.0" y2="123.5"/>
        <!-- Major Tick Marks -->
        <line stroke="rgb(  0,  0,  0)" stroke-width="3.0" stroke-linecap="butt" class="iconning iconning-grid-lines-tick-marks iconning-grid-lines-tick-major" x1="6.0" y1="105.5" x2="12.0" y2="105.5"/>
        <line stroke="rgb(  0,  0,  0)" stroke-width="3.0" stroke-linecap="butt" class="iconning iconning-grid-lines-tick-marks iconning-grid-lines-tick-major" x1="6.0" y1="87.5" x2="12.0" y2="87.5"/>
        <line stroke="rgb(  0,  0,  0)" stroke-width="3.0" stroke-linecap="butt" class="iconning iconning-grid-lines-tick-marks iconning-grid-lines-tick-major" x1="6.0" y1="69.5" x2="12.0" y2="69.5"/>
        <line stroke="rgb(  0,  0,  0)" stroke-width="3.0" stroke-linecap="butt" class="iconning iconning-grid-lines-tick-marks iconning-grid-lines-tick-major" x1="6.0" y1="51.5" x2="12.0" y2="51.5"/>
        <line stroke="rgb(  0,  0,  0)" stroke-width="3.0" stroke-linecap="butt" class="iconning iconning-grid-lines-tick-marks iconning-grid-lines-tick-major" x1="6.0" y1="33.5" x2="12.0" y2="33.5"/>
        <line stroke="rgb(  0,  0,  0)" stroke-width="3.0" stroke-linecap="butt" class="iconning iconning-grid-lines-tick-marks iconning-grid-lines-tick-major" x1="6.0" y1="15.5" x2="12.0" y2="15.5"/>
        <!-- Minor Tick Marks -->
        <line stroke="rgb(  0,  0,  0)" stroke-width="3.0" stroke-linecap="butt" class="iconning iconning-grid-lines-tick-marks iconning-grid-lines-tick-minor" x1="6.0" y1="114.5" x2="9.0" y2="114.5"/>
        <line stroke="rgb(  0,  0,  0)" stroke-width="3.0" stroke-linecap="butt" class="iconning iconning-grid-lines-tick-marks iconning-grid-lines-tick-minor" x1="6.0" y1="96.5" x2="9.0" y2="96.5"/>
        <line stroke="rgb(  0,  0,  0)" stroke-width="3.0" stroke-linecap="butt" class="iconning iconning-grid-lines-tick-marks iconning-grid-lines-tick-minor" x1="6.0" y1="78.5" x2="9.0" y2="78.5"/>
        <line stroke="rgb(  0,  0,  0)" stroke-width="3.0" stroke-linecap="butt" class="iconning iconning-grid-lines-tick-marks iconning-grid-lines-tick-minor" x1="6.0" y1="60.5" x2="9.0" y2="60.5"/>
        <line stroke="rgb(  0,  0,  0)" stroke-width="3.0" stroke-linecap="butt" class="iconning iconning-grid-lines-tick-marks iconning-grid-lines-tick-minor" x1="6.0" y1="42.5" x2="9.0" y2="42.5"/>
        <line stroke="rgb(  0,  0,  0)" stroke-width="3.0" stroke-linecap="butt" class="iconning iconning-grid-lines-tick-marks iconning-grid-lines-tick-minor" x1="6.0" y1="24.5" x2="9.0" y2="24.5"/>
        <line stroke="rgb(  0,  0,  0)" stroke-width="3.0" stroke-linecap="butt" class="iconning iconning-grid-lines-tick-marks iconning-grid-lines-tick-minor" x1="6.0" y1="6.5" x2="9.0" y2="6.5"/>
        <!-- CDF Smooth Plot -->
        <path class="iconning iconning-cdf iconning-cdf-128 iconning-fill iconning-accent-1" d="M 18 115 L 18.0 115.0 L 24.879771898401025 114.51401869158879 L 28.727726418776395 114.02803738317758 L 31.371147181676506 113.54205607476636 L 33.35212731583277 113.05607476635515 L 34.876148052922346 112.57009345794394 L 36.192116124566894 112.08411214953273 L 37.35486559514685 111.59813084112152 L 38.35443890568867 111.1121495327103 L 39.251746447236755 110.6261682242991 L 40.0623736104409 110.14018691588788 L 40.82660474440105 109.65420560747667 L 41.513454500488834 109.16822429906546 L 42.21125230455592 108.68224299065425 L 42.838674137344285 108.19626168224303 L 43.4119209249952 107.71028037383182 L 43.969903017499675 107.22429906542061 L 44.49881959582993 106.7383177570094 L 45.00812493704794 106.25233644859819 L 45.51065309793695 105.76635514018697 L 45.97176704288563 105.28037383177576 L 46.43698854215526 104.79439252336455 L 46.87209726255643 104.30841121495334 L 47.302114213014384 103.82242990654213 L 47.71739152866615 103.33644859813091 L 48.11535017233693 102.8504672897197 L 48.49515647783701 102.36448598130849 L 48.88455451900994 101.87850467289728 L 49.25242630946709 101.39252336448607 L 49.623559364332614 100.90654205607485 L 49.976231982597156 100.42056074766364 L 50.32215072372838 99.93457943925243 L 50.66516399924305 99.44859813084122 L 51.00477380332375 98.96261682243001 L 51.30946317934732 98.4766355140188 L 51.64249901262528 97.99065420560758 L 51.95636226604963 97.50467289719637 L 52.24899161963022 97.01869158878516 L 52.55160593212464 96.53271028037395 L 52.845301528371685 96.04672897196274 L 53.14106214674029 95.56074766355152 L 53.42228089841189 95.07476635514031 L 53.71024904488283 94.5887850467291 L 53.97903070963062 94.10280373831789 L 54.26860286372084 93.61682242990668 L 54.54985175968033 93.13084112149546 L 54.802493163522215 92.64485981308425 L 55.06385383677343 92.15887850467304 L 55.32582966703159 91.67289719626183 L 55.57718687013719 91.18691588785062 L 55.83242493835427 90.7009345794394 L 56.09769213179848 90.2149532710282 L 56.35175809749765 89.72897196261698 L 56.60135596335774 89.24299065420577 L 56.84374618417604 88.75700934579456 L 57.08783321177724 88.27102803738335 L 57.32393284569686 87.78504672897213 L 57.56587858342097 87.29906542056092 L 57.80830295784227 86.81308411214971 L 58.04262390011896 86.3271028037385 L 58.27385596870314 85.84112149532729 L 58.49950798061034 85.35514018691607 L 58.72164877466823 84.86915887850486 L 58.94619859049847 84.38317757009365 L 59.16985876020872 83.89719626168244 L 59.393726898026614 83.41121495327123 L 59.61711271876008 82.92523364486001 L 59.84204612106365 82.4392523364488 L 60.064006975406066 81.95327102803759 L 60.28361777765271 81.46728971962638 L 60.499006722795876 80.98130841121517 L 60.7131689294202 80.49532710280396 L 60.92792452858179 80.00934579439274 L 61.146830663836965 79.52336448598153 L 61.36911442721291 79.03738317757032 L 61.58569626733274 78.55140186915911 L 61.79080116643936 78.0654205607479 L 61.989979773508104 77.57943925233668 L 62.1970123666712 77.09345794392547 L 62.39875313194843 76.60747663551426 L 62.603456402257684 76.12149532710305 L 62.80368675590581 75.63551401869184 L 63.00124927380892 75.14953271028062 L 63.205918958187276 74.66355140186941 L 63.40102836111501 74.1775700934582 L 63.6130742366298 73.69158878504699 L 63.82488766035494 73.20560747663578 L 64.02503869930466 72.71962616822456 L 64.2326510845819 72.23364485981335 L 64.44063984053693 71.74766355140214 L 64.63146977989351 71.26168224299093 L 64.82273123355043 70.77570093457972 L 65.02162411804997 70.2897196261685 L 65.22737763275666 69.8037383177573 L 65.4205822908458 69.31775700934608 L 65.61569035605066 68.83177570093487 L 65.8168048217407 68.34579439252366 L 66.01971025537969 67.85981308411245 L 66.21068952043012 67.37383177570123 L 66.40461126253285 66.88785046729002 L 66.58892280298124 66.40186915887881 L 66.78667411581345 65.9158878504676 L 66.97926355323388 65.42990654205639 L 67.17598317381706 64.94392523364517 L 67.36831257586863 64.45794392523396 L 67.56856701823419 63.97196261682275 L 67.76016239584993 63.48598130841154 L 67.95516712115518 63.00000000000033 L 68.15510964797991 62.514018691589115 L 68.3449809155082 62.0280373831779 L 68.54026773601467 61.54205607476669 L 68.74831180107469 61.05607476635548 L 68.94317427912162 60.57009345794427 L 69.14909135777029 60.084112149533055 L 69.348346374567 59.598130841121844 L 69.5493066737434 59.11214953271063 L 69.74453859122106 58.62616822429942 L 69.93808008899552 58.14018691588821 L 70.13194961659212 57.654205607476996 L 70.33286737009607 57.168224299065784 L 70.53558593274587 56.68224299065457 L 70.72782217151413 56.19626168224336 L 70.92092195154055 55.71028037383215 L 71.13242162027072 55.22429906542094 L 71.32867011264383 54.738317757009725 L 71.52313975709401 54.25233644859851 L 71.73076345119 53.7663551401873 L 71.91598523897463 53.28037383177609 L 72.13036509009132 52.79439252336488 L 72.33443860892554 52.308411214953665 L 72.53078559842035 51.82242990654245 L 72.73806097534975 51.33644859813124 L 72.93525057566714 50.85046728972003 L 73.13696622159748 50.36448598130882 L 73.35181350105086 49.878504672897606 L 73.57429626366894 49.392523364486394 L 73.78208295707961 48.90654205607518 L 73.97947218285967 48.42056074766397 L 74.1851761021235 47.93457943925276 L 74.38666161295075 47.448598130841546 L 74.60030533734329 46.962616822430334 L 74.80407780460675 46.47663551401912 L 75.01800685184665 45.99065420560791 L 75.22834876627437 45.5046728971967 L 75.44660527785891 45.01869158878549 L 75.67949852195704 44.532710280374275 L 75.89034389122986 44.04672897196306 L 76.11848993937764 43.56074766355185 L 76.33846089450365 43.07476635514064 L 76.56864346676488 42.58878504672943 L 76.78348116167658 42.102803738318215 L 77.00545946540566 41.616822429907 L 77.23857834918047 41.13084112149579 L 77.46727637786455 40.64485981308458 L 77.69072555189487 40.15887850467337 L 77.9260310757551 39.672897196262156 L 78.15492166140211 39.186915887850944 L 78.37975803509408 38.70093457943973 L 78.62556695713872 38.21495327102852 L 78.86968492394533 37.72897196261731 L 79.11780600042025 37.242990654206096 L 79.35865210759223 36.757009345794884 L 79.60626352427064 36.27102803738367 L 79.85441665040136 35.78504672897246 L 80.10852675446229 35.29906542056125 L 80.3690238257119 34.81308411215004 L 80.61516749760585 34.327102803738825 L 80.87268609175817 33.84112149532761 L 81.15254716866826 33.3551401869164 L 81.41971396842845 32.86915887850519 L 81.6814563929606 32.38317757009398 L 81.95066990160745 31.897196261682762 L 82.23576127011928 31.411214953271546 L 82.525084438732 30.92523364486033 L 82.82324439011005 30.439252336449115 L 83.12543335230436 29.9532710280379 L 83.4188591504672 29.467289719626685 L 83.70891949529393 28.98130841121547 L 84.01262995659465 28.495327102804254 L 84.33345224610724 28.009345794393038 L 84.64305212514338 27.523364485981823 L 84.94980466587154 27.037383177570607 L 85.28722512158119 26.551401869159392 L 85.64171657111821 26.065420560748176 L 85.98022564742345 25.57943925233696 L 86.31690196273873 25.093457943925745 L 86.67748292573187 24.60747663551453 L 87.05440774523645 24.121495327103315 L 87.44581927858269 23.6355140186921 L 87.83022968270875 23.149532710280884 L 88.23810619794759 22.663551401869668 L 88.64851254361119 22.177570093458453 L 89.07330840072008 21.691588785047237 L 89.49168944563698 21.205607476636022 L 89.94264154347225 20.719626168224806 L 90.41120627957888 20.23364485981359 L 90.90885727657702 19.747663551402376 L 91.41162654061904 19.26168224299116 L 91.95100428398406 18.775700934579945 L 92.50191542252419 18.28971962616873 L 93.07382964695564 17.803738317757514 L 93.6735803948474 17.3177570093463 L 94.39770600775684 16.831775700935083 L 95.12130798811535 16.345794392523867 L 95.89071199091443 15.859813084112652 L 96.70346584885145 15.373831775701436 L 97.62308850032181 14.887850467290221 L 98.62892228640531 14.401869158879006 L 99.77909933809404 13.91588785046779 L 101.05605301722602 13.429906542056575 L 102.57085529334587 12.94392523364536 L 104.50049484160466 12.457943925234144 L 107.18425785532467 11.971962616822928 L 111.47019755874304 11.485981308411713 L 118.0 11.000000000000497" stroke="rgb( 40, 70,200)" stroke-width="6.75" stroke-linecap="round" stroke-endcap="round" style="fill:none"/>
    </g>
</svg>
