<svg version="1.1" xmlns="http://www.w3.org/2000/svg" width="128" height="128" data-icon="cdf-128" class="iconning iconning-cdf-128" viewBox="0 0 128 128" id="cdf128">
    <g class="iconning-metadata">
        <title>Cumulative Density Function Chart with Filled Plot</title>
    </g>
    <g class="iconning-container" data-width="128" data-height="128">
        <!-- Axes -->
        <line stroke="rgb(  0,  0,  0)" stroke-width="3.0" stroke-linecap="butt" class="iconning iconning-grid-lines-axes" x1="4.5" y1="125.0" x2="4.5" y2="5.0"/>
        <line stroke="rgb(  0,  0,  0)" stroke-width="3.0" stroke-linecap="butt" class="iconning iconning-grid-lines-axes" x1="3.0" y1="123.5" x2="125.0" y2="123.5"/>
        <!-- Major Tick Marks -->
        <line stroke="rgb(  0,  0,  0)" stroke-width="3.0" stroke-linecap="butt" class="iconning iconning-grid-lines-tick-marks iconning-grid-lines-tick-major" x1="6.0" y1="105.5" x2="12.0" y2="105.5"/>
        <line stroke="rgb(  0,  0,  0)" stroke-width="3.0" stroke-linecap="butt" class="iconning iconning-grid-lines-tick-marks iconning-grid-lines-tick-major" x1="6.0" y1="87.5" x2="12.0" y2="87.5"/>
        <line stroke="rgb(  0,  0,  0)" stroke-width="3.0" stroke-linecap="butt" class="iconning iconning-grid-lines-tick-marks iconning-grid-lines-tick-major" x1="6.0" y1="69.5" x2="12.0" y2="69.5"/>
        <line stroke="rgb(  0,  0,  0)" stroke-width="3.0" stroke-linecap="butt" class="iconning iconning-grid-lines-tick-marks iconning-grid-lines-tick-major" x1="6.0" y1="51.5" x2="12.0" y2="51.5"/>
        <line stroke="rgb(  0,  0,  0)" stroke-width="3.0" stroke-linecap="butt" class="iconning iconning-grid-lines-tick-marks iconning-grid-lines-tick-major" x1="6.0" y1="33.5" x2="12.0" y2="33.5"/>
        <line stroke="rgb(  0,  0,  0)" stroke-width="3.0" stroke-linecap="butt" class="iconning iconning-grid-lines-tick-marks iconning-grid-lines-tick-major" x1="6.0" y1="15.5" x2="12.0" y2="15.5"/>
        <!-- Minor Tick Marks -->
        <line stroke="rgb(  0,  0,  0)" stroke-width="3.0" stroke-linecap="butt" class="iconning iconning-grid-lines-tick-marks iconning-grid-lines-tick-minor" x1="6.0" y1="114.5" x2="9.0" y2="114.5"/>
        <line stroke="rgb(  0,  0,  0)" stroke-width="3.0" stroke-linecap="butt" class="iconning iconning-grid-lines-tick-marks iconning-grid-lines-tick-minor" x1="6.0" y1="96.5" x2="9.0" y2="96.5"/>
        <line stroke="rgb(  0,  0,  0)" stroke-width="3.0" stroke-linecap="butt" class="iconning iconning-grid-lines-tick-marks iconning-grid-lines-tick-minor" x1="6.0" y1="78.5" x2="9.0" y2="78.5"/>
        <line stroke="rgb(  0,  0,  0)" stroke-width="3.0" stroke-linecap="butt" class="iconning iconning-grid-lines-tick-marks iconning-grid-lines-tick-minor" x1="6.0" y1="60.5" x2="9.0" y2="60.5"/>
        <line stroke="rgb(  0,  0,  0)" stroke-width="3.0" stroke-linecap="butt" class="iconning iconning-grid-lines-tick-marks iconning-grid-lines-tick-minor" x1="6.0" y1="42.5" x2="9.0" y2="42.5"/>
        <line stroke="rgb(  0,  0,  0)" stroke-width="3.0" stroke-linecap="butt" class="iconning iconning-grid-lines-tick-marks iconning-grid-lines-tick-minor" x1="6.0" y1="24.5" x2="9.0" y2="24.5"/>
        <line stroke="rgb(  0,  0,  0)" stroke-width="3.0" stroke-linecap="butt" class="iconning iconning-grid-lines-tick-marks iconning-grid-lines-tick-minor" x1="6.0" y1="6.5" x2="9.0" y2="6.5"/>
        <!-- CDF Filled Plot -->
        <path class="iconning iconning-cdf iconning-cdf-128 iconning-accent-1" d="M 15 119 L 15.0 119.0 L 22.361355931289097 118.48130841121495 L 26.478667268090742 117.96261682242991 L 29.30712748439386 117.44392523364486 L 31.426776227941062 116.92523364485982 L 33.05747841662691 116.40654205607477 L 34.46556425328657 115.88785046728972 L 35.709706186807125 115.36915887850468 L 36.77924962908687 114.85046728971963 L 37.73936869854333 114.33177570093459 L 38.60673976317176 113.81308411214954 L 39.42446707650913 113.2943925233645 L 40.159396315523054 112.77570093457945 L 40.90603996587483 112.2570093457944 L 41.57738132695838 111.73831775700936 L 42.19075538974485 111.21962616822431 L 42.78779622872465 110.70093457943926 L 43.353736967538026 110.18224299065422 L 43.898693682641294 109.66355140186917 L 44.43639881479254 109.14485981308412 L 44.929790735887615 108.62616822429908 L 45.42757774010613 108.10747663551403 L 45.89314407093538 107.58878504672899 L 46.35326220792538 107.07009345794394 L 46.79760893567277 106.5514018691589 L 47.223424684400506 106.03271028037385 L 47.629817431285595 105.5140186915888 L 48.046473335340636 104.99532710280376 L 48.44009615112978 104.47663551401871 L 48.8372085198359 103.95794392523366 L 49.21456822137895 103.43925233644862 L 49.58470127438936 102.92056074766357 L 49.95172547919006 102.40186915887853 L 50.31510796955641 101.88317757009348 L 50.64112560190163 101.36448598130843 L 50.99747394350904 100.84579439252339 L 51.3333076246731 100.32710280373834 L 51.64642103300432 99.8084112149533 L 51.97021834737336 99.28971962616825 L 52.2844726353577 98.7710280373832 L 52.60093649701211 98.25233644859816 L 52.90184056130072 97.73364485981311 L 53.20996647802462 97.21495327102807 L 53.497562859304765 96.69626168224302 L 53.807405064181296 96.17757009345797 L 54.10834138285795 95.65887850467293 L 54.37866768496877 95.14018691588788 L 54.65832360534756 94.62149532710283 L 54.938637743723795 94.10280373831779 L 55.207589951046785 93.58411214953274 L 55.480694684039065 93.0654205607477 L 55.76453058102437 92.54672897196265 L 56.03638116432248 92.0280373831776 L 56.303450880792774 91.50934579439256 L 56.56280841706836 90.99065420560751 L 56.82398153660164 90.47196261682247 L 57.07660814489563 89.95327102803742 L 57.33549008426043 89.43457943925237 L 57.594884164891226 88.91588785046733 L 57.84560757312728 88.39719626168228 L 58.09302588651235 87.87850467289724 L 58.334473539253054 87.35981308411219 L 58.57216418889501 86.84112149532714 L 58.812432491833356 86.3224299065421 L 59.05174887342333 85.80373831775705 L 59.291287780888474 85.285046728972 L 59.53031060907328 84.76635514018696 L 59.770989349538105 84.24766355140191 L 60.00848746368449 83.72897196261687 L 60.24347102208839 83.21028037383182 L 60.473937193391585 82.69158878504678 L 60.703090754479604 82.17289719626173 L 60.932879245582505 81.65420560747668 L 61.16710881030555 81.13551401869164 L 61.40495243711781 80.61682242990659 L 61.636695006046025 80.09813084112155 L 61.856157248090106 79.5794392523365 L 62.069278357653666 79.06074766355145 L 62.290803232338185 78.5420560747664 L 62.50666585118482 78.02336448598136 L 62.72569835041572 77.50467289719631 L 62.93994482881921 76.98598130841127 L 63.151336722975536 76.46728971962622 L 63.37033328526038 75.94859813084118 L 63.579100346393055 75.42990654205613 L 63.80598943319388 74.91121495327108 L 64.03262979657978 74.39252336448604 L 64.24679140825597 73.87383177570099 L 64.46893666050262 73.35514018691595 L 64.69148462937451 72.8364485981309 L 64.89567266448604 72.31775700934585 L 65.10032241989896 71.79906542056081 L 65.31313780631348 71.28037383177576 L 65.53329406704961 70.76168224299072 L 65.74002305120499 70.24299065420567 L 65.9487886809742 69.72429906542062 L 66.16398115926253 69.20560747663558 L 66.38108997325628 68.68691588785053 L 66.58543778686021 68.16822429906549 L 66.79293405091015 67.64953271028044 L 66.99014739918991 67.1308411214954 L 67.20174130392039 66.61214953271035 L 67.40781200196025 66.0934579439253 L 67.61830199598425 65.57476635514026 L 67.82409445617942 65.05607476635521 L 68.03836670951057 64.53738317757016 L 68.24337376355942 64.01869158878512 L 68.45202881963604 63.50000000000007 L 68.66596732333849 62.981308411215025 L 68.86912957959377 62.46261682242998 L 69.07808647753569 61.94392523364493 L 69.30069362714991 61.42523364485989 L 69.50919647866013 60.90654205607484 L 69.7295277528142 60.387850467289795 L 69.94273062078668 59.86915887850475 L 70.15775814090543 59.3504672897197 L 70.36665629260654 58.83177570093466 L 70.5737456952252 58.31308411214961 L 70.78118608975356 57.794392523364564 L 70.9961680860028 57.27570093457952 L 71.21307694803806 56.75700934579447 L 71.41876972352011 56.238317757009426 L 71.6253864881484 55.71962616822438 L 71.85169113368966 55.200934579439334 L 72.06167702052889 54.68224299065429 L 72.26975954009059 54.16355140186924 L 72.4919168927733 53.644859813084196 L 72.69010420570282 53.12616822429915 L 72.91949064639769 52.607476635514104 L 73.13784931155033 52.08878504672906 L 73.34794059030978 51.57009345794401 L 73.56972524362423 51.051401869158965 L 73.78071811596382 50.53271028037392 L 73.99655385710929 50.01401869158887 L 74.2264404461244 49.49532710280383 L 74.46449700212574 48.97663551401878 L 74.68682876407519 48.457943925233735 L 74.89803523565985 47.93925233644869 L 75.11813842927214 47.42056074766364 L 75.33372792585729 46.9018691588786 L 75.56232671095731 46.38317757009355 L 75.78036325092921 45.864485981308505 L 76.00926733147591 45.34579439252346 L 76.23433317991356 44.82710280373841 L 76.46786764730902 44.30841121495337 L 76.71706341849404 43.78971962616832 L 76.94266796361595 43.271028037383275 L 77.18678423513407 42.75233644859823 L 77.42215315711891 42.23364485981318 L 77.66844850943842 41.714953271028136 L 77.89832484299392 41.19626168224309 L 78.13584162798406 40.677570093458044 L 78.38527883362309 40.158878504673 L 78.62998572431506 39.64018691588795 L 78.86907634052751 39.121495327102906 L 79.12085325105795 38.60280373831786 L 79.36576617770025 38.084112149532814 L 79.60634109755067 37.56542056074777 L 79.86935664413842 37.04672897196272 L 80.1305628686215 36.528037383177676 L 80.39605242044965 36.00934579439263 L 80.65375775512368 35.49065420560758 L 80.9187019709696 34.97196261682254 L 81.18422581592945 34.45327102803749 L 81.45612362727464 33.934579439252445 L 81.73485549351172 33.4158878504674 L 81.99822922243827 32.89719626168235 L 82.27377411818122 32.37850467289731 L 82.57322547047502 31.85981308411226 L 82.85909394621844 31.341121495327215 L 83.13915834046783 30.82242990654217 L 83.42721679471997 30.303738317757123 L 83.73226455902763 29.785046728972077 L 84.04184034944323 29.26635514018703 L 84.36087149741773 28.747663551401985 L 84.68421368696565 28.22897196261694 L 84.99817929099989 27.710280373831893 L 85.30854385996449 27.191588785046847 L 85.63351405355627 26.6728971962618 L 85.97679390333474 26.154205607476754 L 86.30806577390341 25.63551401869171 L 86.63629099248254 25.116822429906662 L 86.99733088009185 24.598130841121616 L 87.37663673109648 24.07943925233657 L 87.73884144274308 23.560747663551524 L 88.09908510013042 23.042056074766478 L 88.48490673053308 22.523364485981432 L 88.88821628740298 22.004672897196386 L 89.30702662808348 21.48598130841134 L 89.71834576049835 20.967289719626294 L 90.1547736318039 20.448598130841248 L 90.59390842166395 19.9299065420562 L 91.04843998877047 19.411214953271156 L 91.49610770683155 18.89252336448611 L 91.97862645151528 18.373831775701063 L 92.47999071914938 17.855140186916017 L 93.01247728593741 17.33644859813097 L 93.55044039846236 16.817757009345925 L 94.12757458386294 16.29906542056088 L 94.71704950210088 15.780373831775833 L 95.32899772224253 15.261682242990787 L 95.9707310224867 14.742990654205741 L 96.7455454282998 14.224299065420695 L 97.51979954728341 13.705607476635649 L 98.34306183027842 13.186915887850603 L 99.21270845827104 12.668224299065557 L 100.19670469534434 12.14953271028051 L 101.27294684645366 11.630841121495465 L 102.50363629176061 11.112149532710418 L 103.86997672843184 10.593457943925372 L 105.49081516388007 10.074766355140326 L 107.55552948051698 9.55607476635528 L 110.42715590519738 9.037383177570234 L 115.01311138785503 8.518691588785188 L 122.0 8.000000000000142 L 122 7.481308411215095 L 122 119" fill="rgb( 40, 70,200)" style="stroke:none"/>
    </g>
</svg>
