<svg version="1.1" xmlns="http://www.w3.org/2000/svg" width="32" height="32" data-icon="correlation-32" class="iconning iconning-correlation-32" viewBox="0 0 32 32" id="correlation32">
    <g class="iconning-metadata">
        <title>Correlation Matrix</title>
    </g>
    <g class="iconning-container" data-width="32" data-height="32">
        <polygon class="iconning iconning-correlation iconning-correlation-32 iconning-accent-1 iconning-correlation-1" points="2.0 1.0 8.0 1.0 8.0 7.0 2.0 7.0" opacity="1.0" fill="rgb( 40, 70,200)" style="stroke:none"/>
        <polygon class="iconning iconning-correlation iconning-correlation-32 iconning-accent-1 iconning-correlation-2" points="2.0 8.0 8.0 8.0 8.0 14.0 2.0 14.0" opacity="0.75" fill="rgb( 40, 70,200)" style="stroke:none"/>
        <polygon class="iconning iconning-correlation iconning-correlation-32 iconning-accent-1 iconning-correlation-3" points="2.0 15.0 8.0 15.0 8.0 21.0 2.0 21.0" opacity="0.5" fill="rgb( 40, 70,200)" style="stroke:none"/>
        <polygon class="iconning iconning-correlation iconning-correlation-32 iconning-accent-1 iconning-correlation-4" points="2.0 22.0 8.0 22.0 8.0 28.0 2.0 28.0" opacity="0.25" fill="rgb( 40, 70,200)" style="stroke:none"/>
        <polygon class="iconning iconning-correlation iconning-correlation-32 iconning-accent-1 iconning-correlation-2" points="9.0 1.0 15.0 1.0 15.0 7.0 9.0 7.0" opacity="0.75" fill="rgb( 40, 70,200)" style="stroke:none"/>
        <polygon class="iconning iconning-correlation iconning-correlation-32 iconning-accent-1 iconning-correlation-1" points="9.0 8.0 15.0 8.0 15.0 14.0 9.0 14.0" opacity="1.0" fill="rgb( 40, 70,200)" style="stroke:none"/>
        <polygon class="iconning iconning-correlation iconning-correlation-32 iconning-accent-1 iconning-correlation-2" points="9.0 15.0 15.0 15.0 15.0 21.0 9.0 21.0" opacity="0.75" fill="rgb( 40, 70,200)" style="stroke:none"/>
        <polygon class="iconning iconning-correlation iconning-correlation-32 iconning-accent-1 iconning-correlation-3" points="9.0 22.0 15.0 22.0 15.0 28.0 9.0 28.0" opacity="0.5" fill="rgb( 40, 70,200)" style="stroke:none"/>
        <polygon class="iconning iconning-correlation iconning-correlation-32 iconning-accent-1 iconning-correlation-3" points="16.0 1.0 22.0 1.0 22.0 7.0 16.0 7.0" opacity="0.5" fill="rgb( 40, 70,200)" style="stroke:none"/>
        <polygon class="iconning iconning-correlation iconning-correlation-32 iconning-accent-1 iconning-correlation-2" points="16.0 8.0 22.0 8.0 22.0 14.0 16.0 14.0" opacity="0.75" fill="rgb( 40, 70,200)" style="stroke:none"/>
        <polygon class="iconning iconning-correlation iconning-correlation-32 iconning-accent-1 iconning-correlation-1" points="16.0 15.0 22.0 15.0 22.0 21.0 16.0 21.0" opacity="1.0" fill="rgb( 40, 70,200)" style="stroke:none"/>
        <polygon class="iconning iconning-correlation iconning-correlation-32 iconning-accent-1 iconning-correlation-2" points="16.0 22.0 22.0 22.0 22.0 28.0 16.0 28.0" opacity="0.75" fill="rgb( 40, 70,200)" style="stroke:none"/>
        <polygon class="iconning iconning-correlation iconning-correlation-32 iconning-accent-1 iconning-correlation-4" points="23.0 1.0 29.0 1.0 29.0 7.0 23.0 7.0" opacity="0.25" fill="rgb( 40, 70,200)" style="stroke:none"/>
        <polygon class="iconning iconning-correlation iconning-correlation-32 iconning-accent-1 iconning-correlation-3" points="23.0 8.0 29.0 8.0 29.0 14.0 23.0 14.0" opacity="0.5" fill="rgb( 40, 70,200)" style="stroke:none"/>
        <polygon class="iconning iconning-correlation iconning-correlation-32 iconning-accent-1 iconning-correlation-2" points="23.0 15.0 29.0 15.0 29.0 21.0 23.0 21.0" opacity="0.75" fill="rgb( 40, 70,200)" style="stroke:none"/>
        <polygon class="iconning iconning-correlation iconning-correlation-32 iconning-accent-1 iconning-correlation-1" points="23.0 22.0 29.0 22.0 29.0 28.0 23.0 28.0" opacity="1.0" fill="rgb( 40, 70,200)" style="stroke:none"/>
    </g>
</svg>
