<svg version="1.1" xmlns="http://www.w3.org/2000/svg" width="80" height="80" data-icon="correlation-80" class="iconning iconning-correlation-80" viewBox="0 0 80 80" id="correlation80">
    <g class="iconning-metadata">
        <title>Correlation Matrix</title>
    </g>
    <g class="iconning-container" data-width="80" data-height="80">
        <polygon class="iconning iconning-correlation iconning-correlation-80 iconning-accent-1 iconning-correlation-1" points="2.0 2.0 12.0 2.0 12.0 12.0 2.0 12.0" opacity="1.0" fill="rgb( 40, 70,200)" style="stroke:none"/>
        <polygon class="iconning iconning-correlation iconning-correlation-80 iconning-accent-1 iconning-correlation-2" points="2.0 15.0 12.0 15.0 12.0 25.0 2.0 25.0" opacity="0.8333333333333334" fill="rgb( 40, 70,200)" style="stroke:none"/>
        <polygon class="iconning iconning-correlation iconning-correlation-80 iconning-accent-1 iconning-correlation-3" points="2.0 28.0 12.0 28.0 12.0 38.0 2.0 38.0" opacity="0.6666666666666667" fill="rgb( 40, 70,200)" style="stroke:none"/>
        <polygon class="iconning iconning-correlation iconning-correlation-80 iconning-accent-1 iconning-correlation-4" points="2.0 41.0 12.0 41.0 12.0 51.0 2.0 51.0" opacity="0.5" fill="rgb( 40, 70,200)" style="stroke:none"/>
        <polygon class="iconning iconning-correlation iconning-correlation-80 iconning-accent-1 iconning-correlation-5" points="2.0 54.0 12.0 54.0 12.0 64.0 2.0 64.0" opacity="0.33333333333333337" fill="rgb( 40, 70,200)" style="stroke:none"/>
        <polygon class="iconning iconning-correlation iconning-correlation-80 iconning-accent-1 iconning-correlation-6" points="2.0 67.0 12.0 67.0 12.0 77.0 2.0 77.0" opacity="0.16666666666666663" fill="rgb( 40, 70,200)" style="stroke:none"/>
        <polygon class="iconning iconning-correlation iconning-correlation-80 iconning-accent-1 iconning-correlation-2" points="15.0 2.0 25.0 2.0 25.0 12.0 15.0 12.0" opacity="0.8333333333333334" fill="rgb( 40, 70,200)" style="stroke:none"/>
        <polygon class="iconning iconning-correlation iconning-correlation-80 iconning-accent-1 iconning-correlation-1" points="15.0 15.0 25.0 15.0 25.0 25.0 15.0 25.0" opacity="1.0" fill="rgb( 40, 70,200)" style="stroke:none"/>
        <polygon class="iconning iconning-correlation iconning-correlation-80 iconning-accent-1 iconning-correlation-2" points="15.0 28.0 25.0 28.0 25.0 38.0 15.0 38.0" opacity="0.8333333333333334" fill="rgb( 40, 70,200)" style="stroke:none"/>
        <polygon class="iconning iconning-correlation iconning-correlation-80 iconning-accent-1 iconning-correlation-3" points="15.0 41.0 25.0 41.0 25.0 51.0 15.0 51.0" opacity="0.6666666666666667" fill="rgb( 40, 70,200)" style="stroke:none"/>
        <polygon class="iconning iconning-correlation iconning-correlation-80 iconning-accent-1 iconning-correlation-4" points="15.0 54.0 25.0 54.0 25.0 64.0 15.0 64.0" opacity="0.5" fill="rgb( 40, 70,200)" style="stroke:none"/>
        <polygon class="iconning iconning-correlation iconning-correlation-80 iconning-accent-1 iconning-correlation-5" points="15.0 67.0 25.0 67.0 25.0 77.0 15.0 77.0" opacity="0.33333333333333337" fill="rgb( 40, 70,200)" style="stroke:none"/>
        <polygon class="iconning iconning-correlation iconning-correlation-80 iconning-accent-1 iconning-correlation-3" points="28.0 2.0 38.0 2.0 38.0 12.0 28.0 12.0" opacity="0.6666666666666667" fill="rgb( 40, 70,200)" style="stroke:none"/>
        <polygon class="iconning iconning-correlation iconning-correlation-80 iconning-accent-1 iconning-correlation-2" points="28.0 15.0 38.0 15.0 38.0 25.0 28.0 25.0" opacity="0.8333333333333334" fill="rgb( 40, 70,200)" style="stroke:none"/>
        <polygon class="iconning iconning-correlation iconning-correlation-80 iconning-accent-1 iconning-correlation-1" points="28.0 28.0 38.0 28.0 38.0 38.0 28.0 38.0" opacity="1.0" fill="rgb( 40, 70,200)" style="stroke:none"/>
        <polygon class="iconning iconning-correlation iconning-correlation-80 iconning-accent-1 iconning-correlation-2" points="28.0 41.0 38.0 41.0 38.0 51.0 28.0 51.0" opacity="0.8333333333333334" fill="rgb( 40, 70,200)" style="stroke:none"/>
        <polygon class="iconning iconning-correlation iconning-correlation-80 iconning-accent-1 iconning-correlation-3" points="28.0 54.0 38.0 54.0 38.0 64.0 28.0 64.0" opacity="0.6666666666666667" fill="rgb( 40, 70,200)" style="stroke:none"/>
        <polygon class="iconning iconning-correlation iconning-correlation-80 iconning-accent-1 iconning-correlation-4" points="28.0 67.0 38.0 67.0 38.0 77.0 28.0 77.0" opacity="0.5" fill="rgb( 40, 70,200)" style="stroke:none"/>
        <polygon class="iconning iconning-correlation iconning-correlation-80 iconning-accent-1 iconning-correlation-4" points="41.0 2.0 51.0 2.0 51.0 12.0 41.0 12.0" opacity="0.5" fill="rgb( 40, 70,200)" style="stroke:none"/>
        <polygon class="iconning iconning-correlation iconning-correlation-80 iconning-accent-1 iconning-correlation-3" points="41.0 15.0 51.0 15.0 51.0 25.0 41.0 25.0" opacity="0.6666666666666667" fill="rgb( 40, 70,200)" style="stroke:none"/>
        <polygon class="iconning iconning-correlation iconning-correlation-80 iconning-accent-1 iconning-correlation-2" points="41.0 28.0 51.0 28.0 51.0 38.0 41.0 38.0" opacity="0.8333333333333334" fill="rgb( 40, 70,200)" style="stroke:none"/>
        <polygon class="iconning iconning-correlation iconning-correlation-80 iconning-accent-1 iconning-correlation-1" points="41.0 41.0 51.0 41.0 51.0 51.0 41.0 51.0" opacity="1.0" fill="rgb( 40, 70,200)" style="stroke:none"/>
        <polygon class="iconning iconning-correlation iconning-correlation-80 iconning-accent-1 iconning-correlation-2" points="41.0 54.0 51.0 54.0 51.0 64.0 41.0 64.0" opacity="0.8333333333333334" fill="rgb( 40, 70,200)" style="stroke:none"/>
        <polygon class="iconning iconning-correlation iconning-correlation-80 iconning-accent-1 iconning-correlation-3" points="41.0 67.0 51.0 67.0 51.0 77.0 41.0 77.0" opacity="0.6666666666666667" fill="rgb( 40, 70,200)" style="stroke:none"/>
        <polygon class="iconning iconning-correlation iconning-correlation-80 iconning-accent-1 iconning-correlation-5" points="54.0 2.0 64.0 2.0 64.0 12.0 54.0 12.0" opacity="0.33333333333333337" fill="rgb( 40, 70,200)" style="stroke:none"/>
        <polygon class="iconning iconning-correlation iconning-correlation-80 iconning-accent-1 iconning-correlation-4" points="54.0 15.0 64.0 15.0 64.0 25.0 54.0 25.0" opacity="0.5" fill="rgb( 40, 70,200)" style="stroke:none"/>
        <polygon class="iconning iconning-correlation iconning-correlation-80 iconning-accent-1 iconning-correlation-3" points="54.0 28.0 64.0 28.0 64.0 38.0 54.0 38.0" opacity="0.6666666666666667" fill="rgb( 40, 70,200)" style="stroke:none"/>
        <polygon class="iconning iconning-correlation iconning-correlation-80 iconning-accent-1 iconning-correlation-2" points="54.0 41.0 64.0 41.0 64.0 51.0 54.0 51.0" opacity="0.8333333333333334" fill="rgb( 40, 70,200)" style="stroke:none"/>
        <polygon class="iconning iconning-correlation iconning-correlation-80 iconning-accent-1 iconning-correlation-1" points="54.0 54.0 64.0 54.0 64.0 64.0 54.0 64.0" opacity="1.0" fill="rgb( 40, 70,200)" style="stroke:none"/>
        <polygon class="iconning iconning-correlation iconning-correlation-80 iconning-accent-1 iconning-correlation-2" points="54.0 67.0 64.0 67.0 64.0 77.0 54.0 77.0" opacity="0.8333333333333334" fill="rgb( 40, 70,200)" style="stroke:none"/>
        <polygon class="iconning iconning-correlation iconning-correlation-80 iconning-accent-1 iconning-correlation-6" points="67.0 2.0 77.0 2.0 77.0 12.0 67.0 12.0" opacity="0.16666666666666663" fill="rgb( 40, 70,200)" style="stroke:none"/>
        <polygon class="iconning iconning-correlation iconning-correlation-80 iconning-accent-1 iconning-correlation-5" points="67.0 15.0 77.0 15.0 77.0 25.0 67.0 25.0" opacity="0.33333333333333337" fill="rgb( 40, 70,200)" style="stroke:none"/>
        <polygon class="iconning iconning-correlation iconning-correlation-80 iconning-accent-1 iconning-correlation-4" points="67.0 28.0 77.0 28.0 77.0 38.0 67.0 38.0" opacity="0.5" fill="rgb( 40, 70,200)" style="stroke:none"/>
        <polygon class="iconning iconning-correlation iconning-correlation-80 iconning-accent-1 iconning-correlation-3" points="67.0 41.0 77.0 41.0 77.0 51.0 67.0 51.0" opacity="0.6666666666666667" fill="rgb( 40, 70,200)" style="stroke:none"/>
        <polygon class="iconning iconning-correlation iconning-correlation-80 iconning-accent-1 iconning-correlation-2" points="67.0 54.0 77.0 54.0 77.0 64.0 67.0 64.0" opacity="0.8333333333333334" fill="rgb( 40, 70,200)" style="stroke:none"/>
        <polygon class="iconning iconning-correlation iconning-correlation-80 iconning-accent-1 iconning-correlation-1" points="67.0 67.0 77.0 67.0 77.0 77.0 67.0 77.0" opacity="1.0" fill="rgb( 40, 70,200)" style="stroke:none"/>
    </g>
</svg>
