<svg version="1.1" xmlns="http://www.w3.org/2000/svg" width="64" height="64" data-icon="histogram-64" class="iconning iconning-histogram-64" viewBox="0 0 64 64" id="histogram64">
    <g class="iconning-metadata">
        <title>Histogram</title>
    </g>
    <g class="iconning-container" data-width="64" data-height="64">
        <!-- Axes -->
        <line stroke="rgb(  0,  0,  0)" stroke-width="2.0" stroke-linecap="butt" class="iconning iconning-grid-lines-axes" x1="3.0" y1="62.0" x2="3.0" y2="6.0"/>
        <line stroke="rgb(  0,  0,  0)" stroke-width="2.0" stroke-linecap="butt" class="iconning iconning-grid-lines-axes" x1="2.0" y1="61.0" x2="62.0" y2="61.0"/>
        <!-- Major Tick Marks -->
        <line stroke="rgb(  0,  0,  0)" stroke-width="2.0" stroke-linecap="butt" class="iconning iconning-grid-lines-tick-marks iconning-grid-lines-tick-major" x1="4.0" y1="49.0" x2="8.0" y2="49.0"/>
        <line stroke="rgb(  0,  0,  0)" stroke-width="2.0" stroke-linecap="butt" class="iconning iconning-grid-lines-tick-marks iconning-grid-lines-tick-major" x1="4.0" y1="37.0" x2="8.0" y2="37.0"/>
        <line stroke="rgb(  0,  0,  0)" stroke-width="2.0" stroke-linecap="butt" class="iconning iconning-grid-lines-tick-marks iconning-grid-lines-tick-major" x1="4.0" y1="25.0" x2="8.0" y2="25.0"/>
        <line stroke="rgb(  0,  0,  0)" stroke-width="2.0" stroke-linecap="butt" class="iconning iconning-grid-lines-tick-marks iconning-grid-lines-tick-major" x1="4.0" y1="13.0" x2="8.0" y2="13.0"/>
        <!-- Minor Tick Marks -->
        <line stroke="rgb(  0,  0,  0)" stroke-width="2.0" stroke-linecap="butt" class="iconning iconning-grid-lines-tick-marks iconning-grid-lines-tick-minor" x1="4.0" y1="55.0" x2="6.0" y2="55.0"/>
        <line stroke="rgb(  0,  0,  0)" stroke-width="2.0" stroke-linecap="butt" class="iconning iconning-grid-lines-tick-marks iconning-grid-lines-tick-minor" x1="4.0" y1="43.0" x2="6.0" y2="43.0"/>
        <line stroke="rgb(  0,  0,  0)" stroke-width="2.0" stroke-linecap="butt" class="iconning iconning-grid-lines-tick-marks iconning-grid-lines-tick-minor" x1="4.0" y1="31.0" x2="6.0" y2="31.0"/>
        <line stroke="rgb(  0,  0,  0)" stroke-width="2.0" stroke-linecap="butt" class="iconning iconning-grid-lines-tick-marks iconning-grid-lines-tick-minor" x1="4.0" y1="19.0" x2="6.0" y2="19.0"/>
        <line stroke="rgb(  0,  0,  0)" stroke-width="2.0" stroke-linecap="butt" class="iconning iconning-grid-lines-tick-marks iconning-grid-lines-tick-minor" x1="4.0" y1="7.0" x2="6.0" y2="7.0"/>
        <!-- Histogram Columns -->
        <polygon class="iconning iconning-fill iconning-histogram iconning-histogram-64 iconning-accent-1 iconning-histogram-1" points="10.0 58.0 14.0 58.0 14.0 54.0 10.0 54.0" fill="rgb( 40, 70,200)" style="stroke:none"/>
        <polygon class="iconning iconning-fill iconning-histogram iconning-histogram-64 iconning-accent-1 iconning-histogram-2" points="15.0 58.0 19.0 58.0 19.0 48.0 15.0 48.0" fill="rgb( 40, 70,200)" style="stroke:none"/>
        <polygon class="iconning iconning-fill iconning-histogram iconning-histogram-64 iconning-accent-1 iconning-histogram-3" points="20.0 58.0 24.0 58.0 24.0 36.0 20.0 36.0" fill="rgb( 40, 70,200)" style="stroke:none"/>
        <polygon class="iconning iconning-fill iconning-histogram iconning-histogram-64 iconning-accent-1 iconning-histogram-4" points="25.0 58.0 29.0 58.0 29.0 19.0 25.0 19.0" fill="rgb( 40, 70,200)" style="stroke:none"/>
        <polygon class="iconning iconning-fill iconning-histogram iconning-histogram-64 iconning-accent-1 iconning-histogram-5" points="30.0 58.0 34.0 58.0 34.0 10.0 30.0 10.0" fill="rgb( 40, 70,200)" style="stroke:none"/>
        <polygon class="iconning iconning-fill iconning-histogram iconning-histogram-64 iconning-accent-1 iconning-histogram-6" points="35.0 58.0 39.0 58.0 39.0 19.0 35.0 19.0" fill="rgb( 40, 70,200)" style="stroke:none"/>
        <polygon class="iconning iconning-fill iconning-histogram iconning-histogram-64 iconning-accent-1 iconning-histogram-7" points="40.0 58.0 44.0 58.0 44.0 36.0 40.0 36.0" fill="rgb( 40, 70,200)" style="stroke:none"/>
        <polygon class="iconning iconning-fill iconning-histogram iconning-histogram-64 iconning-accent-1 iconning-histogram-8" points="45.0 58.0 49.0 58.0 49.0 48.0 45.0 48.0" fill="rgb( 40, 70,200)" style="stroke:none"/>
        <polygon class="iconning iconning-fill iconning-histogram iconning-histogram-64 iconning-accent-1 iconning-histogram-9" points="50.0 58.0 54.0 58.0 54.0 54.0 50.0 54.0" fill="rgb( 40, 70,200)" style="stroke:none"/>
    </g>
</svg>
