<svg version="1.1" xmlns="http://www.w3.org/2000/svg" width="80" height="80" data-icon="histogram-80" class="iconning iconning-histogram-80" viewBox="0 0 80 80" id="histogram80">
    <g class="iconning-metadata">
        <title>Histogram</title>
    </g>
    <g class="iconning-container" data-width="80" data-height="80">
        <!-- Axes -->
        <line stroke="rgb(  0,  0,  0)" stroke-width="2.0" stroke-linecap="butt" class="iconning iconning-grid-lines-axes" x1="3.0" y1="78.0" x2="3.0" y2="4.0"/>
        <line stroke="rgb(  0,  0,  0)" stroke-width="2.0" stroke-linecap="butt" class="iconning iconning-grid-lines-axes" x1="2.0" y1="77.0" x2="78.0" y2="77.0"/>
        <!-- Major Tick Marks -->
        <line stroke="rgb(  0,  0,  0)" stroke-width="2.0" stroke-linecap="butt" class="iconning iconning-grid-lines-tick-marks iconning-grid-lines-tick-major" x1="4.0" y1="65.0" x2="8.0" y2="65.0"/>
        <line stroke="rgb(  0,  0,  0)" stroke-width="2.0" stroke-linecap="butt" class="iconning iconning-grid-lines-tick-marks iconning-grid-lines-tick-major" x1="4.0" y1="53.0" x2="8.0" y2="53.0"/>
        <line stroke="rgb(  0,  0,  0)" stroke-width="2.0" stroke-linecap="butt" class="iconning iconning-grid-lines-tick-marks iconning-grid-lines-tick-major" x1="4.0" y1="41.0" x2="8.0" y2="41.0"/>
        <line stroke="rgb(  0,  0,  0)" stroke-width="2.0" stroke-linecap="butt" class="iconning iconning-grid-lines-tick-marks iconning-grid-lines-tick-major" x1="4.0" y1="29.0" x2="8.0" y2="29.0"/>
        <line stroke="rgb(  0,  0,  0)" stroke-width="2.0" stroke-linecap="butt" class="iconning iconning-grid-lines-tick-marks iconning-grid-lines-tick-major" x1="4.0" y1="17.0" x2="8.0" y2="17.0"/>
        <line stroke="rgb(  0,  0,  0)" stroke-width="2.0" stroke-linecap="butt" class="iconning iconning-grid-lines-tick-marks iconning-grid-lines-tick-major" x1="4.0" y1="5.0" x2="8.0" y2="5.0"/>
        <!-- Minor Tick Marks -->
        <line stroke="rgb(  0,  0,  0)" stroke-width="2.0" stroke-linecap="butt" class="iconning iconning-grid-lines-tick-marks iconning-grid-lines-tick-minor" x1="4.0" y1="71.0" x2="6.0" y2="71.0"/>
        <line stroke="rgb(  0,  0,  0)" stroke-width="2.0" stroke-linecap="butt" class="iconning iconning-grid-lines-tick-marks iconning-grid-lines-tick-minor" x1="4.0" y1="59.0" x2="6.0" y2="59.0"/>
        <line stroke="rgb(  0,  0,  0)" stroke-width="2.0" stroke-linecap="butt" class="iconning iconning-grid-lines-tick-marks iconning-grid-lines-tick-minor" x1="4.0" y1="47.0" x2="6.0" y2="47.0"/>
        <line stroke="rgb(  0,  0,  0)" stroke-width="2.0" stroke-linecap="butt" class="iconning iconning-grid-lines-tick-marks iconning-grid-lines-tick-minor" x1="4.0" y1="35.0" x2="6.0" y2="35.0"/>
        <line stroke="rgb(  0,  0,  0)" stroke-width="2.0" stroke-linecap="butt" class="iconning iconning-grid-lines-tick-marks iconning-grid-lines-tick-minor" x1="4.0" y1="23.0" x2="6.0" y2="23.0"/>
        <line stroke="rgb(  0,  0,  0)" stroke-width="2.0" stroke-linecap="butt" class="iconning iconning-grid-lines-tick-marks iconning-grid-lines-tick-minor" x1="4.0" y1="11.0" x2="6.0" y2="11.0"/>
        <!-- Histogram Columns -->
        <polygon class="iconning iconning-fill iconning-histogram iconning-histogram-80 iconning-accent-1 iconning-histogram-1" points="10.0 74.0 15.0 74.0 15.0 68.0 10.0 68.0" fill="rgb( 40, 70,200)" style="stroke:none"/>
        <polygon class="iconning iconning-fill iconning-histogram iconning-histogram-80 iconning-accent-1 iconning-histogram-2" points="17.0 74.0 22.0 74.0 22.0 61.0 17.0 61.0" fill="rgb( 40, 70,200)" style="stroke:none"/>
        <polygon class="iconning iconning-fill iconning-histogram iconning-histogram-80 iconning-accent-1 iconning-histogram-3" points="24.0 74.0 29.0 74.0 29.0 44.0 24.0 44.0" fill="rgb( 40, 70,200)" style="stroke:none"/>
        <polygon class="iconning iconning-fill iconning-histogram iconning-histogram-80 iconning-accent-1 iconning-histogram-4" points="31.0 74.0 36.0 74.0 36.0 21.0 31.0 21.0" fill="rgb( 40, 70,200)" style="stroke:none"/>
        <polygon class="iconning iconning-fill iconning-histogram iconning-histogram-80 iconning-accent-1 iconning-histogram-5" points="38.0 74.0 43.0 74.0 43.0 9.0 38.0 9.0" fill="rgb( 40, 70,200)" style="stroke:none"/>
        <polygon class="iconning iconning-fill iconning-histogram iconning-histogram-80 iconning-accent-1 iconning-histogram-6" points="45.0 74.0 50.0 74.0 50.0 21.0 45.0 21.0" fill="rgb( 40, 70,200)" style="stroke:none"/>
        <polygon class="iconning iconning-fill iconning-histogram iconning-histogram-80 iconning-accent-1 iconning-histogram-7" points="52.0 74.0 57.0 74.0 57.0 44.0 52.0 44.0" fill="rgb( 40, 70,200)" style="stroke:none"/>
        <polygon class="iconning iconning-fill iconning-histogram iconning-histogram-80 iconning-accent-1 iconning-histogram-8" points="59.0 74.0 64.0 74.0 64.0 61.0 59.0 61.0" fill="rgb( 40, 70,200)" style="stroke:none"/>
        <polygon class="iconning iconning-fill iconning-histogram iconning-histogram-80 iconning-accent-1 iconning-histogram-9" points="66.0 74.0 71.0 74.0 71.0 68.0 66.0 68.0" fill="rgb( 40, 70,200)" style="stroke:none"/>
    </g>
</svg>
