<svg version="1.1" xmlns="http://www.w3.org/2000/svg" width="80" height="80" data-icon="io-compare-80" class="iconning iconning-io-compare-80" viewBox="0 0 80 80" id="io-compare80">
    <g class="iconning-metadata">
        <title>IO Compare</title>
    </g>
    <g class="iconning-container" data-width="80" data-height="80">
        <!-- Left Circle with > -->
        <path class="iconning iconning-io-compare iconning-io-compare-80 iconning-fill iconning-accent-0 iconning-io-compare-minuend" d="M 18.0 20.0 a 18.0 18.0 0 0 0 0 36.0 a 18.0 18.0 0 0 0 0 -36.0 M 15.0 26.0 l 12.0 12.0 l -12.0 12.0 l -2.4 -2.4 l 9.6 -9.6 l -9.6 -9.6 L 15.0 26.0" fill-rule="evenodd" fill="rgb(  0,  0,  0)" style="stroke:none"/>
        <!-- Right Circle with < -->
        <path class="iconning iconning-io-compare iconning-io-compare-80 iconning-fill iconning-accent-1 iconning-io-compare-subtrahend" d="M 62.0 20.0 a 18.0 18.0 0 0 0 0 36.0 a 18.0 18.0 0 0 0 0 -36.0 M 65.0 26.0 l -12.0 12.0 l 12.0 12.0 l 2.4 -2.4 l -9.6 -9.6 l 9.6 -9.6 L 65.0 26.0" fill-rule="evenodd" fill="rgb(  0,  0,  0)" style="stroke:none"/>
        <!-- Vertical Line -->
        <line class="iconning iconning-io-compare iconning-io-compare-80 iconning-stroke iconning-io-compare-vertical-line" x1="40.0" y1="2.0" x2="40.0" y2="78.0" stroke="rgb(  0,  0,  0)" stroke-width="4.0"/>
    </g>
</svg>
