<svg version="1.1" xmlns="http://www.w3.org/2000/svg" width="40" height="40" data-icon="io-compare-40" class="iconning iconning-io-compare-40" viewBox="0 0 40 40" id="io-compare40">
    <g class="iconning-metadata">
        <title>IO Compare</title>
    </g>
    <g class="iconning-container" data-width="40" data-height="40">
        <!-- Left Circle with > -->
        <path class="iconning iconning-io-compare iconning-io-compare-40 iconning-fill iconning-accent-0 iconning-io-compare-minuend" d="M 9.0 10.0 a 9.0 9.0 0 0 0 0 18.0 a 9.0 9.0 0 0 0 0 -18.0 M 7.5 13.0 l 6.0 6.0 l -6.0 6.0 l -1.4 -1.4 l 4.6 -4.6 l -4.6 -4.6 L 7.5 13.0" fill-rule="evenodd" fill="rgb(  0,  0,  0)" style="stroke:none"/>
        <!-- Right Circle with < -->
        <path class="iconning iconning-io-compare iconning-io-compare-40 iconning-fill iconning-accent-1 iconning-io-compare-subtrahend" d="M 31.0 10.0 a 9.0 9.0 0 0 0 0 18.0 a 9.0 9.0 0 0 0 0 -18.0 M 32.5 13.0 l -6.0 6.0 l 6.0 6.0 l 1.4 -1.4 l -4.6 -4.6 l 4.6 -4.6 L 32.5 13.0" fill-rule="evenodd" fill="rgb(  0,  0,  0)" style="stroke:none"/>
        <!-- Vertical Line -->
        <line class="iconning iconning-io-compare iconning-io-compare-40 iconning-stroke iconning-io-compare-vertical-line" x1="20.0" y1="1.0" x2="20.0" y2="39.0" stroke="rgb(  0,  0,  0)" stroke-width="2.0"/>
    </g>
</svg>
