<svg version="1.1" xmlns="http://www.w3.org/2000/svg" width="96" height="96" data-icon="io-compare-96" class="iconning iconning-io-compare-96" viewBox="0 0 96 96" id="io-compare96">
    <g class="iconning-metadata">
        <title>IO Compare</title>
    </g>
    <g class="iconning-container" data-width="96" data-height="96">
        <!-- Left Circle with > -->
        <path class="iconning iconning-io-compare iconning-io-compare-96 iconning-fill iconning-accent-0 iconning-io-compare-minuend" d="M 21.6 24.0 a 21.6 21.6 0 0 0 0 43.2 a 21.6 21.6 0 0 0 0 -43.2 M 18.0 31.200000000000003 l 14.400000000000002 14.400000000000002 l -14.400000000000002 14.400000000000002 l -2.8000000000000007 -2.8000000000000007 l 11.600000000000001 -11.600000000000001 l -11.600000000000001 -11.600000000000001 L 18.0 31.200000000000003" fill-rule="evenodd" fill="rgb(  0,  0,  0)" style="stroke:none"/>
        <!-- Right Circle with < -->
        <path class="iconning iconning-io-compare iconning-io-compare-96 iconning-fill iconning-accent-1 iconning-io-compare-subtrahend" d="M 74.4 24.0 a 21.6 21.6 0 0 0 0 43.2 a 21.6 21.6 0 0 0 0 -43.2 M 78.0 31.200000000000003 l -14.400000000000002 14.400000000000002 l 14.400000000000002 14.400000000000002 l 2.8000000000000007 -2.8000000000000007 l -11.600000000000001 -11.600000000000001 l 11.600000000000001 -11.600000000000001 L 78.0 31.200000000000003" fill-rule="evenodd" fill="rgb(  0,  0,  0)" style="stroke:none"/>
        <!-- Vertical Line -->
        <line class="iconning iconning-io-compare iconning-io-compare-96 iconning-stroke iconning-io-compare-vertical-line" x1="48.0" y1="2.4" x2="48.0" y2="93.6" stroke="rgb(  0,  0,  0)" stroke-width="4.8"/>
    </g>
</svg>
