<svg version="1.1" xmlns="http://www.w3.org/2000/svg" width="20" height="20" data-icon="io-compare-20" class="iconning iconning-io-compare-20" viewBox="0 0 20 20" id="io-compare20">
    <g class="iconning-metadata">
        <title>IO Compare</title>
    </g>
    <g class="iconning-container" data-width="20" data-height="20">
        <!-- Left Circle with > -->
        <path class="iconning iconning-io-compare iconning-io-compare-20 iconning-fill iconning-accent-0 iconning-io-compare-minuend" d="M 4.5 5.0 a 4.5 4.5 0 0 0 0 9.0 a 4.5 4.5 0 0 0 0 -9.0 M 3.75 6.5 l 3.0 3.0 l -3.0 3.0 l -0.9 -0.9 l 2.1 -2.1 l -2.1 -2.1 L 3.75 6.5" fill-rule="evenodd" fill="rgb(  0,  0,  0)" style="stroke:none"/>
        <!-- Right Circle with < -->
        <path class="iconning iconning-io-compare iconning-io-compare-20 iconning-fill iconning-accent-1 iconning-io-compare-subtrahend" d="M 15.5 5.0 a 4.5 4.5 0 0 0 0 9.0 a 4.5 4.5 0 0 0 0 -9.0 M 16.25 6.5 l -3.0 3.0 l 3.0 3.0 l 0.9 -0.9 l -2.1 -2.1 l 2.1 -2.1 L 16.25 6.5" fill-rule="evenodd" fill="rgb(  0,  0,  0)" style="stroke:none"/>
        <!-- Vertical Line -->
        <line class="iconning iconning-io-compare iconning-io-compare-20 iconning-stroke iconning-io-compare-vertical-line" x1="10.0" y1="0.5" x2="10.0" y2="19.5" stroke="rgb(  0,  0,  0)" stroke-width="1.0"/>
    </g>
</svg>
