<svg version="1.1" xmlns="http://www.w3.org/2000/svg" width="96" height="96" data-icon="io-monitor-96" class="iconning iconning-io-monitor-96" viewBox="0 0 96 96" id="io-monitor96">
    <g class="iconning-metadata">
        <title>IO Monitor</title>
    </g>
    <g class="iconning-container" data-width="96" data-height="96">
        <!-- Lambda Character -->
        <path class="iconning iconning-io-monitor iconning-io-monitor-96 iconning-stroke iconning-lambda-character" d="M 38.4 3.84 L 46.08 23.04 L 26.88 72.96 L 34.56 72.96 L 49.92 34.56 L 65.28 72.96 L 72.96 72.96 L 46.08 3.84 L 38.4 3.84" fill="rgb(  0,  0,  0)" style="stroke:none"/>
        <!-- Lambda Columns -->
        <path class="iconning iconning-io-monitor iconning-io-monitor-96 iconning-fill iconning-lambda-column" d="M 3.84 92.16 L 3.84 84.47999999999999 L 11.52 84.47999999999999 L 11.52 92.16" fill="rgb( 40, 70,200)" style="stroke:none"/>
        <path class="iconning iconning-io-monitor iconning-io-monitor-96 iconning-fill iconning-lambda-column" d="M 15.36 92.16 L 15.36 72.96 L 23.04 72.96 L 23.04 92.16" fill="rgb( 40, 70,200)" style="stroke:none"/>
        <path class="iconning iconning-io-monitor iconning-io-monitor-96 iconning-fill iconning-lambda-column" d="M 26.88 92.16 L 26.88 84.47999999999999 L 34.56 84.47999999999999 L 34.56 92.16" fill="rgb( 40, 70,200)" style="stroke:none"/>
        <path class="iconning iconning-io-monitor iconning-io-monitor-96 iconning-fill iconning-lambda-column" d="M 38.4 92.16 L 38.4 84.47999999999999 L 46.08 84.47999999999999 L 46.08 92.16" fill="rgb( 40, 70,200)" style="stroke:none"/>
        <path class="iconning iconning-io-monitor iconning-io-monitor-96 iconning-fill iconning-lambda-column" d="M 49.92 92.16 L 49.92 65.28 L 57.6 65.28 L 57.6 92.16" fill="rgb( 40, 70,200)" style="stroke:none"/>
        <path class="iconning iconning-io-monitor iconning-io-monitor-96 iconning-fill iconning-lambda-column" d="M 61.44 92.16 L 61.44 88.32 L 69.12 88.32 L 69.12 92.16" fill="rgb( 40, 70,200)" style="stroke:none"/>
        <path class="iconning iconning-io-monitor iconning-io-monitor-96 iconning-fill iconning-lambda-column" d="M 72.96 92.16 L 72.96 84.47999999999999 L 80.63999999999999 84.47999999999999 L 80.63999999999999 92.16" fill="rgb( 40, 70,200)" style="stroke:none"/>
        <path class="iconning iconning-io-monitor iconning-io-monitor-96 iconning-fill iconning-lambda-column" d="M 84.47999999999999 92.16 L 84.47999999999999 42.239999999999995 L 92.16 42.239999999999995 L 92.16 92.16" fill="rgb( 40, 70,200)" style="stroke:none"/>
    </g>
</svg>
