<svg version="1.1" xmlns="http://www.w3.org/2000/svg" width="64" height="64" data-icon="io-monitor-64" class="iconning iconning-io-monitor-64" viewBox="0 0 64 64" id="io-monitor64">
    <g class="iconning-metadata">
        <title>IO Monitor</title>
    </g>
    <g class="iconning-container" data-width="64" data-height="64">
        <!-- Lambda Character -->
        <path class="iconning iconning-io-monitor iconning-io-monitor-64 iconning-stroke iconning-lambda-character" d="M 25.6 2.56 L 30.72 15.36 L 17.92 48.64 L 23.04 48.64 L 33.28 23.04 L 43.52 48.64 L 48.64 48.64 L 30.72 2.56 L 25.6 2.56" fill="rgb(  0,  0,  0)" style="stroke:none"/>
        <!-- Lambda Columns -->
        <path class="iconning iconning-io-monitor iconning-io-monitor-64 iconning-fill iconning-lambda-column" d="M 2.56 61.44 L 2.56 56.32 L 7.68 56.32 L 7.68 61.44" fill="rgb( 40, 70,200)" style="stroke:none"/>
        <path class="iconning iconning-io-monitor iconning-io-monitor-64 iconning-fill iconning-lambda-column" d="M 10.24 61.44 L 10.24 48.64 L 15.36 48.64 L 15.36 61.44" fill="rgb( 40, 70,200)" style="stroke:none"/>
        <path class="iconning iconning-io-monitor iconning-io-monitor-64 iconning-fill iconning-lambda-column" d="M 17.92 61.44 L 17.92 56.32 L 23.040000000000003 56.32 L 23.040000000000003 61.44" fill="rgb( 40, 70,200)" style="stroke:none"/>
        <path class="iconning iconning-io-monitor iconning-io-monitor-64 iconning-fill iconning-lambda-column" d="M 25.6 61.44 L 25.6 56.32 L 30.720000000000002 56.32 L 30.720000000000002 61.44" fill="rgb( 40, 70,200)" style="stroke:none"/>
        <path class="iconning iconning-io-monitor iconning-io-monitor-64 iconning-fill iconning-lambda-column" d="M 33.28 61.44 L 33.28 43.519999999999996 L 38.4 43.519999999999996 L 38.4 61.44" fill="rgb( 40, 70,200)" style="stroke:none"/>
        <path class="iconning iconning-io-monitor iconning-io-monitor-64 iconning-fill iconning-lambda-column" d="M 40.96 61.44 L 40.96 58.879999999999995 L 46.08 58.879999999999995 L 46.08 61.44" fill="rgb( 40, 70,200)" style="stroke:none"/>
        <path class="iconning iconning-io-monitor iconning-io-monitor-64 iconning-fill iconning-lambda-column" d="M 48.64 61.44 L 48.64 56.32 L 53.76 56.32 L 53.76 61.44" fill="rgb( 40, 70,200)" style="stroke:none"/>
        <path class="iconning iconning-io-monitor iconning-io-monitor-64 iconning-fill iconning-lambda-column" d="M 56.32 61.44 L 56.32 28.159999999999997 L 61.44 28.159999999999997 L 61.44 61.44" fill="rgb( 40, 70,200)" style="stroke:none"/>
    </g>
</svg>
