<svg version="1.1" xmlns="http://www.w3.org/2000/svg" width="96" height="96" data-icon="pdf-96" class="iconning iconning-pdf-96" viewBox="0 0 96 96" id="pdf96">
    <g class="iconning-metadata">
        <title>Probability Density Function Chart</title>
    </g>
    <g class="iconning-container" data-width="96" data-height="96">
        <!-- Axes -->
        <line stroke="rgb(  0,  0,  0)" stroke-width="2.0" stroke-linecap="butt" class="iconning iconning-grid-lines-axes" x1="3.0" y1="94.0" x2="3.0" y2="2.0"/>
        <line stroke="rgb(  0,  0,  0)" stroke-width="2.0" stroke-linecap="butt" class="iconning iconning-grid-lines-axes" x1="2.0" y1="93.0" x2="94.0" y2="93.0"/>
        <!-- Major Tick Marks -->
        <line stroke="rgb(  0,  0,  0)" stroke-width="2.0" stroke-linecap="butt" class="iconning iconning-grid-lines-tick-marks iconning-grid-lines-tick-major" x1="4.0" y1="81.0" x2="8.0" y2="81.0"/>
        <line stroke="rgb(  0,  0,  0)" stroke-width="2.0" stroke-linecap="butt" class="iconning iconning-grid-lines-tick-marks iconning-grid-lines-tick-major" x1="4.0" y1="69.0" x2="8.0" y2="69.0"/>
        <line stroke="rgb(  0,  0,  0)" stroke-width="2.0" stroke-linecap="butt" class="iconning iconning-grid-lines-tick-marks iconning-grid-lines-tick-major" x1="4.0" y1="57.0" x2="8.0" y2="57.0"/>
        <line stroke="rgb(  0,  0,  0)" stroke-width="2.0" stroke-linecap="butt" class="iconning iconning-grid-lines-tick-marks iconning-grid-lines-tick-major" x1="4.0" y1="45.0" x2="8.0" y2="45.0"/>
        <line stroke="rgb(  0,  0,  0)" stroke-width="2.0" stroke-linecap="butt" class="iconning iconning-grid-lines-tick-marks iconning-grid-lines-tick-major" x1="4.0" y1="33.0" x2="8.0" y2="33.0"/>
        <line stroke="rgb(  0,  0,  0)" stroke-width="2.0" stroke-linecap="butt" class="iconning iconning-grid-lines-tick-marks iconning-grid-lines-tick-major" x1="4.0" y1="21.0" x2="8.0" y2="21.0"/>
        <line stroke="rgb(  0,  0,  0)" stroke-width="2.0" stroke-linecap="butt" class="iconning iconning-grid-lines-tick-marks iconning-grid-lines-tick-major" x1="4.0" y1="9.0" x2="8.0" y2="9.0"/>
        <!-- Minor Tick Marks -->
        <line stroke="rgb(  0,  0,  0)" stroke-width="2.0" stroke-linecap="butt" class="iconning iconning-grid-lines-tick-marks iconning-grid-lines-tick-minor" x1="4.0" y1="87.0" x2="6.0" y2="87.0"/>
        <line stroke="rgb(  0,  0,  0)" stroke-width="2.0" stroke-linecap="butt" class="iconning iconning-grid-lines-tick-marks iconning-grid-lines-tick-minor" x1="4.0" y1="75.0" x2="6.0" y2="75.0"/>
        <line stroke="rgb(  0,  0,  0)" stroke-width="2.0" stroke-linecap="butt" class="iconning iconning-grid-lines-tick-marks iconning-grid-lines-tick-minor" x1="4.0" y1="63.0" x2="6.0" y2="63.0"/>
        <line stroke="rgb(  0,  0,  0)" stroke-width="2.0" stroke-linecap="butt" class="iconning iconning-grid-lines-tick-marks iconning-grid-lines-tick-minor" x1="4.0" y1="51.0" x2="6.0" y2="51.0"/>
        <line stroke="rgb(  0,  0,  0)" stroke-width="2.0" stroke-linecap="butt" class="iconning iconning-grid-lines-tick-marks iconning-grid-lines-tick-minor" x1="4.0" y1="39.0" x2="6.0" y2="39.0"/>
        <line stroke="rgb(  0,  0,  0)" stroke-width="2.0" stroke-linecap="butt" class="iconning iconning-grid-lines-tick-marks iconning-grid-lines-tick-minor" x1="4.0" y1="27.0" x2="6.0" y2="27.0"/>
        <line stroke="rgb(  0,  0,  0)" stroke-width="2.0" stroke-linecap="butt" class="iconning iconning-grid-lines-tick-marks iconning-grid-lines-tick-minor" x1="4.0" y1="15.0" x2="6.0" y2="15.0"/>
        <line stroke="rgb(  0,  0,  0)" stroke-width="2.0" stroke-linecap="butt" class="iconning iconning-grid-lines-tick-marks iconning-grid-lines-tick-minor" x1="4.0" y1="3.0" x2="6.0" y2="3.0"/>
        <!-- PDF Polygon -->
        <path class="iconning iconning-pdf iconning-pdf-96 iconning-accent-1" d="M 10.0 89.11668892854308 L 10.496969696969696 89.02478130517542 L 10.993939393939394 88.91690236329067 L 11.49090909090909 88.78304676576118 L 11.987878787878788 88.61879096649034 L 12.484848484848484 88.42880137484607 L 12.981818181818182 88.22486244634307 L 13.478787878787879 88.0187658374165 L 13.975757575757576 87.81454185634246 L 14.472727272727273 87.60564083237165 L 14.969696969696969 87.37909754017383 L 15.466666666666667 87.12318714911744 L 15.963636363636365 86.83262134284699 L 16.46060606060606 86.50828348599364 L 16.957575757575757 86.15383576345671 L 17.454545454545453 85.77363196864903 L 17.951515151515153 85.37316701571729 L 18.44848484848485 84.9590038433798 L 18.945454545454545 84.53536103090299 L 19.442424242424245 84.09913747956077 L 19.939393939393938 83.63820341040052 L 20.436363636363637 83.13547325958334 L 20.933333333333334 82.57655988360149 L 21.43030303030303 81.95667544413018 L 21.92727272727273 81.2834178454877 L 22.424242424242422 80.57368695533224 L 22.921212121212122 79.84498059136102 L 23.418181818181818 79.10477482333087 L 23.915151515151514 78.34427425942738 L 24.412121212121214 77.54068620637895 L 24.909090909090907 76.66640697836432 L 25.406060606060606 75.699742080187 L 25.903030303030302 74.63278549866715 L 26.4 73.4748034032379 L 26.8969696969697 72.25041099197294 L 27.393939393939394 70.9918866910314 L 27.89090909090909 69.72693712569928 L 28.387878787878787 68.46682679299082 L 28.884848484848487 67.20157082938898 L 29.381818181818183 65.90615506582029 L 29.87878787878788 64.55503283522349 L 30.375757575757575 63.13557222649638 L 30.87272727272727 61.6508868464046 L 31.36969696969697 60.11100616500033 L 31.866666666666667 58.52172966575123 L 32.36363636363636 56.88196825152242 L 32.86060606060606 55.19108693269901 L 33.35757575757576 53.457637171288916 L 33.85454545454546 51.69995327644522 L 34.35151515151515 49.93722973843705 L 34.848484848484844 48.17857948860889 L 35.345454545454544 46.41939061033039 L 35.842424242424244 44.64786395060244 L 36.33939393939394 42.85601856868613 L 36.836363636363636 41.04677087396963 L 37.33333333333333 39.233630045161036 L 37.83030303030303 37.435581992981106 L 38.32727272727273 35.670794094302764 L 38.82424242424243 33.950630978903995 L 39.32121212121212 32.275026523163895 L 39.81818181818181 30.6316216225027 L 40.31515151515151 29.000967666464376 L 40.81212121212121 27.36737393507834 L 41.30909090909091 25.73092453270482 L 41.806060606060605 24.113067318022047 L 42.303030303030305 22.54951305735581 L 42.8 21.071809798337497 L 43.2969696969697 19.688518290063953 L 43.7939393939394 18.38018682780735 L 44.29090909090909 17.114764214749997 L 44.78787878787879 15.875160807613781 L 45.28484848484848 14.678622463524647 L 45.78181818181818 13.569898577967578 L 46.27878787878788 12.589701545078398 L 46.775757575757574 11.742903773873437 L 47.27272727272727 10.994684855196368 L 47.76969696969697 10.299989276996584 L 48.266666666666666 9.64279780147396 L 48.763636363636365 9.05458543703024 L 49.26060606060606 8.599777557347565 L 49.75757575757576 8.339946887132157 L 50.25454545454546 8.299999999999997 L 50.75151515151515 8.456081214903463 L 51.24848484848485 8.750928731811257 L 51.74545454545454 9.12467239775907 L 52.24242424242424 9.539389929708662 L 52.73939393939394 9.983584783931107 L 53.236363636363635 10.461103964498022 L 53.733333333333334 10.979503991422177 L 54.23030303030303 11.547802755144204 L 54.72727272727273 12.182114223117921 L 55.224242424242426 12.910165269344603 L 55.72121212121212 13.765316290217825 L 56.21818181818182 14.76909648400877 L 56.71515151515152 15.914947689893154 L 57.21212121212121 17.169807078814785 L 57.70909090909091 18.49467305595644 L 58.2060606060606 19.86592219653039 L 58.7030303030303 21.27948852478309 L 59.2 22.739052048766993 L 59.696969696969695 24.24400709318897 L 60.193939393939395 25.788871136589606 L 60.69090909090909 27.371036479262287 L 61.18787878787879 28.99509598336669 L 61.68484848484849 30.667293323286394 L 62.18181818181818 32.386110528555086 L 62.67878787878788 34.14018763505773 L 63.17575757575757 35.9162434745101 L 63.67272727272727 37.70754318150142 L 64.16969696969697 39.5127079578474 L 64.66666666666666 41.32612954997301 L 65.16363636363636 43.13108061928237 L 65.66060606060606 44.904154292943815 L 66.15757575757576 46.62866099174199 L 66.65454545454546 48.30610242761382 L 67.15151515151516 49.95574817680034 L 67.64848484848486 51.60177791137358 L 68.14545454545456 53.25814848258792 L 68.64242424242424 54.92369298801736 L 69.13939393939394 56.59044477724124 L 69.63636363636363 58.255258307582096 L 70.13333333333333 59.92175071983523 L 70.63030303030303 61.58994867313231 L 71.12727272727273 63.24424409023366 L 71.62424242424242 64.8528444620489 L 72.12121212121212 66.3811716925985 L 72.61818181818182 67.80837827226684 L 73.11515151515152 69.13378838094008 L 73.61212121212121 70.37052688823377 L 74.10909090909091 71.53476669593474 L 74.60606060606061 72.6392426023065 L 75.10303030303031 73.69184374764137 L 75.6 74.69588827500907 L 76.0969696969697 75.65139874263838 L 76.5939393939394 76.55863185928133 L 77.0909090909091 77.42198791812199 L 77.5878787878788 78.25016349847527 L 78.08484848484848 79.05207439597777 L 78.58181818181818 79.83285931661115 L 79.07878787878788 80.59334324266679 L 79.57575757575758 81.3314782169201 L 80.07272727272728 82.04249706834963 L 80.56969696969696 82.71761192507306 L 81.06666666666666 83.344231267254 L 81.56363636363636 83.90980478970266 L 82.06060606060606 84.4077880682823 L 82.55757575757576 84.84179618281607 L 83.05454545454545 85.22496673508061 L 83.55151515151515 85.57474808317093 L 84.04848484848485 85.90606999160656 L 84.54545454545455 86.2265361300362 L 85.04242424242425 86.53602252762295 L 85.53939393939395 86.83047636557508 L 86.03636363636363 87.1068397117512 L 86.53333333333333 87.36518087063185 L 87.03030303030303 87.60683708152169 L 87.52727272727273 87.83135856812633 L 88.02424242424243 88.03597413935933 L 88.52121212121212 88.21818384741657 L 89.01818181818182 88.37856621443102 L 89.51515151515152 88.52079375641279 L 90.01212121212122 88.64899227255961 L 90.50909090909092 88.76534467078262 L 91.0060606060606 88.87029248870013 L 91.5030303030303 88.96470021986573" fill="rgb( 40, 70,200)" style="stroke:none"/>
    </g>
</svg>
