<svg version="1.1" xmlns="http://www.w3.org/2000/svg" width="128" height="128" data-icon="pdf-128" class="iconning iconning-pdf-128" viewBox="0 0 128 128" id="pdf128">
    <g class="iconning-metadata">
        <title>Probability Density Function Chart</title>
    </g>
    <g class="iconning-container" data-width="128" data-height="128">
        <!-- Axes -->
        <line stroke="rgb(  0,  0,  0)" stroke-width="3.0" stroke-linecap="butt" class="iconning iconning-grid-lines-axes" x1="4.5" y1="125.0" x2="4.5" y2="5.0"/>
        <line stroke="rgb(  0,  0,  0)" stroke-width="3.0" stroke-linecap="butt" class="iconning iconning-grid-lines-axes" x1="3.0" y1="123.5" x2="125.0" y2="123.5"/>
        <!-- Major Tick Marks -->
        <line stroke="rgb(  0,  0,  0)" stroke-width="3.0" stroke-linecap="butt" class="iconning iconning-grid-lines-tick-marks iconning-grid-lines-tick-major" x1="6.0" y1="105.5" x2="12.0" y2="105.5"/>
        <line stroke="rgb(  0,  0,  0)" stroke-width="3.0" stroke-linecap="butt" class="iconning iconning-grid-lines-tick-marks iconning-grid-lines-tick-major" x1="6.0" y1="87.5" x2="12.0" y2="87.5"/>
        <line stroke="rgb(  0,  0,  0)" stroke-width="3.0" stroke-linecap="butt" class="iconning iconning-grid-lines-tick-marks iconning-grid-lines-tick-major" x1="6.0" y1="69.5" x2="12.0" y2="69.5"/>
        <line stroke="rgb(  0,  0,  0)" stroke-width="3.0" stroke-linecap="butt" class="iconning iconning-grid-lines-tick-marks iconning-grid-lines-tick-major" x1="6.0" y1="51.5" x2="12.0" y2="51.5"/>
        <line stroke="rgb(  0,  0,  0)" stroke-width="3.0" stroke-linecap="butt" class="iconning iconning-grid-lines-tick-marks iconning-grid-lines-tick-major" x1="6.0" y1="33.5" x2="12.0" y2="33.5"/>
        <line stroke="rgb(  0,  0,  0)" stroke-width="3.0" stroke-linecap="butt" class="iconning iconning-grid-lines-tick-marks iconning-grid-lines-tick-major" x1="6.0" y1="15.5" x2="12.0" y2="15.5"/>
        <!-- Minor Tick Marks -->
        <line stroke="rgb(  0,  0,  0)" stroke-width="3.0" stroke-linecap="butt" class="iconning iconning-grid-lines-tick-marks iconning-grid-lines-tick-minor" x1="6.0" y1="114.5" x2="9.0" y2="114.5"/>
        <line stroke="rgb(  0,  0,  0)" stroke-width="3.0" stroke-linecap="butt" class="iconning iconning-grid-lines-tick-marks iconning-grid-lines-tick-minor" x1="6.0" y1="96.5" x2="9.0" y2="96.5"/>
        <line stroke="rgb(  0,  0,  0)" stroke-width="3.0" stroke-linecap="butt" class="iconning iconning-grid-lines-tick-marks iconning-grid-lines-tick-minor" x1="6.0" y1="78.5" x2="9.0" y2="78.5"/>
        <line stroke="rgb(  0,  0,  0)" stroke-width="3.0" stroke-linecap="butt" class="iconning iconning-grid-lines-tick-marks iconning-grid-lines-tick-minor" x1="6.0" y1="60.5" x2="9.0" y2="60.5"/>
        <line stroke="rgb(  0,  0,  0)" stroke-width="3.0" stroke-linecap="butt" class="iconning iconning-grid-lines-tick-marks iconning-grid-lines-tick-minor" x1="6.0" y1="42.5" x2="9.0" y2="42.5"/>
        <line stroke="rgb(  0,  0,  0)" stroke-width="3.0" stroke-linecap="butt" class="iconning iconning-grid-lines-tick-marks iconning-grid-lines-tick-minor" x1="6.0" y1="24.5" x2="9.0" y2="24.5"/>
        <line stroke="rgb(  0,  0,  0)" stroke-width="3.0" stroke-linecap="butt" class="iconning iconning-grid-lines-tick-marks iconning-grid-lines-tick-minor" x1="6.0" y1="6.5" x2="9.0" y2="6.5"/>
        <!-- PDF Polygon -->
        <path class="iconning iconning-pdf iconning-pdf-128 iconning-accent-1" d="M 15.0 117.86717031893679 L 15.497674418604651 117.7822630272586 L 15.995348837209303 117.68757801115231 L 16.493023255813952 117.57691432993131 L 16.990697674418605 117.44458061081386 L 17.488372093023255 117.28779782021024 L 17.986046511627908 117.10842037358965 L 18.483720930232558 116.91283653977176 L 18.98139534883721 116.709651141211 L 19.47906976744186 116.50596813938353 L 19.97674418604651 116.30402061643845 L 20.474418604651163 116.09986469393483 L 20.972093023255816 115.88480325284115 L 21.469767441860466 115.64876304937434 L 21.967441860465115 115.38389584107198 L 22.46511627906977 115.0867603334198 L 22.962790697674418 114.75845106770991 L 23.460465116279067 114.40327955167965 L 23.95813953488372 114.02725173430694 L 24.455813953488374 113.63721397183846 L 24.953488372093023 113.2405057637686 L 25.451162790697673 112.84418132957697 L 25.948837209302326 112.45311439882717 L 26.44651162790698 112.06746630061653 L 26.94418604651163 111.68105049351689 L 27.441860465116278 111.28200804579525 L 27.93953488372093 110.855859661853 L 28.43720930232558 110.38949738651178 L 28.93488372093023 109.87425139149643 L 29.432558139534883 109.30704439216768 L 29.930232558139537 108.6899097353066 L 30.427906976744186 108.02871067047207 L 30.925581395348836 107.33155679563518 L 31.42325581395349 106.60689715804824 L 31.92093023255814 105.86130480148086 L 32.418604651162795 105.0974728272173 L 32.91627906976744 104.31322314309172 L 33.413953488372094 103.50196020223473 L 33.91162790697675 102.65431016694222 L 34.40930232558139 101.76031149297194 L 34.906976744186046 100.81166217603855 L 35.4046511627907 99.80378138504145 L 35.902325581395345 98.73737873188817 L 36.4 97.61892957425357 L 36.89767441860465 96.45942841533461 L 37.3953488372093 95.27136190624917 L 37.89302325581396 94.06476455641692 L 38.390697674418604 92.8438648721356 L 38.88837209302326 91.60573355157788 L 39.38604651162791 90.34156510291743 L 39.883720930232556 89.040184233179 L 40.38139534883721 87.69247941907219 L 40.87906976744186 86.29500070808075 L 41.37674418604651 84.85116968006142 L 41.87441860465116 83.36956575870866 L 42.372093023255815 81.86020466846774 L 42.86976744186046 80.33073027937513 L 43.36744186046512 78.78429793727081 L 43.86511627906977 77.21981292210339 L 44.36279069767442 75.63397960484312 L 44.86046511627907 74.02401321352397 L 45.35813953488372 72.38985614781966 L 45.85581395348837 70.7349662138799 L 46.353488372093025 69.06513305173635 L 46.85116279069767 67.38555753579234 L 47.348837209302324 65.69751541952378 L 47.84651162790698 63.99660216160425 L 48.34418604651163 62.27402717199197 L 48.84186046511628 60.52074516135001 L 49.33953488372093 58.73245526452742 L 49.83720930232558 56.91289456987248 L 50.334883720930236 55.07376778188953 L 50.83255813953488 53.231426005252985 L 51.330232558139535 51.4019975143912 L 51.82790697674419 49.59732874513607 L 52.325581395348834 47.823532152565605 L 52.82325581395349 46.08235074583463 L 53.32093023255814 44.37373565414151 L 53.818604651162794 42.69727659714836 L 54.31627906976744 41.051294555293666 L 54.81395348837209 39.430828760161006 L 55.311627906976746 37.82733541438252 L 55.80930232558139 36.231982501900674 L 56.306976744186045 34.64150029779255 L 56.8046511627907 33.06302261048599 L 57.30232558139535 31.51428085776395 L 57.8 30.01794068270165 L 58.29767441860465 28.592208461730962 L 58.7953488372093 27.24226023945505 L 59.29302325581396 25.957353910566496 L 59.7906976744186 24.71624117313273 L 60.288372093023256 23.499263824386446 L 60.78604651162791 22.301195849273427 L 61.283720930232555 21.137247380286496 L 61.78139534883721 20.037613960738767 L 62.27906976744186 19.03264254824552 L 62.776744186046514 18.137037191501122 L 63.27441860465116 17.342811299126552 L 63.77209302325581 16.62542089557077 L 64.26976744186047 15.959221051834504 L 64.76744186046511 15.333013602926513 L 65.26511627906976 14.757378473245979 L 65.76279069767442 14.261029857072941 L 66.26046511627908 13.879126332710499 L 66.75813953488372 13.639182096756585 L 67.25581395348837 13.550000000000011 L 67.75348837209302 13.597404521856262 L 68.25116279069768 13.748333835267744 L 68.74883720930232 13.962029581696441 L 69.24651162790698 14.20408756440493 L 69.74418604651163 14.457518896856726 L 70.24186046511628 14.726164720533617 L 70.73953488372092 15.02955868706887 L 71.23720930232558 15.39249381153624 L 71.73488372093024 15.834684448934269 L 72.23255813953489 16.36510959118523 L 72.73023255813953 16.982789352669442 L 73.22790697674418 17.682466660828354 L 73.72558139534884 18.461240827117166 L 74.22325581395349 19.321671236630365 L 74.72093023255815 20.26898468269657 L 75.21860465116279 21.30419503269384 L 75.71627906976744 22.41850364850832 L 76.21395348837208 23.594083250346486 L 76.71162790697674 24.81173164276197 L 77.2093023255814 26.060385602549985 L 77.70697674418605 27.34179208477657 L 78.2046511627907 28.667247817742577 L 78.70232558139534 30.0491588203124 L 79.2 31.493511961470887 L 79.69767441860465 32.997925294339154 L 80.19534883720931 34.55539177821588 L 80.69302325581396 36.15981101027816 L 81.1906976744186 37.80863248666974 L 81.68837209302326 39.5005539738804 L 82.18604651162791 41.230173611656355 L 82.68372093023255 42.984075002888616 L 83.18139534883721 44.74225985237116 L 83.67906976744186 46.48531770658607 L 84.1767441860465 48.20347612051731 L 84.67441860465117 49.90178596259018 L 85.17209302325581 51.59781529759796 L 85.66976744186047 53.31294379734261 L 86.16744186046512 55.06212951663549 L 86.66511627906976 56.84725391807124 L 87.16279069767442 58.656360946640916 L 87.66046511627907 60.46797622279513 L 88.15813953488372 62.25819994155713 L 88.65581395348838 64.00820651352049 L 89.15348837209302 65.7099810129329 L 89.65116279069767 67.36831353219344 L 90.14883720930233 68.99801880256479 L 90.64651162790697 70.61736576984507 L 91.14418604651163 72.24075251959881 L 91.64186046511628 73.87417439556569 L 92.13953488372093 75.51541332886805 L 92.63720930232559 77.15807590667634 L 93.13488372093023 78.79638229067481 L 93.63255813953488 80.42733417402933 L 94.13023255813954 82.04879134373232 L 94.62790697674419 83.65498381197892 L 95.12558139534883 85.23314746758183 L 95.62325581395349 86.76460634356465 L 96.12093023255814 88.23065156603799 L 96.61860465116278 89.61999581517796 L 97.11627906976744 90.93318948332325 L 97.61395348837209 92.18135021765902 L 98.11162790697675 93.38029566337391 L 98.6093023255814 94.54372128785386 L 99.10697674418604 95.67877884246138 L 99.6046511627907 96.78520604984828 L 100.10232558139535 97.8572146691952 L 100.6 98.88683205183978 L 101.09767441860465 99.86770654468143 L 101.5953488372093 100.79842494216314 L 102.09302325581395 101.68406756531158 L 102.5906976744186 102.53494492828185 L 103.08837209302325 103.36275558466099 L 103.58604651162791 104.17604517735943 L 104.08372093023256 104.97744294417872 L 104.5813953488372 105.7640550124971 L 105.07906976744187 106.53036766134204 L 105.57674418604651 107.27156199149525 L 106.07441860465116 107.9852308838094 L 106.57209302325582 108.6708571846775 L 107.06976744186046 109.32794365236501 L 107.56744186046511 109.95436271701688 L 108.06511627906977 110.54607638087765 L 108.56279069767442 111.09837245744285 L 109.06046511627908 111.60789736707456 L 109.55813953488372 112.07445232927715 L 110.05581395348837 112.50172383994702 L 110.55348837209303 112.89658533795046 L 111.05116279069767 113.26713958444736 L 111.54883720930232 113.62018792588317 L 112.04651162790698 113.95918996135244 L 112.54418604651163 114.28375541799383 L 113.04186046511627 114.59106833472809 L 113.53953488372093 114.87854664466919 L 114.03720930232558 115.14615792200375 L 114.53488372093024 115.39690007211661 L 115.03255813953488 115.63513937521886 L 115.53023255813953 115.86398586949029 L 116.02790697674419 116.0835466146922 L 116.52558139534884 116.29122933567437 L 117.02325581395348 116.48381517928684 L 117.52093023255814 116.65986078832748 L 118.01860465116279 116.8208758867069 L 118.51627906976744 116.97060963153564 L 119.0139534883721 117.11300129775216 L 119.51162790697674 117.25012267507805 L 120.0093023255814 117.38133045583372 L 120.50697674418605 117.50401074789643 L 121.0046511627907 117.61533657267073 L 121.50232558139535 117.71398264847124" fill="rgb( 40, 70,200)" style="stroke:none"/>
    </g>
</svg>
