<svg version="1.1" xmlns="http://www.w3.org/2000/svg" width="32" height="32" data-icon="pdf-32" class="iconning iconning-pdf-32" viewBox="0 0 32 32" id="pdf32">
    <g class="iconning-metadata">
        <title>Probability Density Function Chart</title>
    </g>
    <g class="iconning-container" data-width="32" data-height="32">
        <!-- Axes -->
        <line stroke="rgb(  0,  0,  0)" stroke-width="1.0" stroke-linecap="butt" class="iconning iconning-grid-lines-axes" x1="1.5" y1="31.0" x2="1.5" y2="3.0"/>
        <line stroke="rgb(  0,  0,  0)" stroke-width="1.0" stroke-linecap="butt" class="iconning iconning-grid-lines-axes" x1="1.0" y1="30.5" x2="31.0" y2="30.5"/>
        <!-- Major Tick Marks -->
        <line stroke="rgb(  0,  0,  0)" stroke-width="1.0" stroke-linecap="butt" class="iconning iconning-grid-lines-tick-marks iconning-grid-lines-tick-major" x1="2.0" y1="24.5" x2="4.0" y2="24.5"/>
        <line stroke="rgb(  0,  0,  0)" stroke-width="1.0" stroke-linecap="butt" class="iconning iconning-grid-lines-tick-marks iconning-grid-lines-tick-major" x1="2.0" y1="18.5" x2="4.0" y2="18.5"/>
        <line stroke="rgb(  0,  0,  0)" stroke-width="1.0" stroke-linecap="butt" class="iconning iconning-grid-lines-tick-marks iconning-grid-lines-tick-major" x1="2.0" y1="12.5" x2="4.0" y2="12.5"/>
        <line stroke="rgb(  0,  0,  0)" stroke-width="1.0" stroke-linecap="butt" class="iconning iconning-grid-lines-tick-marks iconning-grid-lines-tick-major" x1="2.0" y1="6.5" x2="4.0" y2="6.5"/>
        <!-- Minor Tick Marks -->
        <line stroke="rgb(  0,  0,  0)" stroke-width="1.0" stroke-linecap="butt" class="iconning iconning-grid-lines-tick-marks iconning-grid-lines-tick-minor" x1="2.0" y1="27.5" x2="3.0" y2="27.5"/>
        <line stroke="rgb(  0,  0,  0)" stroke-width="1.0" stroke-linecap="butt" class="iconning iconning-grid-lines-tick-marks iconning-grid-lines-tick-minor" x1="2.0" y1="21.5" x2="3.0" y2="21.5"/>
        <line stroke="rgb(  0,  0,  0)" stroke-width="1.0" stroke-linecap="butt" class="iconning iconning-grid-lines-tick-marks iconning-grid-lines-tick-minor" x1="2.0" y1="15.5" x2="3.0" y2="15.5"/>
        <line stroke="rgb(  0,  0,  0)" stroke-width="1.0" stroke-linecap="butt" class="iconning iconning-grid-lines-tick-marks iconning-grid-lines-tick-minor" x1="2.0" y1="9.5" x2="3.0" y2="9.5"/>
        <line stroke="rgb(  0,  0,  0)" stroke-width="1.0" stroke-linecap="butt" class="iconning iconning-grid-lines-tick-marks iconning-grid-lines-tick-minor" x1="2.0" y1="3.5" x2="3.0" y2="3.5"/>
        <!-- PDF Polygon -->
        <path class="iconning iconning-pdf iconning-pdf-32 iconning-accent-1" d="M 5.0 28.707282237994075 L 5.490196078431373 28.617125964807293 L 5.980392156862745 28.463175549728355 L 6.470588235294118 28.254311093039572 L 6.96078431372549 27.98489293720382 L 7.450980392156863 27.635168576759384 L 7.9411764705882355 27.222414376441552 L 8.431372549019608 26.66878781167712 L 8.92156862745098 25.963460253220497 L 9.411764705882353 25.182023606274345 L 9.901960784313726 24.250821088834634 L 10.392156862745098 23.139281088539278 L 10.882352941176471 21.942114167868077 L 11.372549019607842 20.53307411914147 L 11.862745098039216 18.88205296098849 L 12.352941176470587 17.14459624957182 L 12.843137254901961 15.351220377056467 L 13.333333333333334 13.63791178347917 L 13.823529411764707 11.990494954925591 L 14.313725490196079 10.540866235839285 L 14.803921568627452 9.3112347373898 L 15.294117647058824 8.012046063775177 L 15.784313725490197 6.7435843172657535 L 16.274509803921568 5.888006109359743 L 16.764705882352942 5.401384919825453 L 17.254901960784316 5.25 L 17.745098039215684 5.416743226761252 L 18.235294117647058 5.837778607650542 L 18.725490196078432 6.546072730624029 L 19.215686274509803 7.632616085580246 L 19.705882352941174 8.972302090295251 L 20.19607843137255 10.363890748041726 L 20.686274509803923 11.94136692878233 L 21.176470588235293 13.83344956334546 L 21.666666666666668 15.754360229710246 L 22.15686274509804 17.469199122542257 L 22.647058823529413 19.128931422516537 L 23.137254901960784 20.746176081507755 L 23.627450980392158 22.11720536841037 L 24.11764705882353 23.258425633385034 L 24.607843137254903 24.273326266869 L 25.098039215686274 25.193554420517508 L 25.58823529411765 26.000291180837095 L 26.07843137254902 26.714400812894816 L 26.568627450980394 27.264162923272497 L 27.058823529411764 27.625326183555707 L 27.54901960784314 27.90825299527815 L 28.03921568627451 28.174199678988792 L 28.529411764705884 28.38671297653795 L 29.019607843137255 28.562489562922867 L 29.50980392156863 28.687310848476105" fill="rgb( 40, 70,200)" style="stroke:none"/>
    </g>
</svg>
