<svg version="1.1" xmlns="http://www.w3.org/2000/svg" width="48" height="48" data-icon="pdf-48" class="iconning iconning-pdf-48" viewBox="0 0 48 48" id="pdf48">
    <g class="iconning-metadata">
        <title>Probability Density Function Chart</title>
    </g>
    <g class="iconning-container" data-width="48" data-height="48">
        <!-- Axes -->
        <line stroke="rgb(  0,  0,  0)" stroke-width="1.0" stroke-linecap="butt" class="iconning iconning-grid-lines-axes" x1="1.5" y1="47.0" x2="1.5" y2="1.0"/>
        <line stroke="rgb(  0,  0,  0)" stroke-width="1.0" stroke-linecap="butt" class="iconning iconning-grid-lines-axes" x1="1.0" y1="46.5" x2="47.0" y2="46.5"/>
        <!-- Major Tick Marks -->
        <line stroke="rgb(  0,  0,  0)" stroke-width="1.0" stroke-linecap="butt" class="iconning iconning-grid-lines-tick-marks iconning-grid-lines-tick-major" x1="2.0" y1="40.5" x2="4.0" y2="40.5"/>
        <line stroke="rgb(  0,  0,  0)" stroke-width="1.0" stroke-linecap="butt" class="iconning iconning-grid-lines-tick-marks iconning-grid-lines-tick-major" x1="2.0" y1="34.5" x2="4.0" y2="34.5"/>
        <line stroke="rgb(  0,  0,  0)" stroke-width="1.0" stroke-linecap="butt" class="iconning iconning-grid-lines-tick-marks iconning-grid-lines-tick-major" x1="2.0" y1="28.5" x2="4.0" y2="28.5"/>
        <line stroke="rgb(  0,  0,  0)" stroke-width="1.0" stroke-linecap="butt" class="iconning iconning-grid-lines-tick-marks iconning-grid-lines-tick-major" x1="2.0" y1="22.5" x2="4.0" y2="22.5"/>
        <line stroke="rgb(  0,  0,  0)" stroke-width="1.0" stroke-linecap="butt" class="iconning iconning-grid-lines-tick-marks iconning-grid-lines-tick-major" x1="2.0" y1="16.5" x2="4.0" y2="16.5"/>
        <line stroke="rgb(  0,  0,  0)" stroke-width="1.0" stroke-linecap="butt" class="iconning iconning-grid-lines-tick-marks iconning-grid-lines-tick-major" x1="2.0" y1="10.5" x2="4.0" y2="10.5"/>
        <line stroke="rgb(  0,  0,  0)" stroke-width="1.0" stroke-linecap="butt" class="iconning iconning-grid-lines-tick-marks iconning-grid-lines-tick-major" x1="2.0" y1="4.5" x2="4.0" y2="4.5"/>
        <!-- Minor Tick Marks -->
        <line stroke="rgb(  0,  0,  0)" stroke-width="1.0" stroke-linecap="butt" class="iconning iconning-grid-lines-tick-marks iconning-grid-lines-tick-minor" x1="2.0" y1="43.5" x2="3.0" y2="43.5"/>
        <line stroke="rgb(  0,  0,  0)" stroke-width="1.0" stroke-linecap="butt" class="iconning iconning-grid-lines-tick-marks iconning-grid-lines-tick-minor" x1="2.0" y1="37.5" x2="3.0" y2="37.5"/>
        <line stroke="rgb(  0,  0,  0)" stroke-width="1.0" stroke-linecap="butt" class="iconning iconning-grid-lines-tick-marks iconning-grid-lines-tick-minor" x1="2.0" y1="31.5" x2="3.0" y2="31.5"/>
        <line stroke="rgb(  0,  0,  0)" stroke-width="1.0" stroke-linecap="butt" class="iconning iconning-grid-lines-tick-marks iconning-grid-lines-tick-minor" x1="2.0" y1="25.5" x2="3.0" y2="25.5"/>
        <line stroke="rgb(  0,  0,  0)" stroke-width="1.0" stroke-linecap="butt" class="iconning iconning-grid-lines-tick-marks iconning-grid-lines-tick-minor" x1="2.0" y1="19.5" x2="3.0" y2="19.5"/>
        <line stroke="rgb(  0,  0,  0)" stroke-width="1.0" stroke-linecap="butt" class="iconning iconning-grid-lines-tick-marks iconning-grid-lines-tick-minor" x1="2.0" y1="13.5" x2="3.0" y2="13.5"/>
        <line stroke="rgb(  0,  0,  0)" stroke-width="1.0" stroke-linecap="butt" class="iconning iconning-grid-lines-tick-marks iconning-grid-lines-tick-minor" x1="2.0" y1="7.5" x2="3.0" y2="7.5"/>
        <line stroke="rgb(  0,  0,  0)" stroke-width="1.0" stroke-linecap="butt" class="iconning iconning-grid-lines-tick-marks iconning-grid-lines-tick-minor" x1="2.0" y1="1.5" x2="3.0" y2="1.5"/>
        <!-- PDF Polygon -->
        <path class="iconning iconning-pdf iconning-pdf-48 iconning-accent-1" d="M 5.0 44.510675063238665 L 5.493975903614458 44.41175603467959 L 5.9879518072289155 44.26557913344891 L 6.481927710843373 44.07458567624033 L 6.975903614457831 43.86720012506456 L 7.46987951807229 43.64757308931153 L 7.9638554216867465 43.3831981654493 L 8.457831325301205 43.056353161464436 L 8.951807228915662 42.69101817720076 L 9.44578313253012 42.30610900764313 L 9.93975903614458 41.860299997806166 L 10.433734939759036 41.287805795335125 L 10.927710843373493 40.58783081394963 L 11.421686746987952 39.83275165712022 L 11.91566265060241 39.06763405906818 L 12.409638554216867 38.232139586736295 L 12.903614457831324 37.23472084192579 L 13.397590361445783 36.08595284295363 L 13.891566265060241 34.89220378361165 L 14.385542168674698 33.70777971800967 L 14.879518072289157 32.44174080361795 L 15.373493975903614 30.969164723391373 L 15.867469879518072 29.302429136300894 L 16.36144578313253 27.554285288755757 L 16.855421686746986 25.766879746216013 L 17.34939759036145 23.893453868018923 L 17.843373493975903 21.946576290029114 L 18.337349397590362 20.037751945906404 L 18.83132530120482 18.2505831279955 L 19.325301204819276 16.593469941661397 L 19.819277108433734 15.063686217301552 L 20.313253012048193 13.638550037526866 L 20.807228915662648 12.238630767367987 L 21.301204819277107 10.805611596267838 L 21.795180722891565 9.339731079210118 L 22.289156626506024 7.88110361360804 L 22.783132530120483 6.5814659123029315 L 23.27710843373494 5.59355977783612 L 23.771084337349397 4.877876832186594 L 24.265060240963855 4.367128337211341 L 24.759036144578314 4.149999999999999 L 25.253012048192772 4.278253901805854 L 25.746987951807228 4.600420075483399 L 26.240963855421686 4.9587396117748455 L 26.734939759036145 5.35552489926873 L 27.228915662650603 5.874769043902141 L 27.72289156626506 6.619770730463323 L 28.216867469879517 7.660886617218161 L 28.710843373493976 8.949590737835628 L 29.204819277108435 10.363020207395664 L 29.698795180722893 11.823618254288434 L 30.19277108433735 13.344778580059213 L 30.686746987951807 14.982518021663136 L 31.180722891566266 16.753812040325215 L 31.674698795180724 18.6261620958347 L 32.16867469879518 20.533367754372104 L 32.66265060240964 22.369957394640704 L 33.1566265060241 24.07712322533558 L 33.65060240963855 25.74272602589752 L 34.14457831325301 27.481855623406403 L 34.63855421686747 29.256870668844222 L 35.13253012048193 30.955154031290483 L 35.626506024096386 32.51497483046771 L 36.12048192771084 33.89940674252678 L 36.614457831325296 35.11421817048483 L 37.10843373493976 36.22979978241014 L 37.602409638554214 37.280568938301585 L 38.096385542168676 38.22368275261256 L 38.59036144578313 39.04854141360021 L 39.08433734939759 39.81990264960471 L 39.57831325301205 40.57753945426273 L 40.0722891566265 41.28539404389851 L 40.566265060240966 41.88638834254675 L 41.06024096385542 42.35798394842833 L 41.55421686746988 42.730801313992075 L 42.04819277108434 43.059265127685805 L 42.54216867469879 43.36655604118598 L 43.036144578313255 43.64166688817108 L 43.53012048192771 43.876190996589486 L 44.024096385542165 44.07580360685535 L 44.51807228915663 44.24841849599287 L 45.01204819277108 44.39164519389209 L 45.506024096385545 44.4973287374362" fill="rgb( 40, 70,200)" style="stroke:none"/>
    </g>
</svg>
