<svg version="1.1" xmlns="http://www.w3.org/2000/svg" width="40" height="40" data-icon="pdf-40" class="iconning iconning-pdf-40" viewBox="0 0 40 40" id="pdf40">
    <g class="iconning-metadata">
        <title>Probability Density Function Chart</title>
    </g>
    <g class="iconning-container" data-width="40" data-height="40">
        <!-- Axes -->
        <line stroke="rgb(  0,  0,  0)" stroke-width="1.0" stroke-linecap="butt" class="iconning iconning-grid-lines-axes" x1="1.5" y1="39.0" x2="1.5" y2="2.0"/>
        <line stroke="rgb(  0,  0,  0)" stroke-width="1.0" stroke-linecap="butt" class="iconning iconning-grid-lines-axes" x1="1.0" y1="38.5" x2="39.0" y2="38.5"/>
        <!-- Major Tick Marks -->
        <line stroke="rgb(  0,  0,  0)" stroke-width="1.0" stroke-linecap="butt" class="iconning iconning-grid-lines-tick-marks iconning-grid-lines-tick-major" x1="2.0" y1="32.5" x2="4.0" y2="32.5"/>
        <line stroke="rgb(  0,  0,  0)" stroke-width="1.0" stroke-linecap="butt" class="iconning iconning-grid-lines-tick-marks iconning-grid-lines-tick-major" x1="2.0" y1="26.5" x2="4.0" y2="26.5"/>
        <line stroke="rgb(  0,  0,  0)" stroke-width="1.0" stroke-linecap="butt" class="iconning iconning-grid-lines-tick-marks iconning-grid-lines-tick-major" x1="2.0" y1="20.5" x2="4.0" y2="20.5"/>
        <line stroke="rgb(  0,  0,  0)" stroke-width="1.0" stroke-linecap="butt" class="iconning iconning-grid-lines-tick-marks iconning-grid-lines-tick-major" x1="2.0" y1="14.5" x2="4.0" y2="14.5"/>
        <line stroke="rgb(  0,  0,  0)" stroke-width="1.0" stroke-linecap="butt" class="iconning iconning-grid-lines-tick-marks iconning-grid-lines-tick-major" x1="2.0" y1="8.5" x2="4.0" y2="8.5"/>
        <line stroke="rgb(  0,  0,  0)" stroke-width="1.0" stroke-linecap="butt" class="iconning iconning-grid-lines-tick-marks iconning-grid-lines-tick-major" x1="2.0" y1="2.5" x2="4.0" y2="2.5"/>
        <!-- Minor Tick Marks -->
        <line stroke="rgb(  0,  0,  0)" stroke-width="1.0" stroke-linecap="butt" class="iconning iconning-grid-lines-tick-marks iconning-grid-lines-tick-minor" x1="2.0" y1="35.5" x2="3.0" y2="35.5"/>
        <line stroke="rgb(  0,  0,  0)" stroke-width="1.0" stroke-linecap="butt" class="iconning iconning-grid-lines-tick-marks iconning-grid-lines-tick-minor" x1="2.0" y1="29.5" x2="3.0" y2="29.5"/>
        <line stroke="rgb(  0,  0,  0)" stroke-width="1.0" stroke-linecap="butt" class="iconning iconning-grid-lines-tick-marks iconning-grid-lines-tick-minor" x1="2.0" y1="23.5" x2="3.0" y2="23.5"/>
        <line stroke="rgb(  0,  0,  0)" stroke-width="1.0" stroke-linecap="butt" class="iconning iconning-grid-lines-tick-marks iconning-grid-lines-tick-minor" x1="2.0" y1="17.5" x2="3.0" y2="17.5"/>
        <line stroke="rgb(  0,  0,  0)" stroke-width="1.0" stroke-linecap="butt" class="iconning iconning-grid-lines-tick-marks iconning-grid-lines-tick-minor" x1="2.0" y1="11.5" x2="3.0" y2="11.5"/>
        <line stroke="rgb(  0,  0,  0)" stroke-width="1.0" stroke-linecap="butt" class="iconning iconning-grid-lines-tick-marks iconning-grid-lines-tick-minor" x1="2.0" y1="5.5" x2="3.0" y2="5.5"/>
        <!-- PDF Polygon -->
        <path class="iconning iconning-pdf iconning-pdf-40 iconning-accent-1" d="M 5.0 36.59344338486461 L 5.492537313432836 36.503853303201396 L 5.985074626865671 36.36043456116322 L 6.477611940298507 36.162671836188856 L 6.970149253731343 35.94208820575822 L 7.462686567164178 35.68037943450002 L 7.955223880597015 35.351257156560614 L 8.447761194029852 34.97846982405392 L 8.940298507462686 34.54995186028118 L 9.432835820895523 33.99096005898446 L 9.925373134328357 33.29888825365336 L 10.417910447761194 32.56026325961466 L 10.91044776119403 31.772656389513806 L 11.402985074626866 30.82025494085515 L 11.895522388059701 29.67716159022421 L 12.388059701492537 28.450501198171153 L 12.880597014925373 27.14937864074388 L 13.373134328358208 25.640082561124792 L 13.865671641791044 23.950904562715408 L 14.35820895522388 22.242079919870044 L 14.850746268656716 20.470633741531238 L 15.343283582089553 18.595352974218432 L 15.835820895522389 16.776286056780673 L 16.328358208955223 15.068174836780884 L 16.82089552238806 13.456480954366903 L 17.313432835820898 11.990301148735416 L 17.80597014925373 10.626298538853657 L 18.298507462686565 9.276285120937263 L 18.791044776119403 7.90070033828307 L 19.28358208955224 6.623285126604014 L 19.776119402985074 5.656491245851345 L 20.268656716417908 5.008586383083376 L 20.761194029850746 4.700000000000003 L 21.253731343283583 4.749858184230746 L 21.746268656716417 4.947628477405502 L 22.238805970149254 5.2264762087534 L 22.73134328358209 5.70786080103824 L 23.223880597014926 6.456234965882931 L 23.71641791044776 7.522701012206159 L 24.208955223880597 8.835384961166604 L 24.70149253731343 10.223871210373655 L 25.19402985074627 11.633140793731112 L 25.686567164179106 13.210605169412542 L 26.17910447761194 15.07708962838489 L 26.671641791044777 17.090946572284025 L 27.16417910447761 18.987205612450953 L 27.65671641791045 20.66177393041038 L 28.149253731343283 22.301999915079342 L 28.64179104477612 24.0720554023412 L 29.134328358208954 25.826161269189083 L 29.62686567164179 27.377849985891842 L 30.119402985074625 28.652148387585825 L 30.611940298507463 29.71744596643885 L 31.104477611940297 30.716761337842108 L 31.597014925373134 31.647023374575525 L 32.08955223880597 32.47782586741316 L 32.582089552238806 33.26114742423562 L 33.07462686567165 33.98543018814296 L 33.56716417910448 34.583429796295675 L 34.059701492537314 35.029327436798525 L 34.55223880597015 35.36859027068915 L 35.04477611940298 35.6727271481622 L 35.537313432835816 35.94267485668774 L 36.02985074626866 36.15811558303022 L 36.52238805970149 36.339515136485524 L 37.014925373134325 36.490752124232365 L 37.507462686567166 36.59366481899202" fill="rgb( 40, 70,200)" style="stroke:none"/>
    </g>
</svg>
