<svg version="1.1" xmlns="http://www.w3.org/2000/svg" width="64" height="64" data-icon="pdf-64" class="iconning iconning-pdf-64" viewBox="0 0 64 64" id="pdf64">
    <g class="iconning-metadata">
        <title>Probability Density Function Chart</title>
    </g>
    <g class="iconning-container" data-width="64" data-height="64">
        <!-- Axes -->
        <line stroke="rgb(  0,  0,  0)" stroke-width="2.0" stroke-linecap="butt" class="iconning iconning-grid-lines-axes" x1="3.0" y1="62.0" x2="3.0" y2="6.0"/>
        <line stroke="rgb(  0,  0,  0)" stroke-width="2.0" stroke-linecap="butt" class="iconning iconning-grid-lines-axes" x1="2.0" y1="61.0" x2="62.0" y2="61.0"/>
        <!-- Major Tick Marks -->
        <line stroke="rgb(  0,  0,  0)" stroke-width="2.0" stroke-linecap="butt" class="iconning iconning-grid-lines-tick-marks iconning-grid-lines-tick-major" x1="4.0" y1="49.0" x2="8.0" y2="49.0"/>
        <line stroke="rgb(  0,  0,  0)" stroke-width="2.0" stroke-linecap="butt" class="iconning iconning-grid-lines-tick-marks iconning-grid-lines-tick-major" x1="4.0" y1="37.0" x2="8.0" y2="37.0"/>
        <line stroke="rgb(  0,  0,  0)" stroke-width="2.0" stroke-linecap="butt" class="iconning iconning-grid-lines-tick-marks iconning-grid-lines-tick-major" x1="4.0" y1="25.0" x2="8.0" y2="25.0"/>
        <line stroke="rgb(  0,  0,  0)" stroke-width="2.0" stroke-linecap="butt" class="iconning iconning-grid-lines-tick-marks iconning-grid-lines-tick-major" x1="4.0" y1="13.0" x2="8.0" y2="13.0"/>
        <!-- Minor Tick Marks -->
        <line stroke="rgb(  0,  0,  0)" stroke-width="2.0" stroke-linecap="butt" class="iconning iconning-grid-lines-tick-marks iconning-grid-lines-tick-minor" x1="4.0" y1="55.0" x2="6.0" y2="55.0"/>
        <line stroke="rgb(  0,  0,  0)" stroke-width="2.0" stroke-linecap="butt" class="iconning iconning-grid-lines-tick-marks iconning-grid-lines-tick-minor" x1="4.0" y1="43.0" x2="6.0" y2="43.0"/>
        <line stroke="rgb(  0,  0,  0)" stroke-width="2.0" stroke-linecap="butt" class="iconning iconning-grid-lines-tick-marks iconning-grid-lines-tick-minor" x1="4.0" y1="31.0" x2="6.0" y2="31.0"/>
        <line stroke="rgb(  0,  0,  0)" stroke-width="2.0" stroke-linecap="butt" class="iconning iconning-grid-lines-tick-marks iconning-grid-lines-tick-minor" x1="4.0" y1="19.0" x2="6.0" y2="19.0"/>
        <line stroke="rgb(  0,  0,  0)" stroke-width="2.0" stroke-linecap="butt" class="iconning iconning-grid-lines-tick-marks iconning-grid-lines-tick-minor" x1="4.0" y1="7.0" x2="6.0" y2="7.0"/>
        <!-- PDF Polygon -->
        <path class="iconning iconning-pdf iconning-pdf-64 iconning-accent-1" d="M 10.0 57.444182325076646 L 10.495049504950495 57.34276256741852 L 10.990099009900991 57.20396698279159 L 11.485148514851485 57.02635537819985 L 11.98019801980198 56.83120368426804 L 12.475247524752476 56.64011621176937 L 12.97029702970297 56.446824464534494 L 13.465346534653465 56.21940478798193 L 13.96039603960396 55.93017329256761 L 14.455445544554456 55.58261646819256 L 14.950495049504951 55.20937287083022 L 15.445544554455445 54.833280360082 L 15.94059405940594 54.4278822418033 L 16.435643564356436 53.93315164496451 L 16.93069306930693 53.315195258677335 L 17.425742574257427 52.60187677661691 L 17.92079207920792 51.857472014787454 L 18.415841584158414 51.11683275580394 L 18.91089108910891 50.343034786414705 L 19.405940594059405 49.4607660633101 L 19.900990099009903 48.432846792399395 L 20.396039603960396 47.29848571885023 L 20.89108910891089 46.137140616398554 L 21.386138613861384 44.98982055930704 L 21.88118811881188 43.808013266677236 L 22.37623762376238 42.49317791760397 L 22.871287128712872 40.99863506036493 L 23.366336633663366 39.37205245202248 L 23.86138613861386 37.69296002084436 L 24.356435643564357 35.996213802159915 L 24.851485148514854 34.26308221451509 L 25.346534653465348 32.47339404869164 L 25.84158415841584 30.652184988847935 L 26.336633663366335 28.8503208168163 L 26.831683168316832 27.096110213866737 L 27.326732673267326 25.399081479296107 L 27.821782178217823 23.77838304167473 L 28.316831683168317 22.247331145804083 L 28.81188118811881 20.791249687867584 L 29.306930693069308 19.397568888520283 L 29.801980198019802 18.081952993993276 L 30.297029702970296 16.833997902242714 L 30.792079207920793 15.583310077383679 L 31.287128712871286 14.312956911478267 L 31.782178217821784 13.152074438195655 L 32.27722772277228 12.241381669753892 L 32.77227722772277 11.56775030775298 L 33.26732673267327 11.036105174483282 L 33.76237623762376 10.646293588395977 L 34.257425742574256 10.5 L 34.75247524752476 10.639441936583623 L 35.24752475247524 10.959203451317329 L 35.742574257425744 11.317100759306214 L 36.23762376237624 11.670536018508841 L 36.73267326732673 12.068274333898778 L 37.22772277227723 12.583534584309128 L 37.72277227722772 13.292096216451853 L 38.21782178217822 14.244282404938225 L 38.71287128712871 15.415147317716752 L 39.20792079207921 16.718958840285147 L 39.70297029702971 18.080874164259328 L 40.198019801980195 19.477041726590357 L 40.693069306930695 20.935223698484776 L 41.18811881188119 22.503245796296667 L 41.68316831683168 24.185987066672354 L 42.17821782178218 25.934389694549687 L 42.67326732673267 27.707588135421773 L 43.16831683168317 29.49064570269168 L 43.663366336633665 31.24931767065774 L 44.15841584158416 32.9364957229205 L 44.65346534653465 34.5584025797062 L 45.148514851485146 36.17937848822504 L 45.64356435643565 37.8369512452071 L 46.13861386138614 39.4979585291896 L 46.633663366336634 41.11155693765794 L 47.12871287128713 42.64327837004691 L 47.62376237623762 44.05074566171815 L 48.118811881188115 45.299424020841506 L 48.613861386138616 46.41387462111829 L 49.10891089108911 47.462356027036115 L 49.603960396039604 48.48562454833862 L 50.0990099009901 49.46637283766792 L 50.59405940594059 50.36874409223655 L 51.08910891089109 51.188686089777 L 51.584158415841586 51.95176347286469 L 52.07920792079208 52.67537792165001 L 52.57425742574257 53.353885224754364 L 53.06930693069307 53.97078165950454 L 53.56435643564357 54.50840909229672 L 54.05940594059406 54.95590006706815 L 54.554455445544555 55.32280883087433 L 55.04950495049505 55.6388520375293 L 55.54455445544554 55.9313799971132 L 56.039603960396036 56.20795475896372 L 56.53465346534654 56.462916372351664 L 57.02970297029703 56.690218549105786 L 57.524752475247524 56.8866129540187 L 58.01980198019802 57.05230746867582 L 58.51485148514851 57.19025650568275 L 59.00990099009901 57.3021285594798 L 59.504950495049506 57.390314162187316" fill="rgb( 40, 70,200)" style="stroke:none"/>
    </g>
</svg>
