<svg version="1.1" xmlns="http://www.w3.org/2000/svg" width="80" height="80" data-icon="pdf-80" class="iconning iconning-pdf-80" viewBox="0 0 80 80" id="pdf80">
    <g class="iconning-metadata">
        <title>Probability Density Function Chart</title>
    </g>
    <g class="iconning-container" data-width="80" data-height="80">
        <!-- Axes -->
        <line stroke="rgb(  0,  0,  0)" stroke-width="2.0" stroke-linecap="butt" class="iconning iconning-grid-lines-axes" x1="3.0" y1="78.0" x2="3.0" y2="4.0"/>
        <line stroke="rgb(  0,  0,  0)" stroke-width="2.0" stroke-linecap="butt" class="iconning iconning-grid-lines-axes" x1="2.0" y1="77.0" x2="78.0" y2="77.0"/>
        <!-- Major Tick Marks -->
        <line stroke="rgb(  0,  0,  0)" stroke-width="2.0" stroke-linecap="butt" class="iconning iconning-grid-lines-tick-marks iconning-grid-lines-tick-major" x1="4.0" y1="65.0" x2="8.0" y2="65.0"/>
        <line stroke="rgb(  0,  0,  0)" stroke-width="2.0" stroke-linecap="butt" class="iconning iconning-grid-lines-tick-marks iconning-grid-lines-tick-major" x1="4.0" y1="53.0" x2="8.0" y2="53.0"/>
        <line stroke="rgb(  0,  0,  0)" stroke-width="2.0" stroke-linecap="butt" class="iconning iconning-grid-lines-tick-marks iconning-grid-lines-tick-major" x1="4.0" y1="41.0" x2="8.0" y2="41.0"/>
        <line stroke="rgb(  0,  0,  0)" stroke-width="2.0" stroke-linecap="butt" class="iconning iconning-grid-lines-tick-marks iconning-grid-lines-tick-major" x1="4.0" y1="29.0" x2="8.0" y2="29.0"/>
        <line stroke="rgb(  0,  0,  0)" stroke-width="2.0" stroke-linecap="butt" class="iconning iconning-grid-lines-tick-marks iconning-grid-lines-tick-major" x1="4.0" y1="17.0" x2="8.0" y2="17.0"/>
        <line stroke="rgb(  0,  0,  0)" stroke-width="2.0" stroke-linecap="butt" class="iconning iconning-grid-lines-tick-marks iconning-grid-lines-tick-major" x1="4.0" y1="5.0" x2="8.0" y2="5.0"/>
        <!-- Minor Tick Marks -->
        <line stroke="rgb(  0,  0,  0)" stroke-width="2.0" stroke-linecap="butt" class="iconning iconning-grid-lines-tick-marks iconning-grid-lines-tick-minor" x1="4.0" y1="71.0" x2="6.0" y2="71.0"/>
        <line stroke="rgb(  0,  0,  0)" stroke-width="2.0" stroke-linecap="butt" class="iconning iconning-grid-lines-tick-marks iconning-grid-lines-tick-minor" x1="4.0" y1="59.0" x2="6.0" y2="59.0"/>
        <line stroke="rgb(  0,  0,  0)" stroke-width="2.0" stroke-linecap="butt" class="iconning iconning-grid-lines-tick-marks iconning-grid-lines-tick-minor" x1="4.0" y1="47.0" x2="6.0" y2="47.0"/>
        <line stroke="rgb(  0,  0,  0)" stroke-width="2.0" stroke-linecap="butt" class="iconning iconning-grid-lines-tick-marks iconning-grid-lines-tick-minor" x1="4.0" y1="35.0" x2="6.0" y2="35.0"/>
        <line stroke="rgb(  0,  0,  0)" stroke-width="2.0" stroke-linecap="butt" class="iconning iconning-grid-lines-tick-marks iconning-grid-lines-tick-minor" x1="4.0" y1="23.0" x2="6.0" y2="23.0"/>
        <line stroke="rgb(  0,  0,  0)" stroke-width="2.0" stroke-linecap="butt" class="iconning iconning-grid-lines-tick-marks iconning-grid-lines-tick-minor" x1="4.0" y1="11.0" x2="6.0" y2="11.0"/>
        <!-- PDF Polygon -->
        <path class="iconning iconning-pdf iconning-pdf-80 iconning-accent-1" d="M 10.0 73.28693710095895 L 10.496240601503759 73.19632863456695 L 10.992481203007518 73.08063970824085 L 11.488721804511279 72.92973456864378 L 11.984962406015038 72.74647521496965 L 12.481203007518797 72.54656733613368 L 12.977443609022556 72.3468018771868 L 13.473684210526315 72.150863960357 L 13.969924812030076 71.94554853404436 L 14.466165413533835 71.70969119044379 L 14.962406015037594 71.42615040708317 L 15.458646616541353 71.08833668414188 L 15.954887218045112 70.70162782315431 L 16.451127819548873 70.28176614179999 L 16.94736842105263 69.84799736187878 L 17.44360902255639 69.41069741585002 L 17.93984962406015 68.96125992064523 L 18.43609022556391 68.47354096511222 L 18.93233082706767 67.91802826789839 L 19.42857142857143 67.28075883147395 L 19.924812030075188 66.57421582062834 L 20.421052631578945 65.8292878078903 L 20.917293233082706 65.07013175412823 L 21.413533834586467 64.29068703686768 L 21.909774436090224 63.45344729062765 L 22.406015037593985 62.513075305444744 L 22.902255639097746 61.44795131808319 L 23.398496240601503 60.27751971598387 L 23.894736842105264 59.05202928606411 L 24.390977443609025 57.81953158675606 L 24.887218045112782 56.594053821437846 L 25.38345864661654 55.35060966436124 L 25.8796992481203 54.05002817926504 L 26.37593984962406 52.66897136295333 L 26.872180451127818 51.2069655078691 L 27.36842105263158 49.67009232972785 L 27.86466165413534 48.05841198393896 L 28.360902255639097 46.373984481154515 L 28.857142857142858 44.63339636914745 L 29.353383458646615 42.861988711901844 L 29.849624060150376 41.07517144360346 L 30.345864661654137 39.27305142202233 L 30.842105263157894 37.4571723087678 L 31.338345864661655 35.64673530307317 L 31.834586466165412 33.87210785841377 L 32.330827067669176 32.15358270150959 L 32.82706766917293 30.488685488087434 L 33.32330827067669 28.85788324984435 L 33.81954887218045 27.241066942377856 L 34.315789473684205 25.630647332450067 L 34.81203007518797 24.033207437672516 L 35.308270676691734 22.465983620815443 L 35.80451127819549 20.955401421751397 L 36.30075187969925 19.527918576210084 L 36.796992481203006 18.18626557841195 L 37.29323308270676 16.898286074614056 L 37.78947368421053 15.631114415843236 L 38.285714285714285 14.405000837017788 L 38.78195488721805 13.295769268159589 L 39.278195488721806 12.367868134039767 L 39.774436090225564 11.61230115890698 L 40.27067669172932 10.963540473147518 L 40.76691729323308 10.374622763624238 L 41.26315789473684 9.868682424094203 L 41.7593984962406 9.521714112576888 L 42.255639097744364 9.400000000000006 L 42.75187969924812 9.50760164416532 L 43.24812030075188 9.784919029599209 L 43.744360902255636 10.153167826759187 L 44.2406015037594 10.560495650689461 L 44.73684210526316 10.9958302633731 L 45.233082706766915 11.477109527750265 L 45.72932330827068 12.037126590446881 L 46.225563909774436 12.71571265952062 L 46.721804511278194 13.54980752605853 L 47.21804511278196 14.553393526342965 L 47.714285714285715 15.701213533955666 L 48.21052631578947 16.94123670007766 L 48.70676691729323 18.22902356085355 L 49.203007518796994 19.54737857708441 L 49.69924812030075 20.89966253466295 L 50.19548872180451 22.300743338977263 L 50.69172932330827 23.776732907710937 L 51.18796992481203 25.35561339036701 L 51.68421052631579 27.042955755902113 L 52.18045112781955 28.810132810069632 L 52.67669172932331 30.614818151469223 L 53.17293233082707 32.43020114749773 L 53.669172932330824 34.248356740034204 L 54.16541353383459 36.060873941470405 L 54.661654135338345 37.84770845119157 L 55.1578947368421 39.58954261336876 L 55.65413533834587 41.28836063943949 L 56.150375939849624 42.97018576729002 L 56.64661654135338 44.6621316344294 L 57.142857142857146 46.367069676702066 L 57.6390977443609 48.06522762276778 L 58.13533834586466 49.737771184227405 L 58.63157894736842 51.378172156143336 L 59.12781954887218 52.97725105725742 L 59.62406015037594 54.50760223077643 L 60.1203007518797 55.933767642034056 L 60.61654135338346 57.23792830166547 L 61.11278195488722 58.431789287244754 L 61.609022556390975 59.54532393581876 L 62.10526315789474 60.60632211431266 L 62.6015037593985 61.625390092667196 L 63.097744360902254 62.594180635813515 L 63.59398496240601 63.49885662050897 L 64.09022556390977 64.33788391113629 L 64.58646616541353 65.12618482945089 L 65.08270676691728 65.8829627717393 L 65.57894736842105 66.61826550626354 L 66.07518796992481 67.32928272440026 L 66.57142857142857 68.00363170340253 L 67.06766917293234 68.62419430050727 L 67.5639097744361 69.1748358953533 L 68.06015037593986 69.64720356182399 L 68.55639097744361 70.04631210521221 L 69.05263157894737 70.39145372587672 L 69.54887218045113 70.70966530401672 L 70.04511278195488 71.0226382358841 L 70.54135338345864 71.33513986720907 L 71.0375939849624 71.63541142556782 L 71.53383458646616 71.90770323819731 L 72.03007518796993 72.14474642552939 L 72.52631578947368 72.35005981768765 L 73.02255639097744 72.53220940124199 L 73.5187969924812 72.69845272350004 L 74.01503759398496 72.8510295036148 L 74.51127819548873 72.98647778579318 L 75.00751879699249 73.09923509375727 L 75.50375939849624 73.18825639653939" fill="rgb( 40, 70,200)" style="stroke:none"/>
    </g>
</svg>
