<svg version="1.1" xmlns="http://www.w3.org/2000/svg" width="48" height="48" data-icon="report-page-48" class="iconning iconning-report-page-48" viewBox="0 0 48 48" id="report-page48">
    <g class="iconning-metadata">
        <title>Report Page</title>
    </g>
    <g class="iconning-container" data-width="48" data-height="48">
        <!-- Report Page -->
        <path class="iconning iconning-report iconning-report-48 iconning-accent-1 iconning-report-cover" d="M 1.0 6 L 3.3000000000000003 6 L 6.198 6 L 6.198 8.484 A 2.4839999999999995 2.4839999999999995 0 1 0 8.682 8.484 L 8.682 6.0 L 11.58 6.0 L 14.478 6.0 L 14.478 8.484 A 2.4839999999999995 2.4839999999999995 0 1 0 16.962 8.484 L 16.962 6.0 L 19.86 6.0 L 22.758 6.0 L 22.758 8.484 A 2.4839999999999995 2.4839999999999995 0 1 0 25.241999999999997 8.484 L 25.241999999999997 6.0 L 28.139999999999997 6.0 L 31.037999999999997 6.0 L 31.037999999999997 8.484 A 2.4839999999999995 2.4839999999999995 0 1 0 33.522 8.484 L 33.522 6.0 L 36.42 6.0 L 39.318 6.0 L 39.318 8.484 A 2.4839999999999995 2.4839999999999995 0 1 0 41.802 8.484 L 41.802 6.0 L 44.7 6.0 L 47.0 6.0 L 47.0 15.751999999999999 L 1.0 15.751999999999999 L 1.0 6" fill="rgb( 40, 70,200)" style="stroke:none"/>
        <path class="iconning iconning-report iconning-report-48 iconning-accent-1 iconning-report-page-border" d="M 1.0 15.751999999999999 v 26.248 h 46 v -26.248 h -2.3000000000000003 v 23.948 h -41.4 v -23.948 h -2.3000000000000003" fill="rgb( 40, 70,200)" style="stroke:none"/>
    </g>
</svg>
