<svg version="1.1" xmlns="http://www.w3.org/2000/svg" width="96" height="96" data-icon="report-cover-96" class="iconning iconning-report-cover-96" viewBox="0 0 96 96" id="report-cover96">
    <g class="iconning-metadata">
        <title>Report Cover</title>
    </g>
    <g class="iconning-container" data-width="96" data-height="96">
        <!-- Report Cover -->
        <path class="iconning iconning-report iconning-report-96 iconning-accent-1 iconning-report-cover" d="M 1.0 10 L 5.7 10 L 9.401250000000001 10 L 9.401250000000001 13.1725 A 3.1725 3.1725 0 1 0 12.57375 13.1725 L 12.57375 10.0 L 16.275 10.0 L 19.97625 10.0 L 19.97625 13.1725 A 3.1725 3.1725 0 1 0 23.14875 13.1725 L 23.14875 10.0 L 26.85 10.0 L 30.551250000000003 10.0 L 30.551250000000003 13.1725 A 3.1725 3.1725 0 1 0 33.72375 13.1725 L 33.72375 10.0 L 37.425000000000004 10.0 L 41.126250000000006 10.0 L 41.126250000000006 13.1725 A 3.1725 3.1725 0 1 0 44.298750000000005 13.1725 L 44.298750000000005 10.0 L 48.00000000000001 10.0 L 51.70125000000001 10.0 L 51.70125000000001 13.1725 A 3.1725 3.1725 0 1 0 54.87375000000001 13.1725 L 54.87375000000001 10.0 L 58.57500000000001 10.0 L 62.27625000000001 10.0 L 62.27625000000001 13.1725 A 3.1725 3.1725 0 1 0 65.44875000000002 13.1725 L 65.44875000000002 10.0 L 69.15000000000002 10.0 L 72.85125000000002 10.0 L 72.85125000000002 13.1725 A 3.1725 3.1725 0 1 0 76.02375000000002 13.1725 L 76.02375000000002 10.0 L 79.72500000000002 10.0 L 83.42625000000002 10.0 L 83.42625000000002 13.1725 A 3.1725 3.1725 0 1 0 86.59875000000002 13.1725 L 86.59875000000002 10.0 L 90.30000000000003 10.0 L 95.00000000000003 10.0 L 95.00000000000003 85.0 L 1.0 85.0 L 1.0 10" fill="rgb( 40, 70,200)" style="stroke:none"/>
        <!-- Report Binding -->
        <line class="iconning iconning-report iconning-report-96 iconning-report-binding" x1="10.9875" y1="5.24125" x2="10.9875" y2="15.551874999999999" stroke="rgb(  0,  0,  0)" stroke-width="1.58625" stroke-linecap="round" style="fill:none"/>
        <line class="iconning iconning-report iconning-report-96 iconning-report-binding" x1="21.5625" y1="5.24125" x2="21.5625" y2="15.551874999999999" stroke="rgb(  0,  0,  0)" stroke-width="1.58625" stroke-linecap="round" style="fill:none"/>
        <line class="iconning iconning-report iconning-report-96 iconning-report-binding" x1="32.1375" y1="5.24125" x2="32.1375" y2="15.551874999999999" stroke="rgb(  0,  0,  0)" stroke-width="1.58625" stroke-linecap="round" style="fill:none"/>
        <line class="iconning iconning-report iconning-report-96 iconning-report-binding" x1="42.712500000000006" y1="5.24125" x2="42.712500000000006" y2="15.551874999999999" stroke="rgb(  0,  0,  0)" stroke-width="1.58625" stroke-linecap="round" style="fill:none"/>
        <line class="iconning iconning-report iconning-report-96 iconning-report-binding" x1="53.28750000000001" y1="5.24125" x2="53.28750000000001" y2="15.551874999999999" stroke="rgb(  0,  0,  0)" stroke-width="1.58625" stroke-linecap="round" style="fill:none"/>
        <line class="iconning iconning-report iconning-report-96 iconning-report-binding" x1="63.86250000000001" y1="5.24125" x2="63.86250000000001" y2="15.551874999999999" stroke="rgb(  0,  0,  0)" stroke-width="1.58625" stroke-linecap="round" style="fill:none"/>
        <line class="iconning iconning-report iconning-report-96 iconning-report-binding" x1="74.43750000000001" y1="5.24125" x2="74.43750000000001" y2="15.551874999999999" stroke="rgb(  0,  0,  0)" stroke-width="1.58625" stroke-linecap="round" style="fill:none"/>
        <line class="iconning iconning-report iconning-report-96 iconning-report-binding" x1="85.01250000000002" y1="5.24125" x2="85.01250000000002" y2="15.551874999999999" stroke="rgb(  0,  0,  0)" stroke-width="1.58625" stroke-linecap="round" style="fill:none"/>
    </g>
</svg>
