<svg version="1.1" xmlns="http://www.w3.org/2000/svg" width="64" height="64" data-icon="report-cover-64" class="iconning iconning-report-cover-64" viewBox="0 0 64 64" id="report-cover64">
    <g class="iconning-metadata">
        <title>Report Cover</title>
    </g>
    <g class="iconning-container" data-width="64" data-height="64">
        <!-- Report Cover -->
        <path class="iconning iconning-report iconning-report-64 iconning-accent-1 iconning-report-cover" d="M 1.0 7 L 4.1 7 L 7.3549999999999995 7 L 7.3549999999999995 9.79 A 2.7899999999999996 2.7899999999999996 0 1 0 10.145 9.79 L 10.145 7.0 L 13.399999999999999 7.0 L 16.654999999999998 7.0 L 16.654999999999998 9.79 A 2.7899999999999996 2.7899999999999996 0 1 0 19.444999999999997 9.79 L 19.444999999999997 7.0 L 22.699999999999996 7.0 L 25.954999999999995 7.0 L 25.954999999999995 9.79 A 2.7899999999999996 2.7899999999999996 0 1 0 28.744999999999994 9.79 L 28.744999999999994 7.0 L 31.999999999999993 7.0 L 35.254999999999995 7.0 L 35.254999999999995 9.79 A 2.7899999999999996 2.7899999999999996 0 1 0 38.044999999999995 9.79 L 38.044999999999995 7.0 L 41.3 7.0 L 44.555 7.0 L 44.555 9.79 A 2.7899999999999996 2.7899999999999996 0 1 0 47.345 9.79 L 47.345 7.0 L 50.6 7.0 L 53.855000000000004 7.0 L 53.855000000000004 9.79 A 2.7899999999999996 2.7899999999999996 0 1 0 56.645 9.79 L 56.645 7.0 L 59.900000000000006 7.0 L 63.00000000000001 7.0 L 63.00000000000001 56.0 L 1.0 56.0 L 1.0 7" fill="rgb( 40, 70,200)" style="stroke:none"/>
        <!-- Report Binding -->
        <line class="iconning iconning-report iconning-report-64 iconning-report-binding" x1="8.75" y1="2.8150000000000004" x2="8.75" y2="11.882499999999999" stroke="rgb(  0,  0,  0)" stroke-width="1.3949999999999998" stroke-linecap="round" style="fill:none"/>
        <line class="iconning iconning-report iconning-report-64 iconning-report-binding" x1="18.049999999999997" y1="2.8150000000000004" x2="18.049999999999997" y2="11.882499999999999" stroke="rgb(  0,  0,  0)" stroke-width="1.3949999999999998" stroke-linecap="round" style="fill:none"/>
        <line class="iconning iconning-report iconning-report-64 iconning-report-binding" x1="27.349999999999994" y1="2.8150000000000004" x2="27.349999999999994" y2="11.882499999999999" stroke="rgb(  0,  0,  0)" stroke-width="1.3949999999999998" stroke-linecap="round" style="fill:none"/>
        <line class="iconning iconning-report iconning-report-64 iconning-report-binding" x1="36.64999999999999" y1="2.8150000000000004" x2="36.64999999999999" y2="11.882499999999999" stroke="rgb(  0,  0,  0)" stroke-width="1.3949999999999998" stroke-linecap="round" style="fill:none"/>
        <line class="iconning iconning-report iconning-report-64 iconning-report-binding" x1="45.94999999999999" y1="2.8150000000000004" x2="45.94999999999999" y2="11.882499999999999" stroke="rgb(  0,  0,  0)" stroke-width="1.3949999999999998" stroke-linecap="round" style="fill:none"/>
        <line class="iconning iconning-report iconning-report-64 iconning-report-binding" x1="55.249999999999986" y1="2.8150000000000004" x2="55.249999999999986" y2="11.882499999999999" stroke="rgb(  0,  0,  0)" stroke-width="1.3949999999999998" stroke-linecap="round" style="fill:none"/>
    </g>
</svg>
