<svg version="1.1" xmlns="http://www.w3.org/2000/svg" width="40" height="40" data-icon="report-cover-40" class="iconning iconning-report-cover-40" viewBox="0 0 40 40" id="report-cover40">
    <g class="iconning-metadata">
        <title>Report Cover</title>
    </g>
    <g class="iconning-container" data-width="40" data-height="40">
        <!-- Report Cover -->
        <path class="iconning iconning-report iconning-report-40 iconning-accent-1 iconning-report-cover" d="M 1.0 5 L 2.9000000000000004 5 L 5.2940000000000005 5 L 5.2940000000000005 7.052 A 2.052 2.052 0 1 0 7.346 7.052 L 7.346 5.0 L 9.74 5.0 L 12.134 5.0 L 12.134 7.052 A 2.052 2.052 0 1 0 14.186 7.052 L 14.186 5.0 L 16.58 5.0 L 18.973999999999997 5.0 L 18.973999999999997 7.052 A 2.052 2.052 0 1 0 21.025999999999996 7.052 L 21.025999999999996 5.0 L 23.419999999999995 5.0 L 25.813999999999993 5.0 L 25.813999999999993 7.052 A 2.052 2.052 0 1 0 27.865999999999993 7.052 L 27.865999999999993 5.0 L 30.25999999999999 5.0 L 32.65399999999999 5.0 L 32.65399999999999 7.052 A 2.052 2.052 0 1 0 34.70599999999999 7.052 L 34.70599999999999 5.0 L 37.09999999999999 5.0 L 38.999999999999986 5.0 L 38.999999999999986 35.0 L 1.0 35.0 L 1.0 5" fill="rgb( 40, 70,200)" style="stroke:none"/>
        <!-- Report Binding -->
        <line class="iconning iconning-report iconning-report-40 iconning-report-binding" x1="6.32" y1="1.9219999999999997" x2="6.32" y2="8.591" stroke="rgb(  0,  0,  0)" stroke-width="1.026" stroke-linecap="round" style="fill:none"/>
        <line class="iconning iconning-report iconning-report-40 iconning-report-binding" x1="13.16" y1="1.9219999999999997" x2="13.16" y2="8.591" stroke="rgb(  0,  0,  0)" stroke-width="1.026" stroke-linecap="round" style="fill:none"/>
        <line class="iconning iconning-report iconning-report-40 iconning-report-binding" x1="20.0" y1="1.9219999999999997" x2="20.0" y2="8.591" stroke="rgb(  0,  0,  0)" stroke-width="1.026" stroke-linecap="round" style="fill:none"/>
        <line class="iconning iconning-report iconning-report-40 iconning-report-binding" x1="26.84" y1="1.9219999999999997" x2="26.84" y2="8.591" stroke="rgb(  0,  0,  0)" stroke-width="1.026" stroke-linecap="round" style="fill:none"/>
        <line class="iconning iconning-report iconning-report-40 iconning-report-binding" x1="33.68" y1="1.9219999999999997" x2="33.68" y2="8.591" stroke="rgb(  0,  0,  0)" stroke-width="1.026" stroke-linecap="round" style="fill:none"/>
    </g>
</svg>
