<svg version="1.1" xmlns="http://www.w3.org/2000/svg" width="128" height="128" data-icon="report-cover-128" class="iconning iconning-report-cover-128" viewBox="0 0 128 128" id="report-cover128">
    <g class="iconning-metadata">
        <title>Report Cover</title>
    </g>
    <g class="iconning-container" data-width="128" data-height="128">
        <!-- Report Cover -->
        <path class="iconning iconning-report iconning-report-128 iconning-accent-1 iconning-report-cover" d="M 1.0 14 L 7.300000000000001 14 L 11.269000000000002 14 L 11.269000000000002 17.402 A 3.4019999999999997 3.4019999999999997 0 1 0 14.671000000000001 17.402 L 14.671000000000001 14.000000000000002 L 18.64 14.000000000000002 L 22.609 14.000000000000002 L 22.609 17.402 A 3.4019999999999997 3.4019999999999997 0 1 0 26.011000000000003 17.402 L 26.011000000000003 14.000000000000002 L 29.980000000000004 14.000000000000002 L 33.949000000000005 14.000000000000002 L 33.949000000000005 17.402 A 3.4019999999999997 3.4019999999999997 0 1 0 37.351000000000006 17.402 L 37.351000000000006 14.000000000000002 L 41.32000000000001 14.000000000000002 L 45.28900000000001 14.000000000000002 L 45.28900000000001 17.402 A 3.4019999999999997 3.4019999999999997 0 1 0 48.69100000000001 17.402 L 48.69100000000001 14.000000000000002 L 52.66000000000001 14.000000000000002 L 56.62900000000001 14.000000000000002 L 56.62900000000001 17.402 A 3.4019999999999997 3.4019999999999997 0 1 0 60.03100000000001 17.402 L 60.03100000000001 14.000000000000002 L 64.00000000000001 14.000000000000002 L 67.96900000000001 14.000000000000002 L 67.96900000000001 17.402 A 3.4019999999999997 3.4019999999999997 0 1 0 71.37100000000001 17.402 L 71.37100000000001 14.000000000000002 L 75.34 14.000000000000002 L 79.309 14.000000000000002 L 79.309 17.402 A 3.4019999999999997 3.4019999999999997 0 1 0 82.711 17.402 L 82.711 14.000000000000002 L 86.67999999999999 14.000000000000002 L 90.64899999999999 14.000000000000002 L 90.64899999999999 17.402 A 3.4019999999999997 3.4019999999999997 0 1 0 94.05099999999999 17.402 L 94.05099999999999 14.000000000000002 L 98.01999999999998 14.000000000000002 L 101.98899999999998 14.000000000000002 L 101.98899999999998 17.402 A 3.4019999999999997 3.4019999999999997 0 1 0 105.39099999999998 17.402 L 105.39099999999998 14.000000000000002 L 109.35999999999997 14.000000000000002 L 113.32899999999997 14.000000000000002 L 113.32899999999997 17.402 A 3.4019999999999997 3.4019999999999997 0 1 0 116.73099999999997 17.402 L 116.73099999999997 14.000000000000002 L 120.69999999999996 14.000000000000002 L 126.99999999999996 14.000000000000002 L 126.99999999999996 114.0 L 1.0 114.0 L 1.0 14" fill="rgb( 40, 70,200)" style="stroke:none"/>
        <!-- Report Binding -->
        <line class="iconning iconning-report iconning-report-128 iconning-report-binding" x1="12.97" y1="8.897" x2="12.97" y2="19.953500000000002" stroke="rgb(  0,  0,  0)" stroke-width="1.7009999999999998" stroke-linecap="round" style="fill:none"/>
        <line class="iconning iconning-report iconning-report-128 iconning-report-binding" x1="24.310000000000002" y1="8.897" x2="24.310000000000002" y2="19.953500000000002" stroke="rgb(  0,  0,  0)" stroke-width="1.7009999999999998" stroke-linecap="round" style="fill:none"/>
        <line class="iconning iconning-report iconning-report-128 iconning-report-binding" x1="35.650000000000006" y1="8.897" x2="35.650000000000006" y2="19.953500000000002" stroke="rgb(  0,  0,  0)" stroke-width="1.7009999999999998" stroke-linecap="round" style="fill:none"/>
        <line class="iconning iconning-report iconning-report-128 iconning-report-binding" x1="46.99000000000001" y1="8.897" x2="46.99000000000001" y2="19.953500000000002" stroke="rgb(  0,  0,  0)" stroke-width="1.7009999999999998" stroke-linecap="round" style="fill:none"/>
        <line class="iconning iconning-report iconning-report-128 iconning-report-binding" x1="58.33000000000001" y1="8.897" x2="58.33000000000001" y2="19.953500000000002" stroke="rgb(  0,  0,  0)" stroke-width="1.7009999999999998" stroke-linecap="round" style="fill:none"/>
        <line class="iconning iconning-report iconning-report-128 iconning-report-binding" x1="69.67000000000002" y1="8.897" x2="69.67000000000002" y2="19.953500000000002" stroke="rgb(  0,  0,  0)" stroke-width="1.7009999999999998" stroke-linecap="round" style="fill:none"/>
        <line class="iconning iconning-report iconning-report-128 iconning-report-binding" x1="81.01000000000002" y1="8.897" x2="81.01000000000002" y2="19.953500000000002" stroke="rgb(  0,  0,  0)" stroke-width="1.7009999999999998" stroke-linecap="round" style="fill:none"/>
        <line class="iconning iconning-report iconning-report-128 iconning-report-binding" x1="92.35000000000002" y1="8.897" x2="92.35000000000002" y2="19.953500000000002" stroke="rgb(  0,  0,  0)" stroke-width="1.7009999999999998" stroke-linecap="round" style="fill:none"/>
        <line class="iconning iconning-report iconning-report-128 iconning-report-binding" x1="103.69000000000003" y1="8.897" x2="103.69000000000003" y2="19.953500000000002" stroke="rgb(  0,  0,  0)" stroke-width="1.7009999999999998" stroke-linecap="round" style="fill:none"/>
        <line class="iconning iconning-report iconning-report-128 iconning-report-binding" x1="115.03000000000003" y1="8.897" x2="115.03000000000003" y2="19.953500000000002" stroke="rgb(  0,  0,  0)" stroke-width="1.7009999999999998" stroke-linecap="round" style="fill:none"/>
    </g>
</svg>
