<svg version="1.1" xmlns="http://www.w3.org/2000/svg" width="48" height="48" data-icon="report-cover-48" class="iconning iconning-report-cover-48" viewBox="0 0 48 48" id="report-cover48">
    <g class="iconning-metadata">
        <title>Report Cover</title>
    </g>
    <g class="iconning-container" data-width="48" data-height="48">
        <!-- Report Cover -->
        <path class="iconning iconning-report iconning-report-48 iconning-accent-1 iconning-report-cover" d="M 1.0 6 L 3.3000000000000003 6 L 6.198 6 L 6.198 8.484 A 2.4839999999999995 2.4839999999999995 0 1 0 8.682 8.484 L 8.682 6.0 L 11.58 6.0 L 14.478 6.0 L 14.478 8.484 A 2.4839999999999995 2.4839999999999995 0 1 0 16.962 8.484 L 16.962 6.0 L 19.86 6.0 L 22.758 6.0 L 22.758 8.484 A 2.4839999999999995 2.4839999999999995 0 1 0 25.241999999999997 8.484 L 25.241999999999997 6.0 L 28.139999999999997 6.0 L 31.037999999999997 6.0 L 31.037999999999997 8.484 A 2.4839999999999995 2.4839999999999995 0 1 0 33.522 8.484 L 33.522 6.0 L 36.42 6.0 L 39.318 6.0 L 39.318 8.484 A 2.4839999999999995 2.4839999999999995 0 1 0 41.802 8.484 L 41.802 6.0 L 44.7 6.0 L 47.0 6.0 L 47.0 42.0 L 1.0 42.0 L 1.0 6" fill="rgb( 40, 70,200)" style="stroke:none"/>
        <!-- Report Binding -->
        <line class="iconning iconning-report iconning-report-48 iconning-report-binding" x1="7.4399999999999995" y1="2.2740000000000014" x2="7.4399999999999995" y2="10.347000000000001" stroke="rgb(  0,  0,  0)" stroke-width="1.2419999999999998" stroke-linecap="round" style="fill:none"/>
        <line class="iconning iconning-report iconning-report-48 iconning-report-binding" x1="15.719999999999999" y1="2.2740000000000014" x2="15.719999999999999" y2="10.347000000000001" stroke="rgb(  0,  0,  0)" stroke-width="1.2419999999999998" stroke-linecap="round" style="fill:none"/>
        <line class="iconning iconning-report iconning-report-48 iconning-report-binding" x1="24.0" y1="2.2740000000000014" x2="24.0" y2="10.347000000000001" stroke="rgb(  0,  0,  0)" stroke-width="1.2419999999999998" stroke-linecap="round" style="fill:none"/>
        <line class="iconning iconning-report iconning-report-48 iconning-report-binding" x1="32.28" y1="2.2740000000000014" x2="32.28" y2="10.347000000000001" stroke="rgb(  0,  0,  0)" stroke-width="1.2419999999999998" stroke-linecap="round" style="fill:none"/>
        <line class="iconning iconning-report iconning-report-48 iconning-report-binding" x1="40.56" y1="2.2740000000000014" x2="40.56" y2="10.347000000000001" stroke="rgb(  0,  0,  0)" stroke-width="1.2419999999999998" stroke-linecap="round" style="fill:none"/>
    </g>
</svg>
