<svg version="1.1" xmlns="http://www.w3.org/2000/svg" width="80" height="80" data-icon="report-cover-80" class="iconning iconning-report-cover-80" viewBox="0 0 80 80" id="report-cover80">
    <g class="iconning-metadata">
        <title>Report Cover</title>
    </g>
    <g class="iconning-container" data-width="80" data-height="80">
        <!-- Report Cover -->
        <path class="iconning iconning-report iconning-report-80 iconning-accent-1 iconning-report-cover" d="M 1.0 9 L 4.9 9 L 8.41 9 L 8.41 12.008571428571429 A 3.0085714285714285 3.0085714285714285 0 1 0 11.418571428571429 12.008571428571429 L 11.418571428571429 9.0 L 14.928571428571429 9.0 L 18.43857142857143 9.0 L 18.43857142857143 12.008571428571429 A 3.0085714285714285 3.0085714285714285 0 1 0 21.447142857142858 12.008571428571429 L 21.447142857142858 9.0 L 24.957142857142856 9.0 L 28.467142857142854 9.0 L 28.467142857142854 12.008571428571429 A 3.0085714285714285 3.0085714285714285 0 1 0 31.475714285714282 12.008571428571429 L 31.475714285714282 9.0 L 34.98571428571428 9.0 L 38.49571428571428 9.0 L 38.49571428571428 12.008571428571429 A 3.0085714285714285 3.0085714285714285 0 1 0 41.50428571428571 12.008571428571429 L 41.50428571428571 9.0 L 45.014285714285705 9.0 L 48.5242857142857 9.0 L 48.5242857142857 12.008571428571429 A 3.0085714285714285 3.0085714285714285 0 1 0 51.53285714285713 12.008571428571429 L 51.53285714285713 9.0 L 55.04285714285713 9.0 L 58.55285714285713 9.0 L 58.55285714285713 12.008571428571429 A 3.0085714285714285 3.0085714285714285 0 1 0 61.56142857142856 12.008571428571429 L 61.56142857142856 9.0 L 65.07142857142856 9.0 L 68.58142857142856 9.0 L 68.58142857142856 12.008571428571429 A 3.0085714285714285 3.0085714285714285 0 1 0 71.58999999999999 12.008571428571429 L 71.58999999999999 9.0 L 75.1 9.0 L 79.0 9.0 L 79.0 71.0 L 1.0 71.0 L 1.0 9" fill="rgb( 40, 70,200)" style="stroke:none"/>
        <!-- Report Binding -->
        <line class="iconning iconning-report iconning-report-80 iconning-report-binding" x1="9.914285714285715" y1="4.4871428571428575" x2="9.914285714285715" y2="14.265" stroke="rgb(  0,  0,  0)" stroke-width="1.5042857142857142" stroke-linecap="round" style="fill:none"/>
        <line class="iconning iconning-report iconning-report-80 iconning-report-binding" x1="19.942857142857143" y1="4.4871428571428575" x2="19.942857142857143" y2="14.265" stroke="rgb(  0,  0,  0)" stroke-width="1.5042857142857142" stroke-linecap="round" style="fill:none"/>
        <line class="iconning iconning-report iconning-report-80 iconning-report-binding" x1="29.97142857142857" y1="4.4871428571428575" x2="29.97142857142857" y2="14.265" stroke="rgb(  0,  0,  0)" stroke-width="1.5042857142857142" stroke-linecap="round" style="fill:none"/>
        <line class="iconning iconning-report iconning-report-80 iconning-report-binding" x1="40.0" y1="4.4871428571428575" x2="40.0" y2="14.265" stroke="rgb(  0,  0,  0)" stroke-width="1.5042857142857142" stroke-linecap="round" style="fill:none"/>
        <line class="iconning iconning-report iconning-report-80 iconning-report-binding" x1="50.028571428571425" y1="4.4871428571428575" x2="50.028571428571425" y2="14.265" stroke="rgb(  0,  0,  0)" stroke-width="1.5042857142857142" stroke-linecap="round" style="fill:none"/>
        <line class="iconning iconning-report iconning-report-80 iconning-report-binding" x1="60.05714285714285" y1="4.4871428571428575" x2="60.05714285714285" y2="14.265" stroke="rgb(  0,  0,  0)" stroke-width="1.5042857142857142" stroke-linecap="round" style="fill:none"/>
        <line class="iconning iconning-report iconning-report-80 iconning-report-binding" x1="70.08571428571427" y1="4.4871428571428575" x2="70.08571428571427" y2="14.265" stroke="rgb(  0,  0,  0)" stroke-width="1.5042857142857142" stroke-linecap="round" style="fill:none"/>
    </g>
</svg>
