<svg version="1.1" xmlns="http://www.w3.org/2000/svg" width="64" height="64" data-icon="report-page-64" class="iconning iconning-report-page-64" viewBox="0 0 64 64" id="report-page64">
    <g class="iconning-metadata">
        <title>Report Page</title>
    </g>
    <g class="iconning-container" data-width="64" data-height="64">
        <!-- Report Page -->
        <path class="iconning iconning-report iconning-report-64 iconning-accent-1 iconning-report-cover" d="M 1.0 7 L 4.1 7 L 7.3549999999999995 7 L 7.3549999999999995 9.79 A 2.7899999999999996 2.7899999999999996 0 1 0 10.145 9.79 L 10.145 7.0 L 13.399999999999999 7.0 L 16.654999999999998 7.0 L 16.654999999999998 9.79 A 2.7899999999999996 2.7899999999999996 0 1 0 19.444999999999997 9.79 L 19.444999999999997 7.0 L 22.699999999999996 7.0 L 25.954999999999995 7.0 L 25.954999999999995 9.79 A 2.7899999999999996 2.7899999999999996 0 1 0 28.744999999999994 9.79 L 28.744999999999994 7.0 L 31.999999999999993 7.0 L 35.254999999999995 7.0 L 35.254999999999995 9.79 A 2.7899999999999996 2.7899999999999996 0 1 0 38.044999999999995 9.79 L 38.044999999999995 7.0 L 41.3 7.0 L 44.555 7.0 L 44.555 9.79 A 2.7899999999999996 2.7899999999999996 0 1 0 47.345 9.79 L 47.345 7.0 L 50.6 7.0 L 53.855000000000004 7.0 L 53.855000000000004 9.79 A 2.7899999999999996 2.7899999999999996 0 1 0 56.645 9.79 L 56.645 7.0 L 59.900000000000006 7.0 L 63.00000000000001 7.0 L 63.00000000000001 18.47 L 1.0 18.47 L 1.0 7" fill="rgb( 40, 70,200)" style="stroke:none"/>
        <path class="iconning iconning-report iconning-report-64 iconning-accent-1 iconning-report-page-border" d="M 1.0 18.47 v 37.53 h 62 v -37.53 h -3.1 v 34.43 h -55.8 v -34.43 h -3.1" fill="rgb( 40, 70,200)" style="stroke:none"/>
    </g>
</svg>
