<svg version="1.1" xmlns="http://www.w3.org/2000/svg" width="96" height="96" data-icon="roulette-96" class="iconning iconning-roulette-96" viewBox="0 0 96 96" id="roulette96">
    <g class="iconning-metadata">
        <title>Roulette Wheel</title>
    </g>
    <g class="iconning-container" data-width="96" data-height="96">
        <g data-width="96" data-height="96" transform="translate(48.0 48.0)">
            <!-- Background Circle -->
            <circle class="iconning-bg iconning-roulette-bg" fill="rgb(255,255,255)" fill-opacity="0.5" r="48.0" style="stroke:none"/>
            <!-- Slots -->
            <g data-width="96" data-height="96" transform="rotate(12.5)">
                <path class="iconning iconning-roulette iconning-roulette-96 iconning-roulette-slot-red" d="M 0 -23.04 V -46.08 A 46.08 46.08 0 0 1 11.926381598324156 -44.509862075400264 L 5.963190799162078 -22.254931037700132" fill="rgb(255,0,0)" style="stroke:none"/>
            </g>
            <g data-width="96" data-height="96" transform="rotate(32.5)">
                <path class="iconning iconning-roulette iconning-roulette-96 iconning-roulette-slot-black" d="M 0 -23.04 V -46.08 A 46.08 46.08 0 0 1 11.926381598324156 -44.509862075400264 L 5.963190799162078 -22.254931037700132" fill="rgb(0,0,0)" style="stroke:none"/>
            </g>
            <g data-width="96" data-height="96" transform="rotate(52.5)">
                <path class="iconning iconning-roulette iconning-roulette-96 iconning-roulette-slot-red" d="M 0 -23.04 V -46.08 A 46.08 46.08 0 0 1 11.926381598324156 -44.509862075400264 L 5.963190799162078 -22.254931037700132" fill="rgb(255,0,0)" style="stroke:none"/>
            </g>
            <g data-width="96" data-height="96" transform="rotate(72.5)">
                <path class="iconning iconning-roulette iconning-roulette-96 iconning-roulette-slot-black" d="M 0 -23.04 V -46.08 A 46.08 46.08 0 0 1 11.926381598324156 -44.509862075400264 L 5.963190799162078 -22.254931037700132" fill="rgb(0,0,0)" style="stroke:none"/>
            </g>
            <g data-width="96" data-height="96" transform="rotate(92.5)">
                <path class="iconning iconning-roulette iconning-roulette-96 iconning-roulette-slot-red" d="M 0 -23.04 V -46.08 A 46.08 46.08 0 0 1 11.926381598324156 -44.509862075400264 L 5.963190799162078 -22.254931037700132" fill="rgb(255,0,0)" style="stroke:none"/>
            </g>
            <g data-width="96" data-height="96" transform="rotate(112.5)">
                <path class="iconning iconning-roulette iconning-roulette-96 iconning-roulette-slot-black" d="M 0 -23.04 V -46.08 A 46.08 46.08 0 0 1 11.926381598324156 -44.509862075400264 L 5.963190799162078 -22.254931037700132" fill="rgb(0,0,0)" style="stroke:none"/>
            </g>
            <g data-width="96" data-height="96" transform="rotate(132.5)">
                <path class="iconning iconning-roulette iconning-roulette-96 iconning-roulette-slot-red" d="M 0 -23.04 V -46.08 A 46.08 46.08 0 0 1 11.926381598324156 -44.509862075400264 L 5.963190799162078 -22.254931037700132" fill="rgb(255,0,0)" style="stroke:none"/>
            </g>
            <g data-width="96" data-height="96" transform="rotate(152.5)">
                <path class="iconning iconning-roulette iconning-roulette-96 iconning-roulette-slot-black" d="M 0 -23.04 V -46.08 A 46.08 46.08 0 0 1 11.926381598324156 -44.509862075400264 L 5.963190799162078 -22.254931037700132" fill="rgb(0,0,0)" style="stroke:none"/>
            </g>
            <g data-width="96" data-height="96" transform="rotate(172.5)">
                <path class="iconning iconning-roulette iconning-roulette-96 iconning-roulette-slot-green" d="M 0 -23.04 V -46.08 A 46.08 46.08 0 0 1 11.926381598324156 -44.509862075400264 L 5.963190799162078 -22.254931037700132" fill="rgb(0,255,0)" style="stroke:none"/>
            </g>
            <g data-width="96" data-height="96" transform="rotate(192.5)">
                <path class="iconning iconning-roulette iconning-roulette-96 iconning-roulette-slot-red" d="M 0 -23.04 V -46.08 A 46.08 46.08 0 0 1 11.926381598324156 -44.509862075400264 L 5.963190799162078 -22.254931037700132" fill="rgb(255,0,0)" style="stroke:none"/>
            </g>
            <g data-width="96" data-height="96" transform="rotate(212.5)">
                <path class="iconning iconning-roulette iconning-roulette-96 iconning-roulette-slot-black" d="M 0 -23.04 V -46.08 A 46.08 46.08 0 0 1 11.926381598324156 -44.509862075400264 L 5.963190799162078 -22.254931037700132" fill="rgb(0,0,0)" style="stroke:none"/>
            </g>
            <g data-width="96" data-height="96" transform="rotate(232.5)">
                <path class="iconning iconning-roulette iconning-roulette-96 iconning-roulette-slot-red" d="M 0 -23.04 V -46.08 A 46.08 46.08 0 0 1 11.926381598324156 -44.509862075400264 L 5.963190799162078 -22.254931037700132" fill="rgb(255,0,0)" style="stroke:none"/>
            </g>
            <g data-width="96" data-height="96" transform="rotate(252.5)">
                <path class="iconning iconning-roulette iconning-roulette-96 iconning-roulette-slot-black" d="M 0 -23.04 V -46.08 A 46.08 46.08 0 0 1 11.926381598324156 -44.509862075400264 L 5.963190799162078 -22.254931037700132" fill="rgb(0,0,0)" style="stroke:none"/>
            </g>
            <g data-width="96" data-height="96" transform="rotate(272.5)">
                <path class="iconning iconning-roulette iconning-roulette-96 iconning-roulette-slot-red" d="M 0 -23.04 V -46.08 A 46.08 46.08 0 0 1 11.926381598324156 -44.509862075400264 L 5.963190799162078 -22.254931037700132" fill="rgb(255,0,0)" style="stroke:none"/>
            </g>
            <g data-width="96" data-height="96" transform="rotate(292.5)">
                <path class="iconning iconning-roulette iconning-roulette-96 iconning-roulette-slot-black" d="M 0 -23.04 V -46.08 A 46.08 46.08 0 0 1 11.926381598324156 -44.509862075400264 L 5.963190799162078 -22.254931037700132" fill="rgb(0,0,0)" style="stroke:none"/>
            </g>
            <g data-width="96" data-height="96" transform="rotate(312.5)">
                <path class="iconning iconning-roulette iconning-roulette-96 iconning-roulette-slot-red" d="M 0 -23.04 V -46.08 A 46.08 46.08 0 0 1 11.926381598324156 -44.509862075400264 L 5.963190799162078 -22.254931037700132" fill="rgb(255,0,0)" style="stroke:none"/>
            </g>
            <g data-width="96" data-height="96" transform="rotate(332.5)">
                <path class="iconning iconning-roulette iconning-roulette-96 iconning-roulette-slot-black" d="M 0 -23.04 V -46.08 A 46.08 46.08 0 0 1 11.926381598324156 -44.509862075400264 L 5.963190799162078 -22.254931037700132" fill="rgb(0,0,0)" style="stroke:none"/>
            </g>
            <g data-width="96" data-height="96" transform="rotate(352.5)">
                <path class="iconning iconning-roulette iconning-roulette-96 iconning-roulette-slot-green" d="M 0 -23.04 V -46.08 A 46.08 46.08 0 0 1 11.926381598324156 -44.509862075400264 L 5.963190799162078 -22.254931037700132" fill="rgb(0,255,0)" style="stroke:none"/>
            </g>
            <!-- Center -->
            <path class="iconning iconning-roulette iconning-roulette-96 iconning-stroke iconning-roulette-center" d="M 0 13.824 L 4.608 4.608 L 13.824 0 L 4.608 -4.608 L 0 -13.824 L -4.608 -4.608 L -13.824 0 L -4.608 4.608 L 0 13.824" fill="rgb(  0,  0,  0)" style="stroke:none"/>
            <!-- Foreground Circle (transparent for mouseover event only)-->
            <circle class="iconning-fg iconning-roulette-fg" fill="rgb(255,255,255)" r="48.0" style="stroke:none; fill-opacity:0" id="roulette96circle"/>
        </g>
        <animateTransform attributeName="transform" dur="0.5s" type="rotate" from="0.0 48.0 48.0" to="180.0 48.0 48.0" begin="roulette96circle.mouseover"/>
    </g>
</svg>
